<?xml version="1.0" encoding="UTF-8"?>
<svg id="Layer_2" data-name="Layer 2" xmlns="http://www.w3.org/2000/svg" viewBox="0 0 914.81 300.35">
  <defs>
    <style>
      .cls-1 {
        fill: #231f20;
        stroke-width: 0px;
      }
    </style>
  </defs>
  <g id="Layer_1-2" data-name="Layer 1">
    <g>
      <g>
        <path class="cls-1" d="M0,212.27L85.08,0h206.04l-35.66,88.52h-101.62l7.3-19.77h69.39l-30.08,74.77h-68.96l8.16-19.77h101.62l-35.23,88.52H0ZM189.49,187.77l15.68-39.53h-102.05l12.03-29.22h68.75l10.31-25.78h-68.11l10.53-29.22h102.27l15.9-39.53H101.62L36.09,187.77h153.4Z"/>
        <path class="cls-1" d="M193.57,212.27L278.65,0h205.61l-40.82,102.27h-87.87l-3.22,7.73h87.87l-40.82,102.27h-205.82ZM382.85,187.77l21.27-53.28h-87.87l22.77-56.72h87.87l21.27-53.28h-152.97l-65.53,163.28h153.18Z"/>
        <path class="cls-1" d="M386.72,212.27L471.8,0h104.2l-22.13,55h19.55L595.55,0h103.98l-84.86,212.27h-104.2l16.54-41.25h-19.55l-16.54,41.25h-104.2ZM474.38,187.77l16.54-41.25h72.19l-16.54,41.25h51.56l65.31-163.28h-51.35l-22.13,55h-72.4l22.13-55h-51.35l-65.53,163.28h51.56Z"/>
        <path class="cls-1" d="M601.99,212.27L687.07,0h227.73l-84.86,212.27h-227.95ZM813.4,187.77l65.31-163.28h-175.1l-65.53,163.28h175.31ZM710.92,134.49l22.77-56.72h72.19l-22.56,56.72h-72.4ZM766.78,110l3.01-7.73h-19.55l-3.22,7.73h19.77Z"/>
      </g>
      <g>
        <path class="cls-1" d="M371.49,235.54c-.1.13-.19.24-.23.33l-.19.41-.41.19c-.93.43-1.86.54-2.68.63-.2.02-.38.04-.57.07-.53.07-1.1.27-1.66.47-.15.05-.29.1-.43.15-.16.06-.32.09-.46.12.04.31.08.77-.14,1.27l-.15.36-.33.21c-1.59,1-3.11,1.05-4.53.98-.91.32-1.79.41-2.61.45-.57.16-1.14.29-1.72.4-.22,1.1-1.06,2.32-1.62,2.87-.99.96-1.89.96-2.49.96h-.07c-.18,0-.33,0-.49.02-.1.01-.2.03-.3.04-.3.05-.67.11-1.09.07-.43-.04-.77-.17-1.04-.28-.12-.05-.24-.1-.3-.11-.04,0-.12.02-.18.03-.31.06-.78.15-1.33-.02-.18-.05-.33-.13-.46-.21-.19.25-.46.54-.88.72-.93.4-1.9.57-2.84.73-.36.06-.69.12-1.01.19-1.43.31-2.9.64-4.64,1.05-1.7.4-3.41.83-5.07,1.24-1.95.49-3.97.99-5.98,1.46-.03.02-.07.05-.1.07-.16.11-.38.26-.67.37.44.16.96.2,1.52.25.42.04.85.07,1.28.16,1.99.39,3.85.8,5.82,1.24l.44.1c.28.06.55.12.82.18.76.17,1.52.33,2.29.52.42.1.82.26,1.18.39.43.16.83.31,1.18.36.53.07.98.2,1.37.32.21.06.42.12.63.17.11.03.32,0,.54-.03.31-.04.69-.09,1.11-.04.4.04.76.14,1.07.23.26.07.48.13.66.15.97.11,1.58.48,2.26,1.05.05.04.08.07.11.09.17-.08.39-.15.65-.16.42-.01.77.1,1.03.17.08.02.15.05.22.06,1.84.42,3.29.77,5.36,1.28.18.04.41.09.69.14,1.49.28,3.73.71,4.52,2.44.27.58.2,1.09.15,1.39,0,.05-.01.09-.02.14-.02.28.02.6.05.92.07.7.16,1.57-.2,2.47-.39.97-.94,1.81-1.47,2.61-.5.76-1.01,1.54-1.31,2.35-.04.12-.08.25-.12.38-.11.39-.25.86-.57,1.32-.31.45-.7.75-1.01.99-.06.04-.11.08-.16.13-.44.35-.86.82-1.27,1.27-.53.58-1.07,1.18-1.76,1.69-1.38,1.02-2.96,1.46-4.35,1.84-.48.13-.91.16-1.29.19-.23.01-.42.03-.6.06-.15.03-.31.09-.49.15-.14.05-.3.11-.46.15-.51.15-.9.06-1.13-.01-.05.03-.11.07-.15.1l-.1.07c-.17.12-.31.23-.45.35-.34.29-.76.64-1.54.89-.83.27-1.71.49-2.56.69-.9.22-1.83.45-2.68.74-2.56.86-4.65,1.62-6.59,2.4-3.95,1.58-7.78,3.29-11.68,5.06-1.46.66-2.97,1.33-4.44,1.98l-1.51.67c-.14.06-.29.13-.43.2-.66.32-1.4.67-2.24.74-.19.01-.36.02-.5.02-.28,0-.35,0-.44.05-.02.01-.1.06-.15.1-.24.17-.62.42-1.14.5-.33.05-.62.03-.84.02-.07,0-.16-.01-.21-.01-.09.07-.24.25-.36.4-.26.33-.59.74-1.09,1.05-.56.34-1.16.59-1.74.84-.22.09-.44.18-.66.28-.24.11-.5.24-.75.38-.36.19-.73.39-1.13.55-.32.13-.62.18-.86.23-.12.02-.23.04-.3.06-.04.01-.07.03-.1.04-.25.11-.7.29-1.3.17-.32-.06-.55-.2-.71-.29,0,0-.02,0-.03-.01-.1,0-.18.01-.21.02-.09.09-.18.2-.27.33-.27.34-.63.81-1.3,1.1-.22.09-.4.14-.53.17-.03,0-.06.01-.09.02-.16.1-.39.25-.52.38-.58.51-1.08.89-1.9,1.32-.08.04-.18.11-.29.18-.46.29-1.08.69-1.88.69-.22,0-.44-.03-.65-.1l-1.17-.35.32-1.18c.33-1.19.72-2.09,1.66-2.9.47-.41.99-.81,1.58-.98.3-.09.57-.1.78-.08.04-.05.09-.1.14-.15.18-.16.37-.25.52-.3.07-.29.23-.7.67-1.04.31-.23.63-.3.87-.32.07-.2.16-.48.33-.76.44-.74,1.18-1.05,1.67-1.25.1-.04.19-.08.27-.12l.51-.24c.07-.03.14-.07.21-.1-.25-.14-.45-.35-.59-.61-.08-.16-.27-.58-.13-1.13l-1.19.52,4.32-4.5c1.06-1.11,2.58-1.44,3.63-1.6.23-.04.44-.03.61,0,.08-.15.19-.32.33-.48.34-.38.72-.51.92-.58.02,0,.03,0,.05-.01.03-.02.06-.05.09-.08.2-.17.5-.43.95-.57.26-.08.49-.09.68-.1.1-.12.23-.24.42-.33.11-.06.32-.14.58-.16.52-.56,1.3-1.16,2.17-1.08.31.03.73.12,1.06.41.21-.09.41-.13.57-.17.05-.01.09-.02.13-.03.24-.12.49-.24.72-.35l.33-.16c.5-.25.64-.34.93-.67.74-.86,1.53-1.45,2.64-1.96.37-.17.76-.35,1.16-.53.53-.24,1.07-.49,1.59-.73,2.02-.93,4.1-1.85,5.93-2.66l.41-.18c.89-.39,1.8-.8,2.7-1.14.23-.09.5-.24.76-.38.31-.17.67-.36,1.03-.5q.43-.16.63-.49l.33-.55.64-.05c.63-.05,1.1.2,1.39.34,0,0,0,0,0,0,.01-.01.03-.03.04-.03.15-.15.37-.36.64-.54.35-.22.7-.29.96-.34.07-.01.13-.02.19-.04.97-.26,1.43-.4,2.54-.73.07-.02.15-.04.24-.07.82-.23,1.29-.43,1.55-.59-.42-.16-.82-.34-1.21-.51-.55-.25-1.12-.5-1.66-.65-.76-.21-1.55-.41-2.31-.6-1.29-.32-2.62-.65-3.92-1.08-.48-.16-.96-.24-1.52-.33-.19-.03-.37-.06-.56-.09-.44-.08-.88-.18-1.3-.27-.48-.11-.98-.22-1.45-.29-.86-.14-1.7-.32-2.51-.49l-.35-.08c-.63-.14-1.29-.28-2-.71-.47-.29-.67-.26-1.63-.03l-.15.04c-1.12.27-2.24.04-3.22-.16-.14-.03-.28-.06-.42-.08-.37-.07-.77-.09-1.23-.11-.75-.04-1.6-.08-2.43-.39-.74-.27-1.31-.72-1.81-1.11-.24-.19-.5-.39-.74-.54-.15-.09-.34-.18-.56-.27-.27-.12-.58-.26-.88-.44-.87-.54-1.4-1.33-1.48-2.23-.05-.56.1-1.02.21-1.35.03-.09.06-.18.08-.26.08-.32.07-.78.06-1.21-.01-.45-.03-.96.05-1.46.17-1.08.57-2.02.92-2.85.38-.91.71-1.69.78-2.56v-.03c.03-.69.36-1.52.65-1.96.44-.66,1.04-.97,1.49-1.2.13-.07.26-.13.33-.18,2.66-1.87,5.46-3,8.58-4.18,2.84-1.07,5.49-1.96,8.09-2.7.47-.13.85-.1,1.1-.08.05,0,.11,0,.15,0,.03-.02.07-.05.09-.07.14-.11.32-.24.56-.35.68-.32,1.41-.45,2.05-.56.19-.03.37-.06.54-.1.34-.07.68-.15,1.02-.22,1.22-.26,2.37-.51,3.59-.71.6-.1,1.21-.18,1.75-.25.91-.12,1.84-.24,2.72-.44.12-.03.23-.06.35-.08.46-.12.97-.25,1.6-.2.28.02.52.08.71.14.07.02.14.04.2.05l.98.2c.24-.06.48-.1.7-.13.11-.02.21-.03.31-.05l.11-.02c.07-.01.12-.02.17-.03.57-.14,1.04-.27,1.48-.47l.23-.11h.26c.11-.01.21-.01.31-.02.12-.06.27-.12.44-.16.22-.05.52-.06.85.06.14-.01.29-.02.43-.03h.05c.55-.05,1.13-.09,1.71-.12,1.15-.06,2.3-.1,3.42-.14l.61-.02c.21-.06.41-.11.6-.15.39-.17.91-.25,1.48.04.17-.01.35-.02.51-.03h.05c.09,0,.17-.01.26-.02.07-.02.14-.04.21-.06.08-.02.16-.04.24-.06.24-.07.54-.15.87-.17.24-.02.47,0,.66,0,.2,0,.37.01.5,0,.05,0,.12-.03.2-.05.19-.05.42-.11.7-.13.27-.02.51.02.68.05.06,0,.13.02.15.02.1,0,.24-.02.38-.04.35-.04.79-.09,1.28-.01.19.03.34.09.46.14.13-.02.31-.05.51-.04.24.01.45.04.61.07.21.03.29.05.35.03.09-.02.23-.06.37-.11.26-.08.55-.18.88-.22.24-.03.49-.08.74-.12.68-.12,1.44-.26,2.26-.21l.73.05.31.65c.62,1.29-.07,2.15-.4,2.56Z"/>
        <path class="cls-1" d="M422.64,241.48c-.04.07-.2.12-.42.2-.24.08-.51.17-.76.35-.32.23-.56.47-.78.68-.19.19-.35.35-.52.45-.74.46-1.48.79-2.27,1.14-.29.13-.59.26-.89.41l-.61.28.09.63c-.25.21-.45.42-.65.63-.19.2-.37.38-.59.57-.56.49-1.15.83-1.81,1.03-.04.01-.16.03-.25.04-.42.07-.74.13-1,.27-.46.25-.79.58-1.08.86-.24.24-.45.44-.69.57-1.27.69-2.33,1.07-3.64,1.33-.74.14-1.53.23-2.37.32-.75.08-1.52.16-2.29.29-.33.06-.67.14-.99.23-.47.12-.96.24-1.41.27-1.86.11-3.79.15-5.66.18-1.06.02-2.17.04-3.24.07h-.37s-.25.29-.25.29c-.7.78-1.38,1.61-2.03,2.42-.51.64-1.04,1.29-1.57,1.9-.15.17-.38.32-.62.49-.3.2-.61.41-.86.7-1.01,1.16-.95,2.13-.89,3.15l.06.9.88-.06c1.19-.08,2.21-.23,3.21-.47.23-.05.45-.11.69-.16,1.08-.26,2.2-.53,3.23-.63,2.04-.2,4.17-.16,6.22-.13h.81c1.27.03,2.71.01,3.86,0h.41c1.01-.02,1.59-.04,2.39-.08h.15c.33.29.74.42,1.01.5.11.03.22.07.29.1.55.26,1.03.6,1.52.97-.34.25-.68.52-.92.85-.56.76-.49,1.43-.44,1.92,0,.08.02.15.02.22-.4.44-.79.86-1.2,1.32-.66.73-1.44,1.39-2.25,1.9-.5.31-.98.6-1.46.89-.32.19-.64.39-.97.59-.22.02-.44.03-.66.05-.94.07-1.91.14-2.91.33l-.18.03c-.98.18-2,.36-3.01.7-.39.13-.75.36-1.06.56-.22.14-.42.27-.58.34-.71.3-1.47.58-2.22.62-.36.02-.71.02-1.08.02-.65,0-1.33-.01-2.06.13-.3.06-.53.19-.72.29-.1.05-.19.11-.26.12-.26.08-.58.13-.94.17-.36.04-.71.07-1.06.1-.63.05-1.29.11-1.98.21-.6.09-1.4.24-2.18.6-.24.11-.48.24-.71.36-.4.21-.81.43-1.18.54-.03,0-.13,0-.2,0-.15,0-.34,0-.55.03-.37.07-.74.15-1.09.23-.48.11-.93.21-1.37.27-.71.09-1.42.13-2.17.17-.31.02-.62.03-.94.05-.09,0-.29,0-.51.11-.1.05-.32.15-.5.4-.14.19-.23.37-.3.51-.08.16-.14.27-.24.38-.1.11-.21.2-.34.31-.18.15-.41.33-.66.61-.1.11-.21.22-.33.34-.31.32-.67.67-1.01,1.21-.28.44-.86,1.52-1.09,1.97l-.71,1.41,1.55-.09c2.11-.12,4.16-.53,5.89-.92,2.35-.18,4.7-.38,6.69-.55.02,0,.03,0,.06,0,0,0,0,0,.01,0,.11.08.31.22.6.27.46.07.76-.16.9-.28,1.05-.53,2.05-.89,3.05-1.09.82-.17,1.62-.24,2.43-.24.46,0,.91.03,1.4.06.4.02.81.05,1.22.06.07,0,.14,0,.21.01.27.02.6.04.94-.05.37-.1.61-.31.77-.44.04-.03.08-.07.1-.08.41-.25.74-.41,1.13-.46.02,0,.05.02.07.02.13.04.3.1.52.11.47.03.92.03,1.36.03.33,0,.67,0,1.02.01.15,0,.31.01.46.02.67.02,1.29.04,1.95.13.12.02.25.03.38.05,1.03.13,2.01.25,2.7.81.01.01.02.02.03.03,0,.11-.1.37-.17.54-.02.06-.05.13-.07.19-.21.59-.41,1.19-.6,1.77-.26.81-.54,1.64-.84,2.42-.72,1.82-1.42,3.43-2.68,4.76-.28.3-.73.45-1.25.62-.41.14-.88.29-1.32.56-.24.14-.46.3-.68.45-.4.28-.77.54-1.16.66-.31.09-.67.11-1.06.12-.39.02-.79.03-1.21.12-1.19.25-2.38.59-3.53.92-.24.07-.48.14-.72.2-2.38.67-4.61,1.33-6.81,2.03-.21.07-.42.14-.63.2-.77.25-1.49.49-2.27.63-.09.02-.22.03-.35.04-.32.03-.71.07-1.07.21-1.93.16-3.64.23-5.22.24-.05,0-.1,0-.15,0-.24,0-.53,0-.85.09-.28.09-.48.25-.62.35-.03.02-.06.05-.07.06-.06.03-.15.05-.27.07l-.1.02c-.72.15-1.46.3-2.17.44-.99.19-2.01.39-3.01.62-.63.14-1.21.4-1.76.65-.52.23-1,.45-1.46.54-1.44.29-2.67.38-4.02-.08-1-.34-1.8-1.08-2.65-1.87-.22-.21-.45-.42-.69-.62-.68-1.53-1.49-3.12-2.58-5.11-.03-.12-.06-.25-.09-.39-.08-.34-.15-.69-.2-.96l-.05-.25c-.06-.35-.13-.72-.22-1.03-.07-.24-.15-.42-.21-.54-.05-.09-.06-.13-.07-.17-.01-.05-.01-.09,0-.19,0-.11,0-.27-.01-.46-.01-.11-.03-.21-.05-.33-.03-.16-.05-.33-.05-.44,0-.03.03-.12.05-.18.06-.22.15-.53.1-.9-.05-.38-.23-.67-.35-.85-.03-.05-.08-.13-.09-.16-.05-.14-.07-.49-.07-.66v-.1c-.02-.43-.05-1.08.06-1.36.19-.45.47-.79.8-1.18.21-.25.43-.51.63-.82,2.28-3.4,4.27-6.57,6.08-9.7.38-.67.8-1.27,1.25-1.92.27-.39.54-.79.81-1.2.25-.38.5-.75.75-1.12.6-.88,1.22-1.78,1.75-2.86.31-.63.36-1.34.39-1.97.03-.47.06-.92.18-1.26.25-.67.92-1.47,1.45-2.11.13-.16.26-.31.37-.45,1.26-1.58,2.56-3.09,3.81-4.55l.77-.9c.25-.3.53-.58.8-.85.34-.34.65-.66.93-1.01.56-.71.97-1.31,1.39-1.95.14-.21.29-.43.44-.66.14-.2.24-.29.36-.4.61-.53.75-1.02.62-2.17-.05-.4-.15-.88-.28-1.44-.19-.85-.4-1.82-.39-2.5,0-.4.2-1.07.35-1.6.05-.16.09-.32.13-.46.02-.07.04-.14.06-.22.03-.14.1-.4.15-.52l.16-.07c1.11-.47,1.99-.83,3.13-1.04,10.25-1.85,25.61-4.33,40.56-4.49,1.87-.02,3.4.15,5.03.33.74.08,1.5.17,2.32.24.04,0,.08.02.12.04.54,2.57.17,4.47-1.35,6.98ZM410.28,247.8c-.03-.28-.24-.27-.45-.27s-.39.06-.57.13c-1.04.4-2.07.76-3.14,1.06-.01.25-.03.49-.05.74,1.23-.14,2.43-.29,3.62-.64.12-.03-.04-.19.11-.32.15-.12.5-.41.47-.69Z"/>
        <path class="cls-1" d="M484.25,243.69c-.03.27-.1.47-.13.71-.08.63-.09,1.29-.22,1.91-.25,1.23-.3,2.53-.78,3.7-1.18,2.88-2.33,5.63-4.9,7.57-3.79,2.87-8.68,3.52-12.9,5.6-.79-.19-1.57-.26-2.36-.43-1.53.52-3.06.92-4.62,1.32-3.81.96-7.55,1.96-11.37,3-1.34.36-2.89.54-4.29.69.08.06.18.08.26.13,1.24.88,2.27,1.92,3.5,2.85.71.53,1.63.62,2.36,1.21,1.66,1.35,2.84,2.74,4.56,4.24,1.57,1.37,3.49,3,5.26,4.38,1,.77,2.33,1.63,3.17,2.62-1.03-.05-3.31-1.92-3.64-.02-.11.64,1.19,1.38,1.65,1.66.88.54,1.75,1.11,2.59,1.7.59.42,1.39.73,1.37,1.58,0,.1-.02.21-.1.27-.06.05-.15.05-.23.05-.17,0-.34-.02-.51-.05-.87-.18-1.58-.78-2.3-1.29-.54-.38-1.13-.53-1.7-.83-1.51-.8-2.91-1.78-4.32-2.72-.53-.35-1.12-.95-1.86-.98-.52-.02-1.2.11-.94.81.15.42.92.73,1.18,1.08.26.35.27.68.55,1,.23.26.57.34.84.54.28.21.53.53.79.77.6.57,1.21,1.14,1.83,1.68,1.24,1.09,2.54,2.13,3.95,2.99.29.17.59.36.73.66.39.83-.5,2.19.07,2.85.53.62.46,1.6.16,2.33-.05.12-.11.24-.23.3-.42.22-1.27-.6-1.61-.8-5.62-3.22-10.78-7.18-16.02-10.93-3.78-2.71-7.48-5.16-11.53-7.55-1.01-.6-2.44-1.45-3.49-2.16-.04-.03-.16-.03-.2-.04-.78-.16-1.65.46-2.07.93-.62.69-1.12,1.24-1.67,1.8-.98,1-1.67,1.73-2.72,2.72-.22.21-.9.79-1.24,1.06-.05.04-.16.13-.24.2-.36.34-.57.6-.97.99-.62.6-1.3,1.29-2.04,1.86-.73.57-1.57,1.12-2.35,1.68-.37.26-.81.53-1.19.78-.34-.09-.66-.19-1-.3-.02,0,.01-.06-.06.03-.08.08-.14.12-.27.25-.13.13-.41.38-.58.56-.02.02-.07.06-.09.11s-.03.1-.06.17c-.36.72-.63,1.45-1.09,2.15-.35.53-.88,1.02-1.33,1.48-.13.14-.33.27-.44.42-.4.53-.82,1.12-1.21,1.62-.19.24-.39.56-.57.7-1,.78-1.97,1.17-3.15,1.51-.34.35-.69.68-1.07,1-.05.04-.14.08-.21.12-.65.38-1.27.73-1.91,1.14s-1.29.89-1.95,1.28c-.08-.63-.22-1.44-.25-2.04-.07-1.19,0-2.26,0-3.41,0-.33-.03-.76.11-1.03.25-.48.78-.62.92-1.12.14-.5-.19-.93-.14-1.43.02-.16.21-.2.27-.36.14-.34.1-.74.23-1.09.14-.35.39-.59.73-.73.34-.14.7-.09,1.04-.06.16.01.29.11.43.09.04,0,.05,0,.06,0,0-.01.01-.03.03-.06.1-.14.1-.23.23-.43.13-.2.39-.61.54-.85-.1-.43-.26-.83-.44-1.23.31-.37.58-.67.75-1.14.17-.47.07-.95.31-1.45.63-1.36,1.48-2.67,2.33-3.92,1.11-1.64,2.2-3.28,3.27-4.94.04-.06.08-.13.11-.19.03-.05.15-.2.17-.22.63-.83,1.78-2.28,2.22-2.98.69-1.08.61-1.48.86-2.5.12-.46-.12-.95.04-1.38s.5-.67.67-1.05.15-.74.33-1.09c.07-.12.22-.08.31-.18.25-.25.34-.6.63-.82.29-.23.68-.21,1.04-.32.36-.11.68-.31.88-.64.09-.15.03-.37.07-.51.04-.14.12-.18.18-.28.57-.87,1-1.73,1.59-2.6.59-.88,1.37-1.77,2.01-2.63.64-.85,1.35-1.76,1.9-2.62.55-.86.95-1.64,1.47-2.48.25-.41.39-.79.48-1.26.03-.15-.12-.3.01-.45.13-.15.28-.21.51-.25.23-.04.6-.06.84-.13.24-.07.45-.06.63-.25.18-.19.2-.36.22-.66.02-.29,0-.71.04-1.02-.26.08-.44.11-.71.24-.27.13-.63.28-.96.29-1.13-2.97-1.65-5.83-1.68-9.01-.22-.46-.32-.9-.35-1.41,3.2-.85,6.42-1.5,9.69-2.03.24-.27.44-.69.78-.81,1.69-.63,3.33-.96,5.13-1.21.24-.03.48,0,.83,0,.35,0,.9.1,1.33.1,1.01,0,2.09-.06,3.12-.11-.02-.04.07-.07.08-.06,1.48.19,2.92.47,4.36.84.51-.31.92-.71,1.36-1.12.08-.08.23-.07.32-.02.09.05.05.16.16.18.11.02.26.05.35-.02.45-.33.87-.65,1.38-.89.02.09.03.19.15.19.37,0,.83-.13,1.14-.24.32-.11.59-.06.84.03s0,.25.11.3c.38.17.72.1,1.07-.02.34-.12.57-.32.92-.37.11-.02.11.1.12.18.78-.06,1.57-.18,2.35-.08.5.06.93.29,1.43.32,0,.4.02.79.03,1.18.56-.67,1.06-1.33,1.76-1.87.23-.18.59-.19.87-.17.73.06,1.34.21,2.09.08.32-.06.63-.38,1.01-.41.38-.03.76.2,1.15.3.11.03.37-.16.34-.32.35.02.65.11,1,.15.7.07,1.39.01,2.09-.09.47.22.87.41,1.41.44,1.22.07,2.5-.12,3.69.22,1.47.42,2.8,1.08,4.1,1.87.62.37,1.13.85,1.68,1.3.26.21.46.48.7.7.24.23.49.39.66.69.07.13.05.27.18.41.13.14.46.26.58.41.12.15.1.24.22.37s.25.11.29.34c.05.23-.01.58-.02.83-.02.56-.04,1.11-.05,1.67,0,.28-.01.56.04.84s.16.59.13.86ZM475.82,245.87c-7.11-1-13.51-1.31-20.86-.85-2.5.16-6.14.58-8.26,2.54,0,0-.09.02-.09.03-.08.27-.19.56-.34.78-.15.22-.39.32-.55.51-.87,1.01-1.36,2.11-2.2,3.18-.84,1.07-1.99,2.07-2.92,3.12,1.62-.13,3.02-.56,4.68-.78,1.43-.19,3.37-.16,4.75-.56,1.38-.41,2.38-.87,3.67-1.31,1.31.19,2.43-.05,3.67-.51,3.14-.62,6.25-1.38,9.34-2.22.72.06,1.27-.09,1.91-.42,1.71-.23,3.27-.96,4.74-1.77.97-.54,1.66-.97,2.46-1.72Z"/>
        <path class="cls-1" d="M513.88,240.94c-.05.3-.12.5-.18.81-.33,1.71-.52,3.46-1.99,4.57-.2.15-.37.02-.55.06-.33.07-.63.13-.89.31-.18.13-.36.29-.31.51.11.42.6.51.82.86.07.1.06.23.06.35,0,.37-.03.71-.24,1.03-.09.13-.22.21-.29.36-.06.15-.01.26-.04.42-.18.93-.71,1.65-1.24,2.42-.04.05-.07.13-.11.17-.04.05-.12.11-.16.14-.98.97-1.72,2.36-2.44,3.45-1,1.52-2.1,2.42-3.48,3.51-.21.17-.46.33-.61.6s-.15.6-.35.85c-.32.41-.85.47-1.26.79-.55.42-.74,1.06-1.02,1.68-.45.98-1.04,1.82-1.8,2.58-.34.34-.71.6-.97,1.01-.26.4-.34.89-.56,1.31-.38.73-.99,1.3-1.43,2-.44.69-.65,1.46-1.01,2.19-.18.35-.38.68-.67.97-.29.29-.64.48-1.04.59-.25.07-.52.06-.71.27-.12.13-.11.3-.17.47-.6,1.92-1.96,3.41-3.13,4.96-1.47,1.94-2.8,3.78-4.42,5.58-.34.38-.74.73-1.11,1.09-.05.05-.13.12-.19.17-.26.26-.36.43-.61.75-.38.49-.74.98-1.31,1.4-.48.35-1.11.72-1.69,1.06-.27.16-.7.41-1,.58-.27-.18-.53-.37-.8-.55-.01,0-.02-.02-.03-.02-.06.04-.11.09-.16.13-.14.12-.27.25-.42.36-.02.01-.05.02-.06.06-.02.03,0,.06-.02.11-.14.54-.2.98-.54,1.49-.25.38-.73.71-1.14.99-.12.08-.31.21-.43.3-.35.47-.76.97-1.15,1.39-.19.2-.33.39-.5.56-.91.89-1.72,1.21-2.98,1.04-.31.4-.63.7-1.08.96-.06.03-.18.09-.25.12-.67.34-1.26.63-1.91,1.04-.65.41-1.36.91-2.03,1.3-.08-.67-.21-1.71-.27-2.31-.12-1.19,0-2.05.11-3.18.03-.32-.06-.98.1-1.24.28-.47,1.01-.38,1.11-.91.1-.53-.64-.86-.39-1.37.08-.16.26-.17.36-.31.23-.31.05-.7.14-1.05.09-.35.38-.55.73-.61.35-.06.68.06,1,.17.15.05.29.14.45.12.41-.06.62-.45.54-.84s-.39-.66-.67-.92c.36-.08.52-.37.55-.72.03-.36-.12-.63-.11-1,.02-1.02.87-1.99,1.31-2.81.58-1.08.95-2.01,1.37-3.11.02-.04.03-.09.04-.13.02-.04.05-.1.07-.13.6-1.03,1.28-2.02,1.94-3,1.02-1.51,1.98-2.98,2.63-4.69.29-.77.21-1.68.52-2.43.28-.66.97-.95,1.17-1.63.14-.47-.08-.96.25-1.37.11-.14.29-.14.42-.27.34-.33.32-.79.61-1.16s.77-.44,1.22-.59c.45-.15.84-.4.89-.9.02-.22-.12-.4-.07-.62.03-.12.12-.21.18-.3.56-.91.61-1.94,1.07-2.9.51-1.06,1.2-2.06,1.8-3.08.6-1.02,1.24-2.03,1.8-3.06.5-.91.73-1.84,1.38-2.67.32-.41.62-.83.56-1.39-.02-.18-.12-.3-.04-.49.08-.19.32-.26.53-.29.31-.05.63-.09.95-.15.23-.04.44-.06.63-.23.19-.17.24-.45.23-.71-.05-1.03.29-1.77.73-2.69.2-.41.57-.8.79-1.23.12-.23,0-.52.09-.77.56-1.49,2.03-2.24,2.58-3.74.09-.25-.04-.54.11-.79.14-.25.43-.36.63-.55.67-.64.69-1.5,1.04-2.31.29-.66.72-1.49,1.34-1.84,1.65-.94,3.17-.88,5-.83.24,0,.38.05.68.06.82.02,2.16.45,2.91.55,1.26.17,2.77,1.05,3.23,1.88.86,1.56,1.12,2.02,2.44,2.98.79.58,1.63,1.12,2.37,1.86.12.12.41.41.55.55Z"/>
        <path class="cls-1" d="M567.29,241.48c-.04.07-.19.12-.42.2-.24.08-.51.17-.76.35-.32.23-.56.47-.78.68-.19.19-.35.35-.52.45-.74.46-1.48.79-2.26,1.14-.29.13-.59.26-.89.41l-.61.28.09.63c-.25.21-.45.42-.65.63-.19.2-.37.38-.59.57-.56.49-1.15.83-1.81,1.03-.04.01-.16.03-.25.04-.42.07-.74.13-1,.27-.46.25-.79.58-1.08.86-.24.24-.45.44-.7.57-1.27.69-2.33,1.07-3.64,1.33-.75.14-1.54.23-2.37.32-.75.08-1.52.16-2.29.29-.33.06-.67.14-.99.23-.47.12-.96.24-1.41.27-1.86.11-3.79.15-5.66.18-1.06.02-2.17.04-3.24.07h-.37s-.25.29-.25.29c-.7.78-1.38,1.61-2.03,2.42-.51.64-1.04,1.29-1.57,1.9-.15.17-.38.32-.62.49-.3.2-.61.41-.87.7-1.01,1.16-.95,2.13-.89,3.15l.06.9.88-.06c1.19-.08,2.21-.23,3.21-.47.23-.05.45-.11.69-.16,1.08-.26,2.2-.53,3.23-.63,2.04-.2,4.17-.16,6.22-.13h.81c1.27.03,2.71.01,3.86,0h.42c1.01-.02,1.59-.04,2.39-.08h.15c.33.29.74.42,1.01.5.11.03.22.07.29.1.55.26,1.03.6,1.52.97-.34.25-.68.52-.92.85-.56.76-.49,1.43-.44,1.92,0,.08.02.15.02.22-.4.44-.79.86-1.2,1.32-.66.73-1.44,1.39-2.25,1.9-.5.31-.98.6-1.46.89-.32.19-.64.39-.97.59-.22.02-.44.03-.66.05-.94.07-1.91.14-2.91.33l-.18.03c-.98.18-2,.36-3.01.7-.39.13-.75.36-1.06.56-.22.14-.42.27-.58.34-.71.3-1.47.58-2.22.62-.36.02-.71.02-1.08.02-.65,0-1.33-.01-2.06.13-.3.06-.53.19-.72.29-.1.05-.19.11-.26.12-.26.08-.58.13-.94.17-.36.04-.71.07-1.06.1-.63.05-1.29.11-1.98.21-.61.09-1.4.24-2.18.6-.24.11-.48.24-.71.36-.4.21-.81.43-1.18.54-.03,0-.13,0-.2,0-.15,0-.34,0-.55.03-.37.07-.74.15-1.09.23-.48.11-.93.21-1.37.27-.71.09-1.42.13-2.17.17-.31.02-.62.03-.94.05-.09,0-.29,0-.51.11-.1.05-.32.15-.5.4-.14.19-.23.37-.3.51-.08.16-.14.27-.24.38-.1.11-.21.2-.34.31-.18.15-.41.33-.66.61-.1.11-.21.22-.33.34-.31.32-.67.67-1.01,1.21-.28.44-.86,1.52-1.09,1.97l-.71,1.41,1.55-.09c2.11-.12,4.16-.53,5.89-.92,2.35-.18,4.7-.38,6.69-.55.02,0,.03,0,.06,0,0,0,0,0,.01,0,.11.08.31.22.6.27.46.07.76-.16.9-.28,1.05-.53,2.05-.89,3.05-1.09.82-.17,1.62-.24,2.43-.24.46,0,.91.03,1.4.06.4.02.81.05,1.22.06.07,0,.14,0,.21.01.27.02.6.04.94-.05.37-.1.61-.31.77-.44.04-.03.08-.07.1-.08.41-.25.74-.41,1.13-.46.02,0,.05.02.07.02.13.04.3.1.52.11.47.03.92.03,1.36.03.33,0,.67,0,1.02.01.15,0,.31.01.46.02.67.02,1.29.04,1.95.13.12.02.25.03.38.05,1.03.13,2.01.25,2.7.81.01.01.02.02.03.03,0,.11-.1.37-.17.54-.02.06-.05.13-.07.19-.21.59-.41,1.19-.6,1.77-.26.81-.54,1.64-.84,2.42-.72,1.82-1.42,3.43-2.68,4.76-.28.3-.73.45-1.25.62-.41.14-.88.29-1.32.56-.24.14-.46.3-.68.45-.4.28-.77.54-1.16.66-.31.09-.67.11-1.06.12-.39.02-.79.03-1.21.12-1.19.25-2.38.59-3.53.92-.24.07-.48.14-.72.2-2.38.67-4.61,1.33-6.81,2.03-.21.07-.42.14-.63.2-.76.25-1.49.49-2.27.63-.09.02-.22.03-.35.04-.32.03-.71.07-1.08.21-1.93.16-3.64.23-5.22.24-.05,0-.1,0-.15,0-.24,0-.53,0-.85.09-.28.09-.48.25-.62.35-.03.02-.06.05-.07.06-.06.03-.15.05-.27.07l-.1.02c-.72.15-1.46.3-2.17.44-.99.19-2.01.39-3.01.62-.63.14-1.21.4-1.76.65-.52.23-1,.45-1.46.54-1.44.29-2.67.38-4.02-.08-1-.34-1.8-1.08-2.65-1.87-.22-.21-.45-.42-.69-.62-.68-1.53-1.49-3.12-2.58-5.11-.03-.12-.06-.25-.09-.39-.08-.34-.15-.69-.21-.96l-.05-.25c-.07-.35-.13-.72-.22-1.03-.07-.24-.15-.42-.21-.54-.05-.09-.06-.13-.07-.17-.01-.05,0-.09,0-.19,0-.11,0-.27-.01-.46-.01-.11-.03-.21-.05-.33-.03-.16-.05-.33-.05-.44,0-.03.03-.12.04-.18.06-.22.15-.53.1-.9-.05-.38-.23-.67-.35-.85-.04-.05-.08-.13-.09-.16-.05-.14-.07-.49-.07-.66v-.1c-.02-.43-.05-1.08.06-1.36.19-.45.47-.79.8-1.18.21-.25.43-.51.63-.82,2.28-3.4,4.27-6.57,6.08-9.7.38-.67.8-1.27,1.25-1.92.27-.39.54-.79.81-1.2.25-.38.5-.75.75-1.12.6-.88,1.22-1.78,1.75-2.86.31-.63.36-1.34.39-1.97.03-.47.06-.92.18-1.26.25-.67.92-1.47,1.45-2.11.13-.16.26-.31.37-.45,1.26-1.58,2.56-3.09,3.81-4.55l.77-.9c.25-.3.53-.58.8-.85.34-.34.65-.66.93-1.01.56-.71.97-1.31,1.39-1.95.14-.21.29-.43.44-.66.13-.2.24-.29.36-.4.61-.53.75-1.02.62-2.17-.05-.4-.15-.88-.28-1.44-.19-.85-.4-1.82-.39-2.5,0-.4.2-1.07.35-1.6.05-.16.09-.32.13-.46.02-.07.04-.14.05-.22.04-.14.1-.4.15-.52l.16-.07c1.11-.47,1.99-.83,3.13-1.04,10.25-1.85,25.61-4.33,40.56-4.49,1.87-.02,3.4.15,5.03.33.74.08,1.5.17,2.32.24.04,0,.08.02.12.04.54,2.57.17,4.47-1.35,6.98ZM554.94,247.8c-.03-.28-.24-.27-.45-.27-.21,0-.39.06-.57.13-1.04.4-2.07.76-3.14,1.06-.01.25-.03.49-.05.74,1.23-.14,2.43-.29,3.62-.64.12-.03-.04-.19.11-.32.15-.12.5-.41.47-.69Z"/>
        <path class="cls-1" d="M624.1,235.54c-.1.13-.19.24-.24.33l-.19.41-.41.19c-.93.43-1.86.54-2.68.63-.2.02-.38.04-.57.07-.53.07-1.1.27-1.66.47-.15.05-.29.1-.43.15-.16.06-.32.09-.46.12.04.31.08.77-.14,1.27l-.15.36-.33.21c-1.59,1-3.11,1.05-4.53.98-.91.32-1.79.41-2.61.45-.57.16-1.14.29-1.71.4-.22,1.1-1.06,2.32-1.62,2.87-.99.96-1.89.96-2.49.96h-.07c-.18,0-.33,0-.49.02-.1.01-.2.03-.3.04-.3.05-.67.11-1.09.07-.43-.04-.77-.17-1.04-.28-.12-.05-.24-.1-.3-.11-.04,0-.12.02-.18.03-.31.06-.78.15-1.33-.02-.18-.05-.33-.13-.46-.21-.19.25-.46.54-.88.72-.93.4-1.9.57-2.84.73-.36.06-.69.12-1.01.19-1.43.31-2.9.64-4.64,1.05-1.7.4-3.41.83-5.07,1.24-1.95.49-3.97.99-5.98,1.46-.03.02-.07.05-.1.07-.16.11-.38.26-.67.37.44.16.96.2,1.52.25.42.04.85.07,1.28.16,1.98.39,3.85.8,5.82,1.24l.44.1c.28.06.55.12.83.18.76.17,1.52.33,2.29.52.42.1.82.26,1.18.39.43.16.83.31,1.18.36.53.07.98.2,1.37.32.21.06.42.12.63.17.11.03.32,0,.54-.03.31-.04.69-.09,1.11-.04.4.04.76.14,1.08.23.26.07.48.13.66.15.97.11,1.58.48,2.26,1.05.05.04.08.07.11.09.17-.08.38-.15.65-.16.42-.01.77.1,1.03.17.08.02.15.05.22.06,1.84.42,3.29.77,5.36,1.28.18.04.42.09.69.14,1.49.28,3.73.71,4.52,2.44.27.58.2,1.09.16,1.39,0,.05-.01.09-.02.14-.02.28.02.6.05.92.07.7.16,1.57-.2,2.47-.39.97-.94,1.81-1.46,2.61-.5.76-1.01,1.54-1.31,2.35-.04.12-.08.25-.12.38-.11.39-.25.86-.57,1.32-.31.45-.7.75-1.01.99-.06.04-.11.08-.16.13-.44.35-.86.82-1.27,1.27-.53.58-1.07,1.18-1.76,1.69-1.38,1.02-2.96,1.46-4.35,1.84-.49.13-.91.16-1.29.19-.23.01-.42.03-.6.06-.14.03-.31.09-.49.15-.14.05-.3.11-.46.15-.51.15-.9.06-1.13-.01-.05.03-.11.07-.15.1l-.1.07c-.17.12-.31.23-.45.35-.34.29-.76.64-1.54.89-.83.27-1.71.49-2.56.69-.9.22-1.83.45-2.68.74-2.56.86-4.65,1.62-6.59,2.4-3.95,1.58-7.78,3.29-11.68,5.06-1.46.66-2.97,1.33-4.44,1.98l-1.51.67c-.14.06-.29.13-.43.2-.66.32-1.4.67-2.24.74-.19.01-.36.02-.5.02-.28,0-.35,0-.44.05-.02.01-.1.06-.15.1-.25.17-.62.42-1.14.5-.33.05-.62.03-.84.02-.07,0-.16-.01-.21-.01-.1.07-.24.25-.36.4-.26.33-.59.74-1.09,1.05-.56.34-1.16.59-1.74.84-.22.09-.44.18-.66.28-.24.11-.5.24-.75.38-.37.19-.74.39-1.13.55-.32.13-.62.18-.86.23-.12.02-.23.04-.3.06-.04.01-.07.03-.1.04-.25.11-.7.29-1.3.17-.32-.06-.55-.2-.71-.29h-.03c-.1-.02-.18,0-.21,0-.09.09-.18.2-.27.33-.27.34-.63.81-1.3,1.1-.22.09-.4.14-.53.17-.03,0-.06.01-.09.02-.16.1-.38.25-.52.38-.58.51-1.08.89-1.9,1.32-.08.04-.18.11-.29.18-.46.29-1.08.69-1.88.69-.22,0-.44-.03-.65-.1l-1.17-.35.32-1.18c.33-1.19.72-2.09,1.66-2.9.47-.41.99-.81,1.58-.98.3-.09.57-.1.79-.08.04-.05.09-.1.14-.15.18-.16.37-.25.52-.3.07-.29.23-.7.67-1.04.31-.23.63-.3.87-.32.07-.2.16-.48.33-.76.45-.74,1.18-1.05,1.67-1.25.1-.04.19-.08.27-.12l.51-.24c.07-.03.14-.07.21-.1-.25-.14-.45-.35-.59-.61-.08-.16-.27-.58-.13-1.13l-1.19.52,4.32-4.5c1.06-1.11,2.58-1.44,3.63-1.6.23-.04.44-.03.61,0,.08-.15.19-.32.33-.48.34-.38.72-.51.92-.58.02,0,.03,0,.04-.01.03-.02.06-.05.09-.08.2-.17.5-.43.95-.57.26-.08.49-.09.68-.1.1-.12.24-.24.42-.33.11-.06.32-.14.58-.16.52-.56,1.3-1.16,2.17-1.08.31.03.73.12,1.06.41.21-.09.41-.13.57-.17.05-.01.09-.02.13-.03.24-.12.49-.24.72-.35l.33-.16c.5-.25.64-.34.93-.67.74-.86,1.53-1.45,2.64-1.96.37-.17.76-.35,1.16-.53.53-.24,1.07-.49,1.59-.73,2.02-.93,4.1-1.85,5.93-2.66l.41-.18c.89-.39,1.8-.8,2.7-1.14.23-.09.5-.24.76-.38.31-.17.67-.36,1.03-.5q.43-.16.63-.49l.33-.55.64-.05c.63-.05,1.1.2,1.39.34,0,0,0,0,0,0,.01-.01.03-.03.04-.03.15-.15.37-.36.64-.54.35-.22.7-.29.96-.34.07-.01.13-.02.19-.04.97-.26,1.43-.4,2.54-.73.07-.02.15-.04.24-.07.82-.23,1.29-.43,1.55-.59-.42-.16-.82-.34-1.21-.51-.55-.25-1.12-.5-1.66-.65-.76-.21-1.55-.41-2.32-.6-1.29-.32-2.62-.65-3.92-1.08-.48-.16-.96-.24-1.52-.33-.19-.03-.37-.06-.56-.09-.44-.08-.88-.18-1.3-.27-.48-.11-.98-.22-1.45-.29-.86-.14-1.7-.32-2.51-.49l-.35-.08c-.63-.14-1.29-.28-2-.71-.48-.29-.67-.26-1.63-.03l-.15.04c-1.12.27-2.24.04-3.22-.16-.14-.03-.28-.06-.42-.08-.37-.07-.77-.09-1.23-.11-.75-.04-1.6-.08-2.43-.39-.74-.27-1.31-.72-1.81-1.11-.24-.19-.5-.39-.74-.54-.15-.09-.34-.18-.56-.27-.27-.12-.58-.26-.88-.44-.87-.54-1.4-1.33-1.49-2.23-.05-.56.1-1.02.21-1.35.03-.09.06-.18.08-.26.08-.32.07-.78.06-1.21-.01-.45-.03-.96.05-1.46.17-1.08.57-2.02.92-2.85.38-.91.71-1.69.78-2.56v-.03c.03-.69.36-1.52.65-1.96.44-.66,1.05-.97,1.49-1.2.13-.07.26-.13.33-.18,2.66-1.87,5.46-3,8.58-4.18,2.84-1.07,5.49-1.96,8.09-2.7.47-.13.85-.1,1.1-.08.05,0,.11,0,.15,0,.03-.02.07-.05.09-.07.14-.11.32-.24.56-.35.68-.32,1.41-.45,2.05-.56.19-.03.37-.06.54-.1.34-.07.68-.15,1.02-.22,1.22-.26,2.37-.51,3.59-.71.6-.1,1.21-.18,1.75-.25.91-.12,1.84-.24,2.72-.44.12-.03.23-.06.35-.08.46-.12.97-.25,1.6-.2.28.02.52.08.71.14.07.02.14.04.2.05l.98.2c.25-.06.48-.1.7-.13.11-.02.21-.03.31-.05l.11-.02c.07-.01.12-.02.17-.03.57-.14,1.04-.27,1.48-.47l.23-.11h.26c.11-.01.21-.01.31-.02.12-.06.27-.12.44-.16.22-.05.52-.06.85.06.14-.01.29-.02.43-.03h.05c.55-.05,1.13-.09,1.71-.12,1.15-.06,2.3-.1,3.42-.14l.61-.02c.21-.06.41-.11.6-.15.39-.17.91-.25,1.48.04.17-.01.34-.02.51-.03h.05c.08,0,.17-.01.26-.02.07-.02.14-.04.21-.06.08-.02.16-.04.24-.06.24-.07.54-.15.87-.17.24-.02.47,0,.66,0,.2,0,.37.01.5,0,.04,0,.12-.03.2-.05.19-.05.42-.11.7-.13.27-.02.51.02.68.05.06,0,.13.02.15.02.1,0,.24-.02.38-.04.35-.04.79-.09,1.28-.01.19.03.34.09.46.14.13-.02.31-.05.51-.04.24.01.45.04.61.07.2.03.29.05.35.03.09-.02.23-.06.37-.11.26-.08.55-.18.88-.22.24-.03.49-.08.74-.12.68-.12,1.44-.26,2.26-.21l.73.05.31.65c.62,1.29-.07,2.15-.4,2.56Z"/>
      </g>
    </g>
  </g>
</svg>