<svg xmlns="http://www.w3.org/2000/svg" viewBox="0 0 1611.97 287.74"><defs><style>.cls-1{fill:#231f20;}</style></defs><g id="Layer_2" data-name="Layer 2"><g id="Layer_1-2" data-name="Layer 1"><path class="cls-1" d="M0,212.27,85.08,0h76.48l28.36,47.05L208.83,0h104L228,212.27h-76.7l-28.36-47.06L104.2,212.27Zm87.66-24.5,30.93-77.56L165,187.77h46.41L276.72,24.49H225.37l-31.15,77.56L147.81,24.49H101.62L36.09,187.77Z"/><path class="cls-1" d="M215.27,212.27,300.35,0h104L319.47,212.27Zm87.66-24.5L368.24,24.49H316.89L251.37,187.77Z"/><path class="cls-1" d="M306.8,212.27,391.87,0h228L584.16,88.52H460.41l-14.18,35.23H466l-8.17,19.77h-41l30.07-74.77H592.11L534.75,212.27Zm211.4-24.5L556,93.24h-92.6L453.1,119h41.25l-12,29.22H410.14L443.87,64H567.62l15.9-39.53H408.42L342.89,187.77Z"/><path class="cls-1" d="M522.07,212.27,607.15,0h104.2L689.22,55h19.55L730.9,0h104L750,212.27H645.82L662.36,171H642.81l-16.54,41.25Zm87.66-24.5,16.54-41.25h72.19l-16.55,41.25h51.57L798.79,24.49H747.44l-22.13,55h-72.4l22.13-55H623.69L558.16,187.77Z"/><path class="cls-1" d="M792.34,212.27l44-110h-55L822.42,0h227.74l-40.83,102.27h-55l-44,110Zm101.41-24.5,44-110h55l21.27-53.28H839L817.48,77.77h55l-44,110Z"/><path class="cls-1" d="M952.62,212.27,1037.69,0h227.74l-84.86,212.27Zm211.4-24.5,65.31-163.28H1054.24L988.71,187.77Zm-102.48-53.28,22.78-56.72h72.18l-22.56,56.72ZM1117.4,110l3-7.73h-19.55l-3.22,7.73Z"/><path class="cls-1" d="M1204.63,212.27,1179.92,171,1248.46,0h90.45l-38.68,96.25h-21.7L1317.21,0h90.45L1369,96.25h-21.7L1386,0h90.45l-71.33,177.89L1357,212.27h-56.07l-12-20.2-28.15,20.2Zm48.12-24.5,43.62-30.93,18.47,30.93H1349L1385.1,162l55-137.5h-37.6l-38.67,96.25h-31.16l38.68-96.25h-37.6l-38.67,96.25h-31.16l38.68-96.25H1265l-57.79,144.38,11.38,18.9Z"/><path class="cls-1" d="M1383.16,212.27,1468.24,0h104l-44,110H1612l-40.82,102.27Zm171.45-24.5,21.27-53.28h-83.79l44-110h-51.35l-65.52,163.28Z"/><path class="cls-1" d="M684.69,244.44l-2.89,7.14h25.32l4.31,7.23-8.77,21.7-10.15,7.23H652.73l5.84-14.46h32.55L694,266H668.73l-4.31-7.23,8.73-21.6L683.3,230h39.78l-5.85,14.46Z"/><path class="cls-1" d="M706.69,287.74,730,230h46.91l-5.84,14.46H738.65l-2.92,7.23h32.45l-5.85,14.47H729.88L727,273.28h32.45l-5.84,14.46Z"/><path class="cls-1" d="M783.79,266,775,287.74H760.56L783.9,230h39.68l4.31,7.23-8.73,21.6L809,266h-5.38l3.84,21.7H793L789.17,266Zm8.73-21.6-2.89,7.14h18l2.88-7.14Z"/><path class="cls-1" d="M851.58,230l-23.34,57.76H813.78L837.12,230Z"/><path class="cls-1" d="M835.1,287.74,858.44,230h46.92l-5.85,14.46H867.06l-2.92,7.23h32.45l-5.84,14.47H858.29l-2.88,7.14h32.45L882,287.74Z"/><path class="cls-1" d="M920.19,244.44l-2.89,7.14h25.31l4.31,7.23-8.76,21.7L928,287.74H888.23l5.84-14.46h32.55l2.92-7.24H904.23l-4.31-7.23,8.72-21.6L918.8,230h39.78l-5.85,14.46Z"/><path class="cls-1" d="M684.69,244.44l-2.89,7.14h25.32l4.31,7.23-8.77,21.7-10.15,7.23H652.73l5.84-14.46h32.55L694,266H668.73l-4.31-7.23,8.73-21.6L683.3,230h39.78l-5.85,14.46Z"/><path class="cls-1" d="M706.69,287.74,730,230h46.91l-5.84,14.46H738.65l-2.92,7.23h32.45l-5.85,14.47H729.88L727,273.28h32.45l-5.84,14.46Z"/><path class="cls-1" d="M783.79,266,775,287.74H760.56L783.9,230h39.68l4.31,7.23-8.73,21.6L809,266h-5.38l3.84,21.7H793L789.17,266Zm8.73-21.6-2.89,7.14h18l2.88-7.14Z"/><path class="cls-1" d="M851.58,230l-23.34,57.76H813.78L837.12,230Z"/><path class="cls-1" d="M835.1,287.74,858.44,230h46.92l-5.85,14.46H867.06l-2.92,7.23h32.45l-5.84,14.47H858.29l-2.88,7.14h32.45L882,287.74Z"/><path class="cls-1" d="M920.19,244.44l-2.89,7.14h25.31l4.31,7.23-8.76,21.7L928,287.74H888.23l5.84-14.46h32.55l2.92-7.24H904.23l-4.31-7.23,8.72-21.6L918.8,230h39.78l-5.85,14.46Z"/></g></g></svg>