<svg xmlns="http://www.w3.org/2000/svg" viewBox="0 0 1367.05 287.25"><defs><style>.cls-1{fill:#fbcc0a;}.cls-2{fill:#231f20;}</style></defs><g id="Layer_2" data-name="Layer 2"><g id="Layer_1-2" data-name="Layer 1"><path class="cls-1" d="M0,212.27,85.08,0H312.81L228,212.27Zm211.41-24.5L276.72,24.49H101.62L36.09,187.77ZM108.93,134.49,131.7,77.77h72.19l-22.56,56.72ZM164.79,110l3-7.73H148.24L145,110Z"/><path class="cls-1" d="M215.27,212.27,300.35,0h104l-44,110h19.77l44-110h104L443.22,212.27Zm211.41-24.5L492,24.49H440.65l-44,110H324.2l44-110H316.89L251.37,187.77Z"/><path class="cls-1" d="M485.55,212.27l44-110h-55L515.63,0H743.36L702.54,102.27h-55l-44,110ZM587,187.77l44-110h55l21.27-53.28H532.17L510.68,77.77h55l-44,110Z"/><path class="cls-1" d="M645.82,212.27,730.9,0H896.76l24.92,41.25-32.87,81.64-48.34,34.38H771.93l-21.91,55Zm87.66-24.5,21.91-55h77.35L868.83,107,894.4,43.4,883,24.49H747.44L681.92,187.77Zm38.45-94.53L782.46,64H834L823.28,93.24Z"/><path class="cls-1" d="M839,212.27,924,0h104L984,110h19.76l44-110h104l-84.86,212.27Zm211.4-24.5,65.31-163.28h-51.34l-44,110h-72.4l44-110H940.59L875.06,187.77Z"/><path class="cls-1" d="M1109.24,212.27l44-110h-55L1139.32,0h227.73l-40.82,102.27h-55l-44,110Zm101.41-24.5,44-110h55L1331,24.49h-175.1l-21.48,53.28h55l-44.05,110Z"/><path class="cls-2" d="M561.65,244l-2.89,7.14h25.32l4.31,7.23L579.62,280l-10.15,7.23H529.69l5.84-14.46h32.55l2.92-7.24H545.69l-4.31-7.23,8.73-21.6,10.15-7.23H600L594.19,244Z"/><path class="cls-2" d="M583.65,287.25,607,229.49H653.9L648.06,244H615.61l-2.92,7.23h32.45l-5.85,14.47H606.84L604,272.79h32.45l-5.85,14.46Z"/><path class="cls-2" d="M660.75,265.55,652,287.25H637.52l23.34-57.76h39.68l4.31,7.23-8.73,21.6L686,265.55h-5.38l3.84,21.7H670l-3.84-21.7Zm8.73-21.6-2.89,7.14h18l2.88-7.14Z"/><path class="cls-2" d="M728.54,229.49,705.2,287.25H690.74l23.34-57.76Z"/><path class="cls-2" d="M712.06,287.25l23.34-57.76h46.92L776.47,244H744l-2.92,7.23h32.45l-5.84,14.47H735.25l-2.88,7.14h32.45L759,287.25Z"/><path class="cls-2" d="M797.15,244l-2.89,7.14h25.31l4.31,7.23L815.12,280,805,287.25H765.19L771,272.79h32.55l2.92-7.24H781.19l-4.31-7.23,8.72-21.6,10.16-7.23h39.78L829.69,244Z"/><path class="cls-1" d="M561.65,244l-2.89,7.14h25.32l4.31,7.23L579.62,280l-10.15,7.23H529.69l5.84-14.46h32.55l2.92-7.24H545.69l-4.31-7.23,8.73-21.6,10.15-7.23H600L594.19,244Z"/><path class="cls-1" d="M583.65,287.25,607,229.49H653.9L648.06,244H615.61l-2.92,7.23h32.45l-5.85,14.47H606.84L604,272.79h32.45l-5.85,14.46Z"/><path class="cls-1" d="M660.75,265.55,652,287.25H637.52l23.34-57.76h39.68l4.31,7.23-8.73,21.6L686,265.55h-5.38l3.84,21.7H670l-3.84-21.7Zm8.73-21.6-2.89,7.14h18l2.88-7.14Z"/><path class="cls-1" d="M728.54,229.49,705.2,287.25H690.74l23.34-57.76Z"/><path class="cls-1" d="M712.06,287.25l23.34-57.76h46.92L776.47,244H744l-2.92,7.23h32.45l-5.84,14.47H735.25l-2.88,7.14h32.45L759,287.25Z"/><path class="cls-1" d="M797.15,244l-2.89,7.14h25.31l4.31,7.23L815.12,280,805,287.25H765.19L771,272.79h32.55l2.92-7.24H781.19l-4.31-7.23,8.72-21.6,10.16-7.23h39.78L829.69,244Z"/></g></g></svg>