<?xml version="1.0" encoding="UTF-8"?>
<svg id="Layer_2" data-name="Layer 2" xmlns="http://www.w3.org/2000/svg" viewBox="0 0 1329.45 287.74">
  <defs>
    <style>
      .cls-1 {
        fill: #0FC3E8;
      }
    </style>
  </defs>
  <g id="Layer_1-2" data-name="Layer 1">
    <g>
      <path class="cls-1" d="m0,212.27L85.08,0h186.48l24.92,41.25-32.87,81.64-10.31,7.3,4.51,7.3-29.86,74.77h-104.2l16.54-41.25h-19.55l-16.54,41.25H0Zm87.66-24.49l16.54-41.25h50.06l13.32,22.34-7.73,18.91h51.56l19.12-48.12-9.88-16.33,22.99-16.33,25.57-63.59-11.39-18.91H101.62L36.09,187.77h51.56Zm38.46-94.53l10.53-29.22h72.19l-10.74,29.22h-71.97Zm54.79-24.49l-7.09,19.77h-19.98l7.3-19.77h19.77Z"/>
      <path class="cls-1" d="m215.27,212.27L300.35,0h206.03l-35.66,88.52h-101.62l7.3-19.77h69.39l-30.08,74.77h-68.96l8.16-19.77h101.62l-35.23,88.52h-206.03Zm189.49-24.49l15.68-39.53h-102.05l12.03-29.22h68.75l10.31-25.78h-68.1l10.53-29.22h102.27l15.9-39.53h-153.18l-65.53,163.28h153.4Z"/>
      <path class="cls-1" d="m459.12,212.27l-32.87-55L489.2,0h104.2l-44.04,110h19.55L612.95,0h104.2l-65.74,164.14-67.46,48.12h-124.82Zm116.88-24.49l55.43-39.53,49.41-123.75h-51.35l-44.04,110h-72.4l44.04-110h-51.35l-52.21,130.62,19.55,32.66h102.91Z"/>
      <path class="cls-1" d="m624.12,212.27L709.2,0h206.04l-35.66,88.52h-101.62l7.3-19.77h69.39l-30.08,74.77h-68.96l8.16-19.77h101.62l-35.23,88.52h-206.04Zm189.49-24.49l15.68-39.53h-102.05l12.03-29.22h68.75l10.31-25.78h-68.11l10.53-29.22h102.27l15.9-39.53h-153.18l-65.53,163.28h153.4Z"/>
      <path class="cls-1" d="m817.69,212.27L902.77,0h186.48l24.92,41.25-32.87,81.64-10.31,7.3,4.51,7.3-29.86,74.77h-104.2l16.54-41.25h-19.55l-16.54,41.25h-104.2Zm87.66-24.49l16.54-41.25h50.06l13.32,22.34-7.73,18.91h51.56l19.12-48.12-9.88-16.33,22.99-16.33,25.57-63.59-11.39-18.91h-156.19l-65.53,163.28h51.56Zm38.46-94.53l10.53-29.22h72.19l-10.74,29.22h-71.97Zm54.79-24.49l-7.09,19.77h-19.98l7.3-19.77h19.77Z"/>
      <path class="cls-1" d="m1032.97,212.27L1118.05,0h186.48l24.92,41.25-21.7,54.14-19.98,14.18,8.59,14.18-21.7,54.14-48.34,34.38h-193.36Zm185.62-24.49l36.09-25.78,14.39-36.09-13.96-23.2,32.66-23.2,14.39-36.09-11.39-18.91h-156.19l-65.53,163.28h149.53Zm-82.5-39.53l12.03-29.22h72.4l-12.03,29.22h-72.4Zm22.99-55l10.53-29.22h72.19l-10.74,29.22h-71.97Zm33.09,30.51l-8.16,19.77h-19.55l8.16-19.77h19.55Zm21.7-55l-7.09,19.77h-19.98l7.3-19.77h19.77Z"/>
    </g>
    <g>
      <g>
        <path class="cls-1" d="m544.69,244.44l-2.88,7.14h25.31l4.31,7.23-8.77,21.7-10.15,7.23h-39.78l5.84-14.46h32.54l2.92-7.23h-25.31l-4.31-7.23,8.73-21.6,10.15-7.23h39.78l-5.84,14.46h-32.54Z"/>
        <path class="cls-1" d="m566.69,287.74l23.34-57.76h46.91l-5.84,14.46h-32.45l-2.92,7.23h32.45l-5.84,14.46h-32.45l-2.88,7.14h32.45l-5.84,14.46h-46.92Z"/>
        <path class="cls-1" d="m643.79,266.04l-8.77,21.7h-14.46l23.34-57.76h39.68l4.31,7.23-8.73,21.6-10.15,7.23h-5.38l3.84,21.7h-14.46l-3.84-21.7h-5.38Zm8.73-21.6l-2.88,7.14h17.99l2.88-7.14h-17.99Z"/>
        <path class="cls-1" d="m711.58,229.98l-23.34,57.76h-14.46l23.34-57.76h14.46Z"/>
        <path class="cls-1" d="m695.1,287.74l23.34-57.76h46.92l-5.84,14.46h-32.45l-2.92,7.23h32.45l-5.84,14.46h-32.45l-2.88,7.14h32.45l-5.84,14.46h-46.92Z"/>
        <path class="cls-1" d="m780.19,244.44l-2.88,7.14h25.31l4.31,7.23-8.77,21.7-10.15,7.23h-39.78l5.84-14.46h32.54l2.92-7.23h-25.31l-4.31-7.23,8.73-21.6,10.15-7.23h39.78l-5.84,14.46h-32.54Z"/>
      </g>
      <g>
        <path class="cls-1" d="m544.69,244.44l-2.88,7.14h25.31l4.31,7.23-8.77,21.7-10.15,7.23h-39.78l5.84-14.46h32.54l2.92-7.23h-25.31l-4.31-7.23,8.73-21.6,10.15-7.23h39.78l-5.84,14.46h-32.54Z"/>
        <path class="cls-1" d="m566.69,287.74l23.34-57.76h46.91l-5.84,14.46h-32.45l-2.92,7.23h32.45l-5.84,14.46h-32.45l-2.88,7.14h32.45l-5.84,14.46h-46.92Z"/>
        <path class="cls-1" d="m643.79,266.04l-8.77,21.7h-14.46l23.34-57.76h39.68l4.31,7.23-8.73,21.6-10.15,7.23h-5.38l3.84,21.7h-14.46l-3.84-21.7h-5.38Zm8.73-21.6l-2.88,7.14h17.99l2.88-7.14h-17.99Z"/>
        <path class="cls-1" d="m711.58,229.98l-23.34,57.76h-14.46l23.34-57.76h14.46Z"/>
        <path class="cls-1" d="m695.1,287.74l23.34-57.76h46.92l-5.84,14.46h-32.45l-2.92,7.23h32.45l-5.84,14.46h-32.45l-2.88,7.14h32.45l-5.84,14.46h-46.92Z"/>
        <path class="cls-1" d="m780.19,244.44l-2.88,7.14h25.31l4.31,7.23-8.77,21.7-10.15,7.23h-39.78l5.84-14.46h32.54l2.92-7.23h-25.31l-4.31-7.23,8.73-21.6,10.15-7.23h39.78l-5.84,14.46h-32.54Z"/>
      </g>
    </g>
  </g>
</svg>