<?xml version="1.0" encoding="utf-8"?>
<!-- Generator: Adobe Illustrator 24.1.2, SVG Export Plug-In . SVG Version: 6.00 Build 0)  -->
<svg version="1.1" id="Layer_1" xmlns="http://www.w3.org/2000/svg" xmlns:xlink="http://www.w3.org/1999/xlink" x="0px" y="0px"
	 viewBox="0 0 1819.9 1081.3" style="enable-background:new 0 0 1819.9 1081.3;" xml:space="preserve">
<style type="text/css">
	.st0{fill:#3b4351;}
	.st1{fill-rule:evenodd;clip-rule:evenodd;fill:#3b4351;}
</style>
<path class="st0" d="M1610.1,1081.3H0l3.2-17.5l192-1051.6L197.4,0h1622.4l-3.2,17.5l-192,1051.5l-2.2,12.3L1610.1,1081.3z
	 M35.5,1051.6h1562.2L1784.3,29.7H222.1L35.5,1051.6z"/>
<path class="st1" d="M137.6,930.8L125.2,996H74.1l35.2-190.2h74c51.1,0,65.2,17.6,59.9,54.6c-5.3,21.2-15.9,40.5-35.2,45.8
	c14.1,8.8,24.7,12.3,17.6,51.1c-5.3,24.7-7.1,33.5-1.8,33.5v5.3H171c0-3.5,1.8-15.8,3.5-33.5c5.3-24.7,3.5-31.7-21.1-31.7
	L137.6,930.8L137.6,930.8z M144.6,888.5h21.1c15.8,0,24.7-5.3,28.2-17.6c1.8-14.1-5.3-21.1-17.6-21.1h-24.6L144.6,888.5z M311.9,996
	v-14.1c-15.9,14.1-30,19.4-45.8,19.4c-21.1,0-38.8-14.1-33.5-42.3c10.6-63.4,86.3-35.2,91.6-59.9c1.8-10.6-7-12.3-12.3-12.3
	c-7.1,0-15.9,1.8-17.6,14.1h-44c5.3-29.9,24.7-47.6,70.4-47.6c54.6,0,52.8,24.7,45.8,58.1L356,976.6c-1.8,7.1-1.8,10.6,1.8,17.6v1.8
	H311.9z M317.2,934.3c-15.9,8.8-35.2,5.3-37,22.9c-1.8,7,1.8,12.3,12.3,12.3C308.4,969.6,315.4,953.7,317.2,934.3L317.2,934.3z
	 M456.4,911.4c0-7,0-12.3-3.5-15.9c-1.8-3.5-5.3-5.3-10.6-5.3c-15.8,0-22.9,21.1-26.4,38.8c-3.5,21.1,0,33.4,14.1,33.4
	c12.3,0,17.6-8.8,21.1-19.4h45.8c-12.3,42.3-42.3,58.1-74,58.1c-37,0-59.9-26.4-51.1-72.2c7-47.6,40.5-75.8,77.5-75.8
	c29.9,0,56.4,15.9,52.8,58.1H456.4z M491.6,996l24.7-137.4H562L537.4,996H491.6z M569.1,858.6h42.3l-3.5,21.1
	c12.3-17.6,24.7-26.4,42.3-26.4c29.9,0,40.5,21.2,33.5,59.9L667.8,996h-44l12.3-72.2c3.5-14.1,1.8-26.4-10.6-26.4
	c-14.1,0-19.4,10.6-22.9,28.2L590.2,996h-45.8L569.1,858.6z M725.9,1003c0,1.8,0,5.3,1.8,7c2.4,2.2,5.6,3.5,8.8,3.5
	c14.1,0,19.4-7,22.9-28.2l3.5-10.6c-8.8,7.1-19.4,14.1-35.2,14.1c-31.7,0-44-29.9-38.7-65.2c7-33.5,26.4-70.5,63.4-70.5
	c14.1,0,24.7,8.8,31.7,22.9l1.8-17.6h40.5l-19.4,111c-8.8,42.3-17.6,74-74,74c-40.5,0-52.8-19.4-52.8-40.5H725.9z M741.7,925.5
	c-1.8,8.8-3.5,22.9,14.1,26.4c12.3,1.8,21.1-14.1,22.9-28.2c3.5-15.9,0-29.9-14.1-29.9C752.3,893.8,745.2,906.1,741.7,925.5
	L741.7,925.5z M956.6,860.3c0-5.3-1.8-10.6-5.3-12.3s-7-3.5-12.3-3.5c-10.6,0-17.6,3.5-17.6,10.6c-5.3,29.9,88.1,10.6,75.8,81
	c-8.8,44-42.3,65.2-86.3,65.2c-40.5,0-61.7-29.9-58.1-63.4H902c0,7.1,1.8,12.3,7,14.1c3.3,3.2,7.7,5.1,12.3,5.3
	c14.1,0,22.9-5.3,24.7-14.1c5.3-28.2-88.1-8.8-75.7-81c7-40.5,40.5-61.7,79.3-61.7c44,0,58.1,28.2,56.4,59.9L956.6,860.3
	L956.6,860.3z M1088.7,911.4c1.4-5.3,0.8-11-1.8-15.9c-1.8-3.5-5.3-5.3-10.6-5.3c-17.6,0-22.9,21.1-26.4,38.8
	c-3.5,21.1,0,33.4,14.1,33.4c10.6,0,17.6-8.8,21.2-19.4h45.8c-12.3,42.3-42.3,58.1-74,58.1c-37,0-61.7-26.4-52.8-72.2
	c8.8-47.6,40.5-75.8,79.3-75.8c29.9,0,56.4,15.9,51.1,58.1H1088.7z M1162.7,800.4h44l-12.3,74c12.3-14.1,22.9-21.2,38.8-21.2
	c29.9,0,40.5,21.2,33.5,59.9l-14.1,82.8h-45.8l12.3-72.2c3.5-14.1,1.8-26.4-10.6-26.4c-14.1,0-19.4,10.6-26.4,28.2l-12.3,70.5h-42.3
	L1162.7,800.4z M1349.4,853.2c40.5,0,59.9,29.9,51.1,72.2c-8.8,51.1-40.5,75.7-77.5,75.7s-59.9-24.7-51.1-72.2
	C1280.7,879.7,1310.7,853.2,1349.4,853.2z M1312.4,925.5c-5.3,31.7,5.3,42.3,19.4,42.3s28.2-10.6,33.4-42.3
	c5.3-24.7-3.5-40.5-17.6-38.7C1330,886.7,1315.9,907.8,1312.4,925.5z M1486.8,853.2c40.5,0,59.9,29.9,51.1,72.2
	c-8.8,51.1-40.5,75.7-77.5,75.7s-59.9-24.7-52.9-72.2C1416.4,879.7,1448.1,853.2,1486.8,853.2z M1449.8,925.5
	c-5.3,31.7,5.3,42.3,19.4,42.3s28.2-10.6,33.5-42.3c5.3-24.7-3.5-40.5-17.6-38.7C1465.7,886.7,1453.3,907.8,1449.8,925.5z
	 M1532.6,995.9l35.2-195.5h45.8L1578.4,996L1532.6,995.9z"/>
<path class="st1" d="M250.3,636.6c0-7-3.5-10.6-7.1-12.3c-3.5-3.5-8.8-3.5-15.9-3.5c-12.3,0-19.4,3.5-21.1,10.6
	c-5.3,28.2,107.5,10.6,95.1,79.3c-7,45.8-47.5,67-100.4,67c-49.3,0-77.5-30-72.2-63.4h58.1c1.8,5.3,3.5,10.6,8.8,14.1
	c3.5,3.5,10.6,5.3,15.9,5.3c15.9,0,28.2-5.3,28.2-14.1c5.3-29.9-107.4-8.8-93.4-81c7-40.5,44-61.7,91.6-61.7
	c52.8,0,72.2,26.4,72.2,59.9L250.3,636.6L250.3,636.6z M361.3,733.5l-7,38.7h-54.7L333.1,582h54.6l-17.6,93.3l42.3-42.3h65.2
	l-61.6,54.6l44,84.5H393L371.8,723L361.3,733.5z M467,772.3l24.7-139.2h54.6l-24.7,139.2H467z M500.4,582H555l-7,38.8h-54.7
	L500.4,582z M604.3,633.1l-5.3,21.2h1.8c10.6-17.6,31.7-24.7,47.6-24.7c42.3,0,56.4,33.4,49.3,72.2c-10.6,54.6-47.6,74-77.5,74
	c-15.9,0-26.4-5.3-33.5-17.6l-10.6,61.7h-54.6L555,633.1L604.3,633.1z M641.3,701.8c5.3-21.2-3.5-31.7-17.6-31.7
	c-12.3,0-24.7,12.3-28.2,31.7s3.5,31.7,17.6,31.7S639.6,721.2,641.3,701.8z M732.9,772.2L766.4,582H858c42.3,0,74,10.6,66.9,47.6
	c-1.8,19.4-17.6,33.4-31.7,42.3c19.4,5.3,28.2,22.9,24.7,42.3c-7,42.3-42.3,58.1-91.6,58.1L732.9,772.2L732.9,772.2z M808.7,693
	l-5.3,35.2h26.4c15.8,0,28.2-3.5,29.9-17.6c3.5-17.6-10.6-17.6-29.9-17.6H808.7z M821,626.1l-5.3,31.7h26.4
	c12.3,0,21.1-5.3,22.9-15.8c3.5-15.9-8.8-15.9-22.9-15.9H821z M1014.7,772.3v-15.8c-17.6,15.8-33.4,19.4-54.6,19.4
	c-26.4,0-47.6-12.3-42.3-42.3c10.6-61.7,103.9-33.5,109.2-59.9c1.8-10.6-10.6-10.6-15.8-10.6c-7,0-17.6,1.8-21.1,12.3h-52.8
	c5.3-28.2,28.2-45.8,82.8-45.8c65.2,0,65.2,24.7,59.9,58.1l-12.3,63.4c0,8.8-1.8,12.3,5.3,17.6v3.5L1014.7,772.3L1014.7,772.3z
	 M1020,710.6c-19.4,8.8-42.3,5.3-45.8,22.9c0,7.1,5.3,10.6,15.8,10.6C1009.5,744.1,1018.3,730,1020,710.6L1020,710.6z M1104.6,633.1
	h49.3l-3.5,28.2c10.6-21.1,26.4-31.7,47.6-31.7h7l-8.8,56.3c-3.5-1.8-7-1.8-12.3-1.8c-21.2,0-35.2,10.6-40.5,40.5l-8.8,47.6h-54.6
	L1104.6,633.1z M1268.4,647.2c12.3-12.3,26.4-17.6,42.3-17.6c35.2,0,54.6,29.9,47.6,72.2c-7,40.5-29.9,74-75.7,74
	c-22.9,0-33.5-10.6-38.8-22.9l-3.5,19.4h-49.3l33.4-190.3h54.6L1268.4,647.2z M1303.6,703.6c1.8-14.1,0-31.7-17.6-31.7
	s-26.4,15.8-29.9,31.7c-1.8,14.1,0,33.4,17.6,33.4S1300.1,719.4,1303.6,703.6z M1419.9,715.9c-3.5,15.8,7.1,26.4,21.2,26.4
	c8.8,0,17.6-3.5,22.9-12.3h52.8c-15.8,35.2-52.8,45.8-84.5,45.8c-44,0-74-24.7-65.2-72.2c7-45.8,45.8-74,91.6-74
	c51.1,0,75.8,35.2,65.2,86.3L1419.9,715.9z M1472.7,687.7c1.8-14.1-7.1-24.7-21.2-24.7c-15.8,0-26.4,8.8-29.9,24.7H1472.7z
	 M1548.5,633.1h49.3l-5.3,28.2c12.3-21.1,28.2-31.7,49.3-31.7h3.5l-8.8,56.3c-3.5-1.8-5.3-1.8-8.8-1.8c-22.9,0-35.2,10.6-40.5,40.5
	l-8.8,47.6h-54.6L1548.5,633.1z"/>
<path class="st1" d="M1701.7,319.6l-42.3,232.5H155.2l42.3-232.5H1701.7z"/>
<path class="st1" d="M1751,57.1l-44,234.3H202.7L245,57.1H1751z"/>
</svg>
