<?xml version="1.0" encoding="utf-8"?>
<!-- Generator: Adobe Illustrator 25.0.1, SVG Export Plug-In . SVG Version: 6.00 Build 0)  -->
<svg version="1.1" id="レイヤー_1" xmlns="http://www.w3.org/2000/svg" xmlns:xlink="http://www.w3.org/1999/xlink" x="0px"
	 y="0px" viewBox="0 0 1905.4 1102.2" style="enable-background:new 0 0 1905.4 1102.2;" xml:space="preserve">
<style type="text/css">
	.st0{fill:#3b4351;}
</style>
<g>
	<path class="st0" d="M963,0c235.9,0,488.8,48.1,690,175.8c130.7,83.6,252.4,210.4,252.4,375.5c0,192.8-164.7,333.1-322.5,415.2
		c-187.8,97.2-409.6,135.7-620,135.7c-235.8,0-488.2-47.5-689.5-175.7C142.7,842.8,20.5,716.1,20.5,551.3
		c0-193.7,164.3-333.5,322.5-415.6C531.3,38.5,752.7,0,963,0L963,0z M961,58.6c-219.3,0-455.7,41-646,155.7
		c-119.7,71.6-237.9,184.3-237.9,334c0,175.8,160.2,298.9,303.5,369.6c177.3,86.6,384.6,120.2,580.4,120.2
		c219.8,0,456.2-41.2,646.5-155.8c119.2-72.1,237.9-184.3,237.9-334c0-176.2-159.8-299.5-303.5-369.5
		C1364.6,92.1,1157.3,58.6,961,58.6L961,58.6z M133.2,426.6L494.3,365l108.7-235.9L711.1,365l361,61.6l-361,62.1L602.9,725.2
		L494.3,488.8L133.2,426.6L133.2,426.6z M926.9,606.4l159.2-28l47.6-106.7l47.6,106.7l159.3,28l-159.3,27.5l-47.6,106.7l-47.6-106.7
		L926.9,606.4L926.9,606.4z M1256.5,322l159.2-27.5l47.6-107.1l47.6,107.1l159.2,27.5l-159.2,28l-47.6,106.7L1415.6,350L1256.5,322z
		 M1086.1,826.8l158.7-27.5l47.6-107.2l48.1,107.2l159.2,27.5l-159.2,28l-48.1,106.7l-47.6-106.7L1086.1,826.8z M596.9,865.3
		l159.2-27.5l48.1-107.3l47.5,107.3l159.3,27.5l-159.3,28l-47.5,106.7l-48.1-106.7L596.9,865.3z M1397.7,602l158.7-28.1l47.6-106.7
		l48.1,106.7l159.2,28.1l-159.2,27.5l-48.1,106.6l-47.6-106.6L1397.7,602z"/>
</g>
</svg>
