<?xml version="1.0" encoding="utf-8"?>
<!-- Generator: Adobe Illustrator 24.1.2, SVG Export Plug-In . SVG Version: 6.00 Build 0)  -->
<svg version="1.1" id="Layer_1" xmlns="http://www.w3.org/2000/svg" xmlns:xlink="http://www.w3.org/1999/xlink" x="0px" y="0px"
	 viewBox="0 0 1666 2138.5" style="enable-background:new 0 0 1666 2138.5;" xml:space="preserve">
<style type="text/css">
	.st0{fill:#F5F7F7;}
</style>
<path class="st0" d="M427.5,1784.1c80.8,72.6,267.7,208.5,390.6,263.5l1.2-262.8l0,0L427.5,1784.1z"/>
<path class="st0" d="M1011.7,777.2h-11.1V798h8.2C1022.2,798,1022,777.2,1011.7,777.2z"/>
<path class="st0" d="M816.4,1479.7c-74.4,0-188-49.1-232.9-129.5l-413.9-0.4c2.4,69.2,30.6,152.8,69.4,210.6h578.6L816.4,1479.7z"/>
<path class="st0" d="M670.5,160.6c13.7-0.8,12.5-22.1,0-20.9l-102.2,7.8l1.2,19.5L670.5,160.6z"/>
<polygon class="st0" points="955,813 947.9,781.6 941.1,813 955,813 "/>
<polygon class="st0" points="1139.7,1130.8 1139.7,1130.8 1519.6,1130.6 1536.5,920.5 1139.7,920.7 "/>
<path class="st0" d="M1105.6,1173.1l0.2-442.8l-538.4-0.2v439.2C567.4,1537.2,1105.6,1537.2,1105.6,1173.1z M1037.8,765.3h49.3v13.3
	h-17.3v65.4h-14.9v-65.4h-17.1V765.3z M986,766h26.8c13.5,0,20.3,7.8,20.3,18.3c0,7-0.2,15.1-8.2,18.5c4.2,4,6.6,9.9,7.2,15.9
	c0.2,3,0.4,13.5,0.8,20.3c0.2,2,2.2,4.6,2.2,4.8h-14.9c-2,0-2.2-3.6-2.4-6.5c-0.4-8,0.4-26.8-7.4-26.8h-9.6v33.2H986L986,766z
	 M939.2,765.6h18.1l19.9,77.8h-15.9l-4-16.1h-18.5l-4.4,16.7h-15.9L939.2,765.6z M861.9,792.5c0.2-11,6-23.1,13.9-27.7
	c5.6-3.2,15.9-3.2,22.5-0.8c8,2.8,14.1,14.3,13,24.1H897c0.2-5.2-1.4-11.9-5.6-13.5c-4.4-1.6-9-0.2-11,2.8
	c-3.4,5.6-3.4,13.1-3.2,24.7c0,7,0.2,16.7,1.6,21.3c3.4,10.5,12.3,11.1,16.7,4.6c2.2-3.2,2.2-9.4,2-14.9h-9.2v-11.5h23.7v42.2h-11.3
	v-5.8c-2.3,2-4.9,3.9-7.6,5.4c-4,1.8-11.5,1.8-17.7-0.8c-5.2-2.2-10.2-9.1-12.3-18.1C860.9,815,861.9,802.8,861.9,792.5L861.9,792.5
	z M811,765.3h49.5v13.3H843v65.2h-14.9v-65.2H811V765.3z M754.8,765.3h49.5v13.1h-17.5v65.5h-14.9v-65.5h-17.1L754.8,765.3z
	 M782.2,875.8c-1.2,10.7-9.3,11.9-18.3,10c-1.6-0.4-1-3.4,1.8-5.8l0,0c5.6-4.9,11.5-9.4,17.7-13.5
	C789.8,862.3,782.6,871.9,782.2,875.8L782.2,875.8z M699.4,765.4h14.5v56.1c0,12.1,18.3,12.1,18.3-0.2l0,0v-55.9h14.5V820
	c0,32.6-47.3,32.6-47.3,1V765.4z M643.8,765.3h49.3v13.1h-17.3v65.5h-14.9v-65.5h-17.1L643.8,765.3z M591.3,819.1h14.1
	c0,3.8,0.6,6.6,2.2,9c1.2,1.6,3.4,4.2,7.2,4.4c5.6,0.4,10.6-3.8,11-9.4c0,0,0,0,0,0c0-0.6,0-1.2,0-1.9c-0.8-12.1-21.1-12.9-28-20.7
	c-8.4-9.5-5.8-24.9,1-31c9.4-8.7,22.1-8.7,31.8-2.6l0,0c6.4,4,9.7,11.3,8.6,19.9h-12.5c0-8-3.4-11.7-10.1-11.9
	c-4.2-0.2-9.3,4.6-9.3,8.2c-0.2,10.5,9.1,12.7,15.5,14.7c4.8,1.4,10.5,4.4,13.3,8.6c5.2,7.6,5.8,15.5,1.6,25.9
	c-2,5-9.6,10.9-15.9,12.3c-7.2,1.6-15.9,0.8-23.1-4.6C592.8,835.4,590.1,826.8,591.3,819.1L591.3,819.1z M1011.9,1153.8
	c2.2,7.8,1,17.5-1.6,25.1c-5.6,15.7-20.5,28.8-24.7,47.7c-1,5,0.4,11.1,2.4,15.9c4.6,10.4,10.6,20.1,17.9,28.9c1,2.8,2.4,6,1.2,8.5
	c-1.6,4-13.9,12.6-17.5,15.9c-11.3,10.5-21.1,24.3-23.3,39.2c-0.8,5.4-12.3,10.7-20.1,12.9c-5.7,1.6-11.7,3.2-16.5,7
	c-0.6,4.4,2,8.2,2.6,12.5c1,7.6-8.5,11.3-15.9,13.7c-3.5,1.4-7.2,2.1-11,2.2c-1.4,0-1.8-2.4-1.6-3.6c2.2-10.3,4.2-18.7,8.1-27.2
	c1.7-3.1,4-5.8,6.8-8l28.4-23.9l22.3-32c1.7-2.3,2.6-4.9,2.8-7.8c0-6.1-2.5-11.8-7-15.9c-5.6-5-13.7-5.8-19.9-9
	c-8-4-19.5-15.1-21.1-15.9c-4.4-2.2-6.9,5.8-7.6,10.3c-1,7,1.2,13.5,1,20.5c0,3.2-0.4,5-2,7c-18.7,10.7-42,14.7-55.7,31.8
	c-2.4,3-4.6,6.2-7.8,8.4c-7.8,5.4-20.7-0.8-26.5,7.6c-2.6,3.8,0.4,8.8-0.6,12.9c-0.6,2.4-5.2,5.6-8.8,7.3c-4.8,2.2-9.9,3.4-15.1,3.8
	c-5.8-2.8-2.2-10.9-0.2-16.7c2-6,4.8-11.9,9.3-15.9c6.8-6,15.3-13.5,20.7-16.1c4.6-2.2,11.5-2.2,17.1-4.4c5.9-1.8,11.4-4.5,16.5-8
	c8.1-5.2,15.7-11.5,20.3-20.3c5.2-10,4.6-23.2-2-31.8c-6-7.8-12.9-15.3-16.9-24.1c-2.2-4.8-0.6-11.3,2.8-15.7
	c-0.2-0.2-2.6-1.8-4-1.4c-28.5,1.2-57.3-2-83.8-12.5c-7-2.8-14.1-11.8-19.1-12.3c-4.6-0.6-7.4,5.2-11.9,6.4c-7.3,2-16.9,0.8-25.5,0
	c-9.9-1-30.6-5.4-45.6-10.1c-2.5,0.2-4.9,1-7.2,2.2c-3.2,2.2-3.8,7-4,11c-0.4,5.4,1.2,10.3,0.6,15.9c-0.2,2.8-1.8,5.8-1,8.4
	c0.8,3.2,4,4.6,6.2,6.6c3.6,3.4,4.2,10.3,4.2,15.9c0,6.2-2.2,14.3,3,18.5c3.2,2.6,7.6-0.8,11.5,0c4.4,0.8,5.8,6.2,6,10.3
	c0.2,4.8-3.8,14.9-6.4,17.5c-1.8,1.8-4.8,0.4-7-0.6c-5.8-2.6-11.1-6.8-14.3-12.3c-1.4-2.4-1.4-5.4-2.8-8c-2.2-4.4-6.2-6.9-10.1-9.9
	c-4.8-3.6-5.8-10.2-6.6-15.9c-0.6-5.4,0.4-10.6,0.8-15.9c1-10.6,0.4-21.4-2-31.8c-1.8-7.9-6.2-15.9-4.2-23.9c0.9-3.9,3.6-7.2,7.2-9
	c19.2-0.9,38.3-4.2,56.7-9.9l-11.9-11.8c-3,0-5.4,3-8.3,3c-3.2,0-7.6-4.6-8.8-6.2c-6.2-9.2-10.2-19.7-12.9-30.5
	c-2.6-4.2-5.8-8.3-10.6-10.3c-3.3-1.4-6.9-2.1-10.5-2c-9.9,4.4-19.1,12.9-19.9,23.9c-0.2,2.8,1.4,5.2,1,8c-0.6,4.8-4.2,8-7.6,11.3
	s-6.6,6.8-7.9,11.5c-1.2,4,0.2,8.2,2,11.9c1.2,2.6,2.6,5.2,1.6,8c-2.4,6.6-18.1,13.3-22.7,13.3c-1.6,0-3-2.2-3.6-4
	c-1.8-6-1.4-12.3-0.2-18.3c4.2-4.6,7.3-10,9.2-15.9c2.4-7.9,1.2-16.5,5-23.9c9.9-16.9,35.4-50.7,40.4-55.7c2.2-2.2,7.6-3.4,9.8-2
	c10.7,7,17.1,15.5,27.4,20.9c5.6,2.8,12.5,7,17.5,3s5.8-30.6,9-37.4c5.8-11.7,21.9-27.3,33.1-39.8l0,0c6.4-7,11.9-16.1,13.1-23.9
	c1-6.4-16.9-6-23.5-2c-3.6,2.2-7,6.6-9.8,10.5c-2,3-9.2,5.4-12.7,2c-3.8-3.6,3-9.8,2.8-13.5c0-6.4-12.1,3.2-17.7,0.6
	c-3.8-1.8-4-7.6-1.4-10.9c1.4-1.8,5.4-1,7.2-3s1.8-5,2.4-7.6c0.8-3,4-4.4,6-6.6c7.6-7.4,21.9-19.9,24.7-19.7c6.6,0.6,15.9,4,21.7,1
	c1.2-0.6,3.4-2.6,1.4-3.8L739.4,906c-0.1-3.2,1.2-6.4,3.6-8.6c7.2-6.4,18.3-2,27.7-3.4c6.5-0.8,12.6-3.7,17.5-8.2
	c1.2,4.8-1.8,9.6-1.8,14.5c6,5.6,12.1,10.3,17.9,15.7c17.1,17.1,24.5,42,25.7,63.8c1,10.1,1,20.5,1,37.4c2.8-7.2,4.6-17.7,5.2-26.9
	c2.6-27.1-1.6-51.1-16.9-71.6c-6.2-8.6-13.3-16.6-21.1-23.9c0.8-7.9,7.6-21.5,13.9-16.5c4.2,3.2-2,8,2.4,10.7c4.8,3,11.7,2.6,14.7,2
	c7-1.8,13.7-3.6,20.1-4.2c3-0.2,7.9-1.6,9,1.4c0.8,2-1.4,3.4-3.6,4.2c-2.6,0.8-6.6,0.2-8.7,2.4c-1.8,1.8-3.6,3.8-3,6.4
	c0.9,2.9,3.9,4.6,6.8,3.7c0.1,0,0.2-0.1,0.4-0.1c12-3.3,24.3-5.2,36.8-5.6c6.6,0,5.2,4.8,2,6.6c-2.4,1.2-5,2.1-7.8,2.4
	c-11.7,1.4-20.5,2.2-19.1,8.9c1,4.6,8.4,0.2,9.9,3.6c1.8,3.6-3.2,5.6-2.8,8c1.2,7.6,15.7,6,22.5,4.4c5-1.2,12.9-5.2,15.3-2
	c2.2,2.8,0.4,7.2-2.4,8c-7.2,2-19.5,5.6-22.9,9.5c-3.2,3.8,0.6,11.5,4.4,11.9c8.6,1,17.9,1,24.7,3c2.6,0.8,4.8,2.6,4.8,5.4
	c0,3-3,4-5.4,4.8c-4.6,1.4-12.3,1.4-16.5,3.2c-1.4,0.6-4.2,1.6-3.8,3.2c1.2,3,7.2,2.2,12.1,2.8c2.8,0.2,8.2,2.4,8.2,5.4
	c0,3.2-2.8,4.2-7.8,3.8c-7.8-0.6-14.9,0.4-18.3,1.8c-1,0.4-7,1.2-6.8,4c0.4,3.4,6.8,1.2,8.4,4.6c1.4,3.2-3,5-3.4,9
	c0,1.6,0.8,2.4,2.4,3c5.2,2.2,11.1,2,16.3,1c5.4-1,7.3,6.2,6,7c-6.9,3.8-22.5-0.2-26,2c-5,3.2,8.3,10.3,8,11.9
	c-0.4,1.7-1.6,3.2-3.2,4c-6.8,2.6-15.5-2.4-20.5,0.4c-4.2,2.6-2.4,9.2-5,12.5c-3.2,4.2-10.3,2.4-13.5,4.8c-4.2,3-4.4,10.1,0.2,14.5
	c3.4,3.3,7.3,6,11.5,8c20.7,10.3,42.2,20.7,62.3,19.3c10.3-0.6,27.3-1.2,36.6,1.2c12.1,3,24.5,12.3,30.8,16.3
	c5.2,3.2,13.5,4,20.1,1.6c4.9-1.8,7.8-6.8,7-11.9c-3-15.9-29.3-20.9-29.6-36.8c-0.4-18.3-2-28.2-8-39.8c-2.2-4.4-2.6-14.5,2.6-15.9
	c4.2-1,5.6,4.8,8.9,3.4c15.3-6,15.9-30.2,31.8-34.8c9.3-2.6,40.8-3,38.2-7c-6.6-9.4-3.6-20.1,0-25.1c2.4-3.2,8.9-6.4,11.6-3.2
	c3.6,4.2-5.4,9.1-4.8,15.3c0.6,5.8,9,16.9,2.6,22.9c-3.8,3.6-32.2,4.8-40.6,17.5c-5.2,7.7-5.8,13.9,0.4,13.3c5-0.6,9.1-6.6,13.7-9.9
	c8.2-6,14.7-8.3,19.3-4c2.4,2.2-0.8,6.4-5.2,7.6c-3.6,1.2-12.3,10.6-9.9,12.9c3.6,3.8,23.5-13.5,28.4-9.9c2.6,2-9.8,14.7-7.6,18.1
	c2.6,4.2,11-2.4,13.5,0.8c3.8,4.8-6.6,14.1-12.6,18.3c-4.6,3-2.8,14.1-9.3,17.5c-7.3,3.6-10.7,9.9-9.9,10.9c0.8,1.6,2.6,2.8,5.4,1
	c8.2-5.2,18.3-11.3,22.5-9.7c2.4,1-1,12.3-4,17.7s12.1,2.4,9.9,7c-1.9,4.2-2.4,8.8-1.6,13.3c1.2,6.2-16.3,7.5-17.9,11.7
	c-1.8,4.8,1.8,6,3.6,6.2c10.6,1.6,9.2,11.3,5,15.5c-5.6,5.6-15.1,7.8-23.5,6.3c-7.2-1.2-23.3-4.2-32.8-11.3c-3-2.2-7.4-0.6-8,2.4
	C1006.7,1142.5,1010.3,1148.7,1011.9,1153.8L1011.9,1153.8z"/>
<path class="st0" d="M1020.5,1423.8c-5,20.1-7.3,53.9-7,54.7c12.1-5,23.5-9.3,33.4-12.3c0.8-1.2,14.9-32,21.3-40.4
	c14.9-23.1,35-42.8,59.4-55.9c15.3-7.8,34-14.9,50.5-8.8c-21.7,10.3-38.6,29-48.7,39.8c-9.3,10-20.3,24.7-25.2,39.8
	c-0.7,2.6-1.2,5.3-1.6,8c10.2-3.2,42.6-8,56.1-9.8c1.6-0.2,5.8-9.2,9-13.5c3.9-5.5,8.2-10.9,12.7-15.9c16.3-17.7,44-36.6,70.8-32.4
	c-14.7,9.3-30.8,24.3-43.8,47.7c-1.8,3.6-4.2,8.6-3.2,10.7c4,0.8,23.7,0.4,35.6,1.8c13.7-8.5,28.2-16.1,44-19.5
	c17.7-4,40.8-0.8,49.9,7.6c-10.5-0.5-20.9,1.2-30.6,5.2c-5.6,2.2-16.7,7.4-20.9,14.5c10.5,3,27.9,14.3,38.8,23.5
	c7.6,6.4,16.7,15.5,22.5,23.9c14.5,19.7,17.5,55.1,9.7,65.7c-2.1-6.3-4.8-12.3-8-18.1c-7-11.7-17.9-24.5-27.3-31.4
	c-45.1-34.4-110.2-36.2-163.3-25.5c-45.6,9.3-127.7,26.5-181.4,64.6c1.4,6.8-2.8,18.1-8.9,22.5c-8.1,6-19.7-2.1-25.6,1l0,0
	c-8.2,4.2-18.3,1.6-22.5-0.2c-7.2-3-11.9-10.4-12.6-18.9c-0.6-6.8,6-14.9,7.4-22.3c0.6-3-2.6-17.7,9.9-25.2c2.4-1.4,9.5-4,14.5-3.2
	c5,1,9,4.2,13.9,5c6.8-2.4,13.2-5.5,19.3-9.3c4-16,7-32.3,8.9-48.7c-35.6,17.7-82.2,29.6-121.7,31.2l0.2,572.3
	c166.1-84.4,348.3-222.4,425.8-298.2c125.5-122.3,210-246.2,223-424.9l11.7-162.8l-377.3-0.4
	C1139.4,1258,1108.6,1354.2,1020.5,1423.8z M1080.5,1805.2c-13.9-0.6-31.2,2-40,4c-33.6,7.6-68.2,22.7-97.9,39.6
	c0.2,5.8-0.8,12.7-7.3,18.1c-4.4,3.6-13.9,5.4-17.5,0.2c-2-2.8-14.9,0.2-17.7-3.4c-2.1-3.4-3.4-7.3-3.8-11.3
	c-0.4-6.6,4-10.5,7.6-13.9c1-1.2,0.8-12.3,9.1-16.1c4.8-2.2,10.4-1.8,14.7,1.2c1.8-1,3.2-2,4.4-2.8c0.9-12.9,3.6-25.7,8.2-37.8
	c6.6-18.3,28-40.6,46.5-39.8c-12.5,13.5-22.7,32.2-26.1,47.8c-1,5-1.4,14.7-1.4,19.3c4.4-2.7,9.1-5,13.9-6.9
	c2-4.8,7.8-16.7,10.7-22.1c7.5-14,24.4-31.8,39.6-38l0,0c6.8-2.8,13.9-4.8,21.1-4c-16.7,10.7-32,26.4-36.2,45.1
	c-0.4,2-0.4,6,1.4,7.2c4.8-1.2,16.9-3.8,20.1-5.4c2-4.2,6.9-10.7,10.3-15.1c11.9-15.9,29-31.8,52.7-25.8c-15.5,7-24.5,16.7-31.2,29
	c-1.2,2.2-2,6.4-0.4,6.4c4,0,19.1-0.6,21.3-0.6c7-6.2,27.3-17.9,41.2-13.5c-7,3.3-13.3,7.6-18.9,12.9c-1.4,1.6-3.2,3.6-3.6,6
	c12,5.9,23.2,13.2,33.4,21.9c5.4,4.6,13.1,13.1,17.9,27.8C1140.7,1824.7,1101.7,1806.2,1080.5,1805.2L1080.5,1805.2z M1263.7,1699.6
	c-6-7.6-14.1-14.9-20.7-18.7c-9.3-5.4-16.1-10.5-27.4-14.9c-35.6-13.3-82.1-16.9-119.3-11.9c-48.1,6.2-107.2,30-137.4,50.7
	c2,9.3-2.6,20.3-8,22.9c-11.3,5.8-22.3-4-24.3-3.4c-3,1-12.1,4.2-18.7,1.4c-6.6-2.6-10.7-14.1-8.2-21.5c2-5.6,10-13.5,10-13.5
	c-1.2-12.1,6.7-19.5,17.7-20.9c6.2-0.6,10.5,4.2,15.5,5.2c4.6-2.2,7.8-3.8,10.1-5c2.8-9.9,7-20.1,9.8-28.4
	c4.6-14.1,11.3-26.7,19.9-39.8c12.3-18.9,34.2-36.8,60.2-37.2c-7.9,6.2-12.5,9.6-17.5,15.7c-8.1,9.9-15.2,20.6-21.1,32
	c-5.4,10.2-10.4,25.2-11.1,38.6c11.3-5.4,22.7-10.5,34.2-15.3l0,0c5.9-9.1,13.1-22.5,16.7-28.2c12.5-20.1,30.7-35,43-40.8
	c16.9-8.2,44.2-12.9,56.3-7c-13.3,3.2-23.5,9.3-32.8,15.9c-9.5,6.6-28.3,23.7-33,30.9c-4.1,5.9-7.6,12.2-10.3,18.9
	c15.1-3.4,33.2-6.2,42.6-6.2c6.8-8.6,24.7-29,38-38.6c10.7-7.6,33.6-15.1,47.9-9c-13.7,4.4-38,23.5-46.9,37.2
	c-2,3.2-3.8,6.6-4.2,8.3c7.4,0.6,21.3,2,28.8,3c0.8,0,21.5-12.7,30.8-15.3c12.1-3.4,32-7.8,44.6,5.6c-9.2,0.2-17.7,1-24.5,4
	c-9.8,4.3-13.9,7.5-18.3,13.7c19.1,10.2,39,20.7,50.7,39.4C1260.9,1674,1267.2,1689.4,1263.7,1699.6L1263.7,1699.6z"/>
<polygon class="st0" points="857.7,697.7 1552.1,697.3 1568,487.9 857.1,488.5 "/>
<path class="st0" d="M535.8,990.3c-15.5-11.5-87.5-19.9-131.9-2.6c-10.7,4.2-45.7,19.3-61.7,31.8l-44.7,35.4
	c-4.4,3.6-4.8,11.3-4.8,17.3c0,13.1-15.3,23.1-23.9,20.3c-7-2.4-16.5-3.8-25.3-1.8c-9.3,2-17.7-9.8-18.5-16.5
	c-1.2-8.4,5.4-19.3,5.8-22.9c0.4-3.4-1.8-16.7,10.5-24.9c5.6-3.6,13.3-3.4,18.9-0.4c1.6,0.9,3.5,1.2,5.4,0.8c2-0.8,7.4-5.6,8.8-6.8
	c0.6-8-0.6-20.5,0.2-27.4c1.8-13.5,2.6-21.3,6.8-34.4c4.4-13,10.1-25.4,17.1-37.2c10.3-16.9,30.8-33.2,46.2-31.8
	c-6,8-8,12.1-12.3,20.3c-8.2,14.9-15.7,39.6-19.3,56.3c-2.4,10.7-3.6,19.1-3,30.4c10.3-7.5,21.1-14.3,32.2-20.5
	c3.9-19.7,10.6-38.8,19.9-56.7c10-18.9,36.8-39.4,54.3-37.8c-16.5,17.9-28.3,42.8-32.6,58.7c-1.8,6.4-4,13.7-3,17.7
	c6.5-3.6,20.1-7.2,26.6-7.8c4.4-10.9,10.3-24.1,15.3-31.8c15.5-23.9,40-38.4,53.9-37.8c-11,14.7-20.3,28-27.1,47.7
	c-1.7,4.8-2.7,9.8-3,14.9c8.5-1.4,21.9-1.4,27.2-1.4c10-9,17.1-19.7,29-28.8c9.9-7.8,28.4-18.3,32.8-19.1V772.8c0-2.6-31.6-5-47.3-3
	c-41.8,5-146.2,37.8-190.3,68.2c-1,2.6-0.8,17.1-3.8,23.9c-2.6,6.2-9.1,12.5-15.5,15.3c-11.3,5-24.5-10.1-30.2-8
	c-6,2.2-18.7,7.4-32.4-2.4c-6.2-4.4-9.3-16.7-7.2-25.8c2-6.6,7.6-11.7,11.9-15.9c4-4,1.2-19.3,15.5-28.5c10-6.4,23.7-1.2,34.2,4.4
	c2.1-0.7,4.1-1.8,5.8-3.4c1.4-4.2,3.6-16.9,5.6-26.9c2.4-10.8,3.2-17.7,6.4-27.6c8-24.1,27-58.7,47-76.8
	c15.7-13.9,40.2-25.1,58.3-23.9c-1.8,2.8-24.3,22.8-30.8,31.8l0,0c-15.5,20.7-29.8,52.5-36.6,79.6c-2.4,9.2-2.4,12.5-0.8,18.5
	c14.7-6.6,33.8-12.9,44.9-16.5c4.4-9.7,6.8-20.9,10.5-29.8c6-13.9,9.7-19.9,15.9-29.6c17.7-27.4,55.1-54.5,82.7-53.9
	c-9.2,7.9-28.2,27.8-35.8,39.8c-6.4,10.1-11.8,20.8-16.3,31.8c-3.1,8.2-5.1,16.7-6,25.5c14.3-4.2,28.4-7.2,37.6-7.8
	c6.2-3.4,8.2-10,11.5-16.1c10.5-19.7,31.2-41.8,44.4-48.9c10.5-5.8,26-11.3,37.2-7.8c-11.9,8.9-24.5,23.3-30,31.8
	c-5.8,9.1-15.1,26.9-14.7,35.2c9.8,0.8,23.7,0,29.2-1.4l-0.6-27.5l285.8-0.2l-0.2-391c-222.4,0-466,21.1-724.4,93.3l53.3,734.5
	h385.3V990.3z M186,630.5c2.2-12.5,14.7-20.1,16.5-32c2.6-17.5,15.3-25.1,21.9-26.2c7.2-1.4,14.5,1,21.1,4c2.8,1.4,5.8,3.8,8.4,4.6
	c2.6-0.8,6.3-4,8.5-5c0.6-2,7.2-38.4,10.7-54.3c3.6-15.9,9.8-29.5,14.9-44.4c15.5-44.2,63.5-88.7,101.8-86.3
	c-2,2.8-14.3,11.7-31.4,31.6c-27.6,32.4-34.6,66.8-45,125.9c21.3-9.9,39.8-17.1,59.1-24.1c4.6-18.3,10.7-36.2,18.3-53.5
	c4.9-11.2,10.9-21.9,17.9-31.9l0,0c15.1-21.1,54.9-52.9,85.5-51.1c-16.7,14.5-31.4,30.6-41.8,47.7c-13.5,22.1-24.5,49.7-26.8,71
	c10.1-3.8,34-10.5,47.7-13.5c12.1-26.5,28.1-55.7,47.8-71.4c14.1-11.3,34.4-21.1,53.3-18.9c-4.4,6.2-11.5,11-16.9,15.9
	c-9.7,8.5-16.5,20.1-21.9,31.8c-4,8.7-10.7,35-10.9,36.2c13.7-0.2,38,1.4,43.2,3c16.1-21.1,51.3-51.7,93.5-44.8
	c-18.3,9.9-51.7,39-49.7,54.9c27.4,17.7,68.4,54.9,70.2,89.3c-18.7-19.5-49.5-38.8-65.1-44.2c-37.2-13.1-81.5-14.9-118.5-8.2
	c-77.1,14.5-145.4,47.9-210.8,87.1c-1.6,10.5-7.4,26.4-12.1,31.8s-11.9,10.5-19.7,11.7c-9.7,1.6-19.7-2.4-28-6.8
	c-5.4-3-19.5,0.8-28.4-4C193,653.6,183.5,644.6,186,630.5z"/>
<path class="st0" d="M362.9,241.5c34.4-2.8,75-8.4,100.4-13.9l0,0c4.6-1,6.6-6,7-9.5c1.6-11,0.2-39.6-2.4-49.1
	c-0.8-3.8-4-6.2-11.1-5.6c-19.5,1.2-71,8.6-96.5,14.1c-6.8,1.6-9.3,5.6-9.7,9.1c-1.2,9.4,1.6,35,4,49.3
	C355.2,239.3,359.5,241.7,362.9,241.5z"/>
<path class="st0" d="M0,106.9l87.9,1247.8c9.1,129.7,102.4,328,281.3,480c107.6,91.5,318.4,245.1,474.2,303.9
	c179.4-90.9,342.5-203.9,471.8-315.4c160.3-146.2,255-328,264.7-467.7l0,0L1666,123.9C1161.4-37.1,556.9-39.5,0,106.9z M1629.6,155
	l-85.3,1175.1c-12.3,156.3-84.9,305.7-249.8,460.5l0,0c-123.9,107-290.8,227-451.1,303.5c-143.2-44.4-354.8-207.9-456.7-295.8
	c-177.6-153.6-249.8-314.3-260.8-466.2l-86.3-1191C569.8,1.6,1148.6,1.6,1629.6,155z"/>
<path class="st0" d="M96.3,369.4c506.2-126.7,1036.5-114,1476.6,19.3l18.9-208.9C1135.8,39.9,582,32.3,79.2,164.2L96.3,369.4z
	 M1408.3,164.8l150.2,36.4l-3.4,33.8L1443.3,208l-2.2,24.5l111,27l-2.8,28.6l-110.6-26.4l0,0l-2.4,23.1l111.2,28l-3,32.2
	l-149.2-35.2L1408.3,164.8z M1191,127.2l38,5.6l-4,54.7l115.8,18.7l3.8-54.7l38.8,7.4l-11.7,142.8l-37.8-7l4.2-54.3l0,0l-114.2-18.9
	l-4.4,53.7l-37.2-5.6L1191,127.2z M981.2,132c3.2-14.5,17.1-22.1,32.8-21.7c47.5,1.8,85.3,6,147.6,14.3l-2.4,36.6
	c-30.2-2.6-87.5-11.5-131.9-13.3c-7.6-0.2-12.7,4.4-13.3,8.4c-1.8,11.7-2.4,26.9-2.4,46.5c0,2.6,4.4,9.7,8.2,10.3
	c34.2,4.8,100.7,10.8,136.8,13.1l-2.2,36.8c-47.6-2.2-97.3-9.7-148.8-13.3c-16.9-1.2-29.2-10.3-29.8-26.6
	C974.9,196.2,976.5,155.6,981.2,132z M754.6,121.8c7-12.7,19.5-16.3,29.8-16.3l161.9,0.2l0.4,35l-153.1-0.2
	c-7.6,0-7.8,16.9,0.6,16.9h120.7c14.1,0,26.7,8.5,30.6,19.7c4.4,11.9,3.6,39,0,50.1c-3.4,11.1-16.1,17.3-32,17.3H753.8l-0.2-35.8
	h142.2c4.6-0.4,8.1-4.4,7.7-9c-0.3-4.1-3.6-7.4-7.7-7.7H787c-13.9,0-25.1-3.8-32.4-16.1C748.2,165.8,748.2,132.8,754.6,121.8
	L754.6,121.8z M691.9,105.2c20.7-1.6,32.8,13.9,33.8,26.9c1.2,15.3,1.8,35-10.2,43.2c10,7.4,12.5,18.3,12.7,33.6l0.4,36l-34.8,1.4
	l-0.6-40l0,0c-0.2-7.4-6.2-13.2-13.6-13.1h-0.3L572,200.9l2.2,53.3l-34.8,3.6L532,117.2L691.9,105.2z M314.7,165.6
	c0.8-10.4,10.3-21.3,20.9-23.7c32.8-7.8,100-18.5,135.2-21.1c16.1-1.2,28.6,7.2,30.8,19.7c5.2,28.9,8.4,58.7,4.8,98.7
	c-1,11.5-11,20.7-24.1,23.5c-45.1,10-95.9,15.3-133.5,18.9c-9.5,1-24.7-6.6-27.2-18.5C315.1,234,312.8,193.5,314.7,165.6z
	 M249,158.6L249,158.6c48.1-11.3,55.5,74.2,15.3,84.1l-112.2,28l5.4,55.3l-35.2,9.4l-12.5-144L249,158.6z"/>
<path class="st0" d="M535.7,958.3V915c-7.6,6.8-22.7,23.5-25.7,31C516.6,948.4,529.5,954.2,535.7,958.3z"/>
<path class="st0" d="M248.5,214.6c11.5-2.6,10-23.3-2.4-20.7l-101.2,24.5l2.4,21.3L248.5,214.6z"/>
</svg>
