<?xml version="1.0" encoding="utf-8"?>
<!-- Generator: Adobe Illustrator 24.1.2, SVG Export Plug-In . SVG Version: 6.00 Build 0)  -->
<svg version="1.1" id="Layer_1" xmlns="http://www.w3.org/2000/svg" xmlns:xlink="http://www.w3.org/1999/xlink" x="0px" y="0px"
	 viewBox="0 0 386.1 75.4" style="enable-background:new 0 0 386.1 75.4;" xml:space="preserve">
<style type="text/css">
	.st0{fill:#F5F7F7;}
</style>
<path class="st0" d="M53.2,41.8h-26c-4.4,0-8.2,2.7-8.2,7c0,4.1,2.4,7.6,6.3,7.6h42.4V0H53.2V41.8z"/>
<path class="st0" d="M0,48.1v2.5c0,12.1,12.1,24.7,24,24.7h43.7V60.8H26c-5.6,0-11.4-5.6-11.4-10.8c0-8.8,6.2-12.7,15.2-12.7h19
	V22.8H27.9C12.9,22.8,0,33.7,0,48.1L0,48.1z"/>
<path class="st0" d="M72.2,57.6v3.2c0,11.4,9,14.6,20.9,14.6s24,0,36,0l-6.3-14.6H88c-0.4-0.5-1.3-1.6-1.3-1.9c0-2,1.9-2.5,3.8-2.5
	h30.4c-0.9-4-4.7-14.6-9.5-14.6H89.9C79.6,41.7,72.2,47.5,72.2,57.6L72.2,57.6z"/>
<path class="st0" d="M72.2,37.3h29.7c17,0,16.6,1.1,21.4,13.4c2.6,6.7,8.8,18.6,10.2,24.6h15.8c-5.1-9.7-8.9-21.5-13.7-31.9
	c-5.5-11.7-8-20.7-25.5-20.7h-38L72.2,37.3L72.2,37.3z"/>
<polygon class="st0" points="153.8,75.3 168.4,75.3 168.4,0 153.8,0 153.8,75.3 "/>
<polygon class="st0" points="173.4,75.3 187.4,75.3 187.4,0 173.4,0 173.4,75.3 "/>
<path class="st0" d="M191.8,57v4.4c0,11.3,9.7,13.9,21.5,13.9c11.9,0,23.6,0,35.4,0l-6.2-14.6h-19c-3.6,0-17.1,1.4-17.1-1.9
	c0-4.5,28.4-2.5,34.2-2.5c-2.7-5.6-3.5-14.6-10.8-14.6h-21.5C199.1,41.7,191.8,47.7,191.8,57L191.8,57z"/>
<path class="st0" d="M191.8,37.3h30.4c17.7,0,15.4,1.8,20.9,13.9c1.4,3.1,9.2,24,11.4,24h13.9c-1.6-6.8-10.1-25.2-13.3-32.3
	c-5.2-11.5-8.4-20.3-25.3-20.3h-38L191.8,37.3L191.8,37.3z"/>
<path class="st0" d="M272.8,75.3H288V54.4c0-12.1,7.4-14.8,17.1-17.1V22.8c-7.7,0-12.5,2.6-17.1,5.7v-5.7h-15.2V75.3z"/>
<path class="st0" d="M324.7,75.3l41.5-0.1l-6-14.4H326c-1.5,0-1.9-0.4-1.9-1.9v-2.4l34.2-0.1c-2.4-4.5-4.3-14.6-10.1-14.6H326
	C303.1,41.8,303.9,75.3,324.7,75.3L324.7,75.3z"/>
<path class="st0" d="M308.9,37.3h31c16.4,0,16.1,2,20.8,14c1.3,3.4,9.1,24,11.5,24h13.9c-1.7-7.2-10.2-24.3-13.5-32.1
	c-5.2-12.2-8.3-20.5-25.8-20.5h-38L308.9,37.3L308.9,37.3z"/>
</svg>
