<?xml version="1.0" encoding="utf-8"?>
<!-- Generator: Adobe Illustrator 24.1.2, SVG Export Plug-In . SVG Version: 6.00 Build 0)  -->
<svg version="1.1" id="Layer_1" xmlns="http://www.w3.org/2000/svg" xmlns:xlink="http://www.w3.org/1999/xlink" x="0px" y="0px"
	 viewBox="0 0 731.6 759.4" style="enable-background:new 0 0 731.6 759.4;" xml:space="preserve">
<style type="text/css">
	.st0{fill:#3b4351;}
</style>
<path class="st0" d="M731.6,716.2c-15,17.5-27.5,22.5-47.5,13.8c-158.8-76.2-313.8-157.5-458.8-260c-25-17.5-68.8-7.5-80,21.2
	c-32.5,81.2-62.5,163.8-93.8,245c-5,12.5-6.2,28.8-27.5,21.2c-17.5-7.5-30-15-21.2-37.5c27.5-78.8,53.8-157.5,83.8-236.2
	c8.8-23.8,13.8-40-13.8-50l-15-7.5c1.2-2.5,3.8-5,5-7.5c6.2-1.2,13.8-5,20-5c30,2.5,43.8-15,57.5-40c46.2-82.5,95-162.5,143.7-243.8
	c3.8-5,6.2-11.2,11.2-20c-40-20-80-40-118.7-60c0-1.2,1.2-2.5,1.2-5c36.2,12.5,73.8,23.8,108.7,38.8c18.8,7.5,31.2,5,42.5-11.2
	c7.5-10,16.2-20,25-31.2c7.5-8.8,15-18.8,33.8-18.8c11.2,0,22.5-13.8,36.2-22.5c-23.8,37.5-46.2,72.5-70,111.2
	c10,5,17.5,8.8,25,13.8c62.5,40,126.2,76.2,185,120c50,36.2,45,58.8-7.5,91.2c-75,43.8-156.2,72.5-238.8,96.2
	c-7.5,2.5-13.8,6.2-21.2,10c5,6.2,8.8,15,16.2,20c126.2,90,257.5,171.2,396.2,242.5C715.4,707.5,721.6,711.2,731.6,716.2z
	 M191.6,390c7.5,3.8,10,6.2,12.5,6.2c6.2,0,11.2,0,17.5-1.2c87.5-26.2,175-53.8,262.5-81.2c10-3.8,18.8-10,27.5-15
	c21.2-15,23.8-26.2,3.8-42.5c-28.8-23.8-60-46.2-91.2-67.5c-27.5-17.5-56.2-32.5-87.5-51.2C286.6,222.5,239.1,306.2,191.6,390z"/>
</svg>
