<?xml version="1.0" encoding="utf-8"?>
<!-- Generator: Adobe Illustrator 25.0.1, SVG Export Plug-In . SVG Version: 6.00 Build 0)  -->
<svg version="1.1" id="Layer_1" xmlns="http://www.w3.org/2000/svg" xmlns:xlink="http://www.w3.org/1999/xlink" x="0px" y="0px"
	 viewBox="0 0 513.9 581.7" style="enable-background:new 0 0 513.9 581.7;" xml:space="preserve">
<style type="text/css">
	.st0{fill:#3b4351;}
	.st1{fill-rule:evenodd;clip-rule:evenodd;fill:#3b4351;}
</style>
<path class="st0" d="M357,123.2V56.5l8.3,1.3l0,29.1l17.8,3.4L383,60.5l9.7,1.6l0.1,66.7l-10-1.7l0-27l-17.5-3.3l0,27.6L357,123.2
	L357,123.2z M414.9,66.3l-0.1,67.1l-10-2.1l0-67.1L414.9,66.3L414.9,66.3z M426.7,135.5l-0.1-65l11.7,2.8l16.9,44.9l0-40.4l10,3.3
	l-0.1,65.7l-11.3-3.2l-17.2-46.5l0,41.1L426.7,135.5L426.7,135.5z M486.3,88l0.1,65.4l-10-2.7L476.3,85L486.3,88z M357,56.5v66.7
	l-1.8-0.3l-0.1-66.7L357,56.5L357,56.5z M310,107.4V66.3c2.6-7.2,7.4-12.6,16.2-12.6c5,0,9.9,1.6,13.3,5.4c2.9,3.1,4.5,7.5,4.7,12.8
	c0,0,0,1.3,0,1.4l-10-0.1c0-1.8-1.1-6.2-2.2-7.4c-4.3-4.7-10.9-1.1-12.7,3.9c-1.7,4.7-2,10.9-2.1,15.9c-0.2,9.8,0.8,16.4,3.1,20.3
	c2.8,4.8,10.9,5.7,13.4,0.2c1.2-2.6,1.6-6.2,1.6-10.2l-7.5,0l0.1-10l17.5,0c-0.1,7.2,0.3,18-2.6,24.4c-5.9,12.9-24.2,12.6-31.1,0.7
	C311,109.9,310.5,108.7,310,107.4L310,107.4z M310,66.3v41.1c-2-5.3-2.9-12.5-2.7-21.9C307.4,79.6,307.8,72.4,310,66.3L310,66.3
	L310,66.3z M280.8,93.6V79.7l0.8,0c2.2,0.3,4.7-1.1,6.1-2.7c1.5-1.8,2.3-4.1,2.3-6.5c0-2.6-0.3-5.9-2.4-7.8
	c-1.5-1.3-3.7-2.1-6.7-2.5V50.2c4.7,0.3,10,2,13.5,5.2c3.7,3.3,5.6,8.1,5.7,15c0,4.7-1.6,9.5-4.6,13.1c-1.6,1.9-3.5,3.5-5.8,4.6
	l10.3,29.6l-10.6-0.1L280.8,93.6z M280.8,50.2v10.1c-0.5-0.1-1-0.1-1.6-0.2l-7.5,0l-0.1,19.5l9.1,0.1v13.9l-1.3-3.9l-7.9,0l0,27.7
	l-9.9-0.1l0.1-67.2l17.8,0.1C280,50.2,280.4,50.2,280.8,50.2L280.8,50.2z M233,118.4v-10c2-0.1,3.5-1,4.7-2.3
	c2.3-2.5,3.9-6.2,4.6-9.5c0.3-1.3,0.6-2.9,0.8-4.5c1.1-8.6,0.6-19.3-1.6-24.5c-0.9-2.1-2-4.4-3.5-6.1c-1.2-1.3-2.7-2.2-4.8-2.1
	l-0.1,0v-10l0.2,0c5.3-0.1,9.2,2.1,12.1,5.2c2.5,2.7,4.2,6.1,5.4,9c2.8,6.7,3.5,19.5,2.3,29.5c-0.2,1.9-0.6,3.8-1,5.6
	c-1.2,5.1-3.6,10.3-7,14.1C242.1,115.9,238.2,118.2,233,118.4L233,118.4z M233,49.4v10c-2,0.1-3.5,1-4.7,2.3
	c-2.3,2.5-3.9,6.2-4.6,9.5c-0.3,1.3-0.6,2.9-0.8,4.5c-1.1,8.6-0.6,19.3,1.6,24.5c0.9,2.1,2,4.4,3.5,6.1c1.2,1.3,2.7,2.2,4.8,2.1
	l0.1,0v10l-0.2,0c-5.3,0.1-9.2-2.1-12.1-5.2c-2.5-2.7-4.2-6.1-5.4-9c-2.8-6.7-3.5-19.5-2.3-29.5c0.9-7.1,3.1-14.3,8-19.7
	C223.9,51.8,227.7,49.5,233,49.4L233,49.4z M203.1,108V85.7c2.1,3.2,2.9,7.3,2.9,12.3C206,101.7,204.9,105.1,203.1,108L203.1,108z
	 M203.1,76.6V60.2c1.1,2,1.7,4.2,1.7,6.9C204.9,70.2,204.3,73.5,203.1,76.6L203.1,76.6z M203.1,60.2v16.3c-0.8,2-1.8,3.9-3.1,5.6
	c0.9,0.7,1.7,1.5,2.4,2.4c0.3,0.3,0.5,0.7,0.7,1V108c-1.4,2.3-3.2,4.2-5.2,5.7c-1.9,1.4-4.1,2.4-6.4,2.9c-1.4,0.3-2.8,0.6-4.3,0.8
	v-10l1.9-0.2c4-0.5,6.8-5.5,6.8-9.2c0-3.4-0.4-5.9-1.6-7.4c-0.9-1.2-2.6-1.8-5.3-2c-0.6,0.1-1.2,0.1-1.8,0.2v-9.8
	c0.3,0,0.7-0.1,1-0.1c0.4,0,2.1-0.8,2.4-1.1c2.7-2.2,4.4-6.3,4.1-9.9c-0.1-1.9-0.9-3.8-2.5-5c-1.3-1-3-1.6-5-1.4l-0.1,0v-9.8
	c4.4-0.2,8.4,1.2,11.4,3.7C200.6,56.6,202.1,58.3,203.1,60.2z M187.3,51.5v9.8c-2.5,0.2-5,0.7-7.5,1l-0.1,17.6
	c0.7-0.1,1.5-0.2,2.2-0.3c1.9-0.2,3.7-0.5,5.4-0.7v9.8c-1.5,0.2-2.8,0.3-4.1,0.5c-1.2,0.2-2.4,0.3-3.5,0.5l-0.1,18.7l7.7-1v10
	c-5.9,0.9-12,1.4-17.8,2.2l0-65.8l15.8-2.1c0.5-0.1,1-0.1,1.5-0.1C187,51.5,187.1,51.5,187.3,51.5L187.3,51.5z M85.8,117v-10.2
	l3.5-0.8l-3.4-14.8l-0.1,0.6V70l5.3-1.1l13.8,59.9l-9.7,2.5l-3.6-15.6L85.8,117L85.8,117z M112.7,127.1l0-63.7l10.5-1.9l13,34.9
	l12.5-38.8l10.6-1.8l0,64.2l-9.8,1.6l-0.1-33.6l-12.6,39.6l-13.8-38.7l0.1,36L112.7,127.1z M85.8,70v21.7l-3.5,15.8l3.5-0.8V117
	l-6,1.4l-4,18l-2.9,0.7v-33.6l7.2-32.3L85.8,70z M72.9,103.5v33.6l-8,2.1L72.9,103.5L72.9,103.5z M39.4,83.8l0,53.4l20.5-7.7
	l-0.1,10.9L29,151.6l0.1-65.2L39.4,83.8z"/>
<path class="st1" d="M395.7,314.3v0.4c0,0.3-0.1,0.7-0.3,1c-1.1,1.7-6.5,8.5-17.7,10.4c-11.2,1.9-22.4-5.2-27-9.8
	c-1.9-1.9-3.4-3.1-4.6-3.7v-17c0.9,1.1,1.4,1.7,1.4,1.7c6.3-2.7,13.6,6.8,19.7,12.5c6.2,5.7,21.9,6.6,24.6,3.6
	C394,311.2,395.6,312.7,395.7,314.3L395.7,314.3z M346.2,404.2c6,3,4.3,1.5,4.7-1c0.5-2.5,0-4.4,2.5-2.8c2.5,1.6,0.9,4.3,0.9,4.3
	s6.8,2.8,8.5-3.3c1.7-6.2,1.6-7.7-0.2-11c-1.7-3.3-3.6-15.6-4.1-32c-0.5-16.1-0.6-35.5-12.5-42.8v14.1c0.4-0.4,0.8-0.7,1.2-0.8
	c0,0,2.1-0.9,2.6,5.1c0.6,6,1.3,15.4,1.3,15.4s1.2,2.9-1,3.4c-1.5,0.3-2.9-0.9-4.1-2.4V404.2L346.2,404.2z M346.2,285.1
	c1.3,4.6,2.3,8.5,1.4,10.7l8.8-0.3c0,0,0.2-10.9-1.4-19.1c-1.6-8.2-3-11.5-2.1-19.9c0.9-8.4,1.1-15.9-4.4-23.5
	c-0.7-0.9-1.5-2-2.4-3.3V285.1z M346.2,229.7v55.4c-0.4-1.4-0.8-2.8-1.3-4.3c-1.9-6.5-2.1-10.9-0.2-19.3c1.9-8.4,0.6-14.8-4.1-23.4
	c-4.7-8.5-18.6-26.5-18.6-26.5c-2.4-0.8-6.3,0.6-10.4,2.4c-4.1,1.7-3.8,3.5-1.4,3.5c2.4,0,4.9,3.2,4.9,3.2s2.4,5.5,3.9,12.5
	c1.6,6.9,0,9.3-5.4,8.8c-5.4-0.5-8.7-1.4-16.3-12c-1.7-2.4-4-5.3-6.3-8.3V194c5.8,1.7,11.8,3.2,18.2,4.4c13.1,2.5,12.9-1.7,9.9-11.2
	c-3-9.5-13.4-9-20.4-10.4c-1.7-0.4-4.4-0.6-7.8-0.6v-10.1c2.4-0.1,4.3-0.2,5.4-0.2c6,0.2,25.1-0.2,32.5,15.6
	c7.4,15.8-0.3,23.8-0.3,23.8S339.7,220.8,346.2,229.7L346.2,229.7z M346.2,295.6c-3.3-3.7-12.2-12.2-25.4-11.7
	c-16.9,0.6-14.4,0-14.4,0s-0.2-7.7-8.8-7.9c-2.6,0-4.8-0.1-6.5-0.2v5.3c2.3-0.1,4.4,0.2,5.7,1.1l0.8,3c0,0-2.9,0-6.5,0.5v31
	c11.8,6.5,28.7,6.4,36.5,0.1c8.7-6.9,4.4-8.4,0.6-6.3c-3.8,2.1-22.9-0.5-28.1-3c-5.2-2.5-3.3-4.3-3-6.5l4.7-0.5c0,0,2.7,0,3-1.9
	c0.3-1.9,0.3-2.4,0.3-2.4l4.6,0.9c0,0,0.9,4.3,7.4,5.7c6.5,1.4,7.9,0.9,7.9,0.9s1.9-1.4-0.2-3.2c-2.1-1.7-8-3.9-8-6.2
	c0,0,6.5-1.6,13.1,1.7c6.6,3.3,8.8,4.3,9.9,3.5l0.2,8.7c0,0-0.6,2.7,1.9,3c1.5,0.2,2.6,0.3,4.3,1.2V295.6L346.2,295.6z M346.2,315.5
	v14.1c-1.5,1.5-3.1,4.8-4.9,8.2c-2.2,4.2,2.2,8.3,3.5,10.5c0.4,0.7,0.8,1.4,1.3,2v53.9c-0.3-0.1-0.6-0.3-0.9-0.5
	c-7.1-3.6-4.4-10.9-2.8-14.7c1.6-3.8,2.4-5.8,0.8-7.9c-1.6-2.1,0.5-7.3,0.5-12.2c0-4.9,0.9-6-2.7-10.4c-3.6-4.4-9.2-13.9-9.2-13.9
	s-2.2,0.6-9.8,7.3c-7.6,6.6-8.8,18.6-10.3,30.3c-1.4,11.7-10.1,12.5-18.2,12.5c-0.8,0-1.7,0-2.6,0v-8.2c2.2-0.3,4.9-0.9,7.8-1.6
	c6.8-1.6,7.7-5.7,9.2-20.7c1.4-15,21.1-27.5,25.6-30.1c4.4-2.7,3.3-8.7,5.4-15.9c2.1-7.3,6.5-3.2,6.5-3.2
	C345.7,315.2,345.9,315.4,346.2,315.5L346.2,315.5z M291.1,342.5c2.5,0.8,4.9,0.8,5.4-0.7c0.9-2.6-1.8-3.1-4.1-6
	c-0.5-0.6-1-1.4-1.3-2.1V342.5L291.1,342.5z M291.1,271.2l1.8,0c0,0,1.6-0.3,1.4,1.9l3-0.2c0,0,0.5-4.6-4.1-6
	c-0.7-0.2-1.4-0.4-2.1-0.5V271.2L291.1,271.2z M291.1,262.5c2.7-0.1,5.4-0.9,5.7-2.4c0.5-2.1,1.1-3.6,1.1-3.6s4.1,4.3,5.8,11.4
	c0,0,2.5,5.2,5.4,5.7c0,0,2.2,0.3,0.5-6.8c-1.7-6.8-10.8-26.2-18.5-37.4V262.5L291.1,262.5z M291.1,156.9v-7.4c5,3,2.9,6,2.9,6
	C293.6,156.1,292.5,156.6,291.1,156.9z M291.1,149.5v7.4c-2.9,0.6-7.3,0.4-9.3-1.1c-2.6-1.9-3.5-1.9-6.1-1.9v-9.5
	c5.6,1.3,10.2,2.8,12.8,3.8C289.5,148.6,290.3,149.1,291.1,149.5L291.1,149.5z M291.1,166.1v10.1c-4.2-0.1-9.4-0.1-15.4,0.1v-9.4
	C281.6,166.6,287.1,166.3,291.1,166.1L291.1,166.1z M291.1,194v27.7c-5.5-6.9-11.9-14.3-15.4-18.4v-14.8
	C280.7,190.6,285.8,192.4,291.1,194L291.1,194z M291.1,229.4c-0.3-0.4-0.6-0.9-0.9-1.3c-4.6-6.4-10.5-13.8-14.5-18.9v20
	c1.1,0.4,2.4,0.9,4.2,1.6c6.7,2.7,8.6,7.2,10.2,11.9c1.6,4.8-0.2,9.9-3.7,10.5c-3.4,0.6-8-5.5-10.7-9.5v41.2c1,0.1,2,0,3.3-0.8
	c2.2-1.3,7.6-2.8,12.1-2.9v-5.3c-3.9-0.2-5.5-0.5-5-1.7c0.6-1.7,0.3-2.8,0.3-2.8l4.7-0.1v-4.8c-3.7-0.5-6.6,0.5-6.6,0.5
	s-2.5-0.6-2.1-3.2c0.5-2.5,1.6-2.8,5.1-1.7c1.1,0.3,2.4,0.5,3.6,0.5V229.4L291.1,229.4z M291.1,285.7v31c-1.3-0.7-2.6-1.5-3.8-2.4
	c-11.7-8.8-10.6-17.5-8.8-23.2C279.5,287.7,285.9,286.3,291.1,285.7L291.1,285.7z M291.1,333.7v8.8c-1.9-0.7-3.8-1.8-4.7-3.3
	c-2.1-3.4-0.3-6.6,0.4-8.9c0.8-2.7,2.1-2.3,2.7-0.2C289.9,331,290.4,332.4,291.1,333.7L291.1,333.7z M291.1,386.6v8.2
	c-5.4,0-11.2-0.4-15.4-2.6v-15.5c0.4,1.1,0.7,2,1.1,2.7c1.4,2.8,1.9,1.6,3-1.9c1.1-3.5,6-1.7,7.7,0.9c1.7,2.7-0.6,4.9-3.6,4.6
	c-3-0.3-1.3,1.6,0.8,3.2C285.8,387,288.1,387,291.1,386.6L291.1,386.6z M275.7,363.6c2.4-6.5,10.1-19.2,6-22.4c-2.7-2.1-4.6-0.9-6,1
	V363.6L275.7,363.6z M275.7,324.6c1.1-2.1,2.1-3.7,2.7-4.4c2.1-2.4,3.3-7.7,0.2-12.2c-0.8-1.1-1.8-2.2-2.8-3.3V324.6L275.7,324.6z
	 M275.7,162.7c3.2-0.5,4-1.3,3.5-2.7c-0.8-2.1-1.3-3.1-3.5-3.1V162.7z M263.2,156.1c0,0,2.1-1.9-2.4-2.4c-1.1-0.1-2.1-0.3-2.9-0.4
	v-11.6c6.4,0.4,12.5,1.4,17.8,2.6v9.5c-0.4,0-0.8,0-1.3,0c-3.6,0-3.6,0.6-5.8-1.7c-2.2-2.4-2.7-1.9-3,0.8c-0.3,2.7,5.2,4.4,8.7,3.9
	c0.6-0.1,1-0.1,1.4-0.1v5.9c-2.4,0.3-6.1,0.5-11.7,0.6c-2.2,0-4.2-0.1-6.1-0.3v-4.3C261.5,159.7,263.9,160,263.2,156.1L263.2,156.1z
	 M275.7,166.9v9.4c-5.4,0.1-11.4,0.3-17.8,0.5v-9.6C263.7,167.2,269.9,167.1,275.7,166.9L275.7,166.9z M275.7,188.5v14.8
	c-1.7-1.9-2.7-3.1-2.7-3.1c-2.7-0.8-2.1,3.2-2.1,3.2s1.9,2.4,4.8,5.9v20c-3.1-1.1-4-0.8-4.5,0.1c0.1,0.4-1.5,1.5,0.9,2.5
	c2.4,1,1.6,0.5,1.3,1.8c-0.3,1.3-3.2,1.1-5.6,1.1c-2.4,0-7-1.6-7,2.9c0,4.5,0.3,3.8,4.3,4c4,0.2,6.2-0.8,6.2-0.8s1.6-1.1,4.3,2.9
	l0.1,0.2v41.2c-1.5-0.2-2.9-1.2-5.2-2.1c-3.8-1.4-6.9,0.3-6.9,0.3s0.8,10.9,3,13.3c1.7,1.8,5.9,5,9.2,8.4v19.8
	c-2.9,5.4-6.8,13.9-7.6,17.3c-1.1,4.7-0.8,11.4,0.8,11.2c1.6-0.2,4.1-4.9,5.2-7.7c0.4-1,0.9-2.1,1.6-3.1v21.4l0,0
	c-1.8,4.9-1.1,9.7,0,12.9v15.5c-1.7-0.9-3.1-2.2-4.1-3.8c-3.9-6.5-4.9-17.5-4.9-17.5s-0.6-0.3-3.9,1.1c-3.3,1.4-2.7,6-1.6,11.4
	c0.9,4.3-1.3,4.8-3.2,5.4v-29.5l3.9-0.2c0,0-1.6-5.2-3.9-9.4v-34.3c3.9-3.9,6-5.5,5.7-8.5c-0.5-4.3-4-6.8-4.9-10.2
	c-0.2-0.6-0.4-1.5-0.7-2.5V187c4.1-2.3,7.9-2.7,15.8,0.7C274.4,188,275,188.2,275.7,188.5z M257.9,153.3c-2.4-0.4-3.7-0.7-4.8,1.2
	c-1.6,2.5-1.4,1.9,3.2,3.5c0.6,0.2,1.1,0.4,1.7,0.6v4.3c-9.6-1.1-15.7-5-18.3-7.4c-3-2.8-5.5-3.8-13.9,1.9c-1.4,1-2.2,1.8-2.4,2.5
	V150c2.1-1.3,4.7-2.7,7.7-4.1c8.1-3.8,17.7-4.6,26.8-4.1V153.3L257.9,153.3z M257.9,167.1c-3.6-0.1-7-0.3-10-0.7
	c-12.2-1.6-23.5-2.7-24.5-5.6v13.1c5,2,12.5,3.3,23.4,3.1c3.8-0.1,7.5-0.2,11.1-0.3V167.1L257.9,167.1z M257.9,187v107
	c-1.5-4.8-4.8-12.8-10.1-10.7c-6.4,2.5-5.3,1.9-7,5.6c-1.8,3.7-2.2,6.8-7,8.3c-3.9,1.2-7.6,0.4-10.4-1.3v-13.4c0.2,0,0.4,0,0.6,0
	c10,0.2,9.5-0.5,9.5-0.5l-1.9-3.7c0,0-4.5-1.8-8.2-8.6v-58.3c4.2-2.3,7.6-3.9,9.2-4.7c5.1-2.5,7.3-4.1,9.6-6.8
	c2.4-2.7,3.3-4.6,10.4-9.5C254.6,189.1,256.3,187.9,257.9,187L257.9,187z M257.9,315.2v34.3c-0.5-0.9-1.1-1.8-1.6-2.5
	c-3.2-4.1-11.9-16.1-4.3-25.3C254.2,318.9,256.2,316.9,257.9,315.2L257.9,315.2z M257.9,359.1v29.5c-0.5,0.1-1,0.3-1.4,0.5
	c-2.1,0.9-0.2,3.8,1.1,9.3c1.3,5.5-3.5,6-5.4,6.2c-1.9,0.2-5.4,1.3-11.7,1.7c-6.3,0.5-5.4-1.7-4.4-3.5c0.9-1.7,2.2-1.9,1.4-3.3
	c-0.8-1.4-1.4-3.9-3.3,0.3c-1.9,4.3-4.3,2.5-4.3,2.5c-4.3-8,3.5-12.5,8.8-19.6c5.4-7.1,6.2-9.9,7.6-13.3c1.4-3.3-0.6-2.4-0.6-2.4
	c-4.7,1.3-6.2,4.7-6.2,4.7c-4.6,12.2-7.7,12.2-12.8,16.9c-1.2,1.1-2.4,2.7-3.5,4.7v-13.3c0.5,0.5,1.3,0.7,2,1
	c1.9,0.8,9.1-4.5,5.6-8.8c0,0-3.3-2.4-6.5,2.5c-0.5,0.7-0.8,1.3-1,1.9v-16.3L257.9,359.1L257.9,359.1z M223.4,342.2v-9.7
	c4.9,0.6,9.1,2,10,5.1c0,0,1.9,3.3-5.3,4.3C226,342.2,224.5,342.2,223.4,342.2z M223.4,150v9.9c-0.1,0.3-0.1,0.6,0,0.8v13.1
	c-5.8-2.2-8.2-5.3-8.8-7.6C213.6,162.5,211.8,157.2,223.4,150L223.4,150z M223.4,211.5v58.3c-1.4-2.5-2.7-5.8-3.6-9.9l-3-0.2
	l0.2,8.3c0,0-5.7,3.8-3,10.5c0,0,0,3.7,9.5,4v13.4c-0.6-0.4-1.3-0.8-1.8-1.3c-3-2.5-6.8-3.3-9.2,1.9c-2.4,5.3-2.4,7.8-6.2,8.9
	c-3.8,1.1-6.7-2.2-6.7-2.2s-1.9-4-4.1-1.3c-2.2,2.7-4,4.1-4,8.8c0,4.6-1,6.2-1,6.2s-8.6,21.5-9.7,32.6c0,0-0.8,7.5,1.6,9.1
	c2.4,1.6,3.7-0.8,5.9-4c2.2-3.2,11.9-17.3,11.9-17.3s-0.3-3.7,4.5-4.3c2.8-0.4,11.7-1.3,18.8-0.5v9.7c-2.7,0.1-2.9,0.2-2.9,4.1
	c0,5.6,2.7,14.2,2.7,14.2l0.2,0v16.3c-0.8,1.8-0.6,2.7,0,3.3v13.3c-3.5,6.1-6.5,15.2-9.1,22.2c-3.5,9.2-9,9.2-14,10.1
	c-5.1,0.9-5.2,0.3-5.1-3.2c0.2-3.5,0.8-2.1-0.3-3.8c-1.1-1.7-2.5-0.9-2.5,0.6c0,1.6-1.3,1.6-3.2,2.1c-1.9,0.5-3.3,1.3-3.5-4.3
	c-0.2-5.5,0.5-10.1,3.2-14.5c2.7-4.4,13.3-11.4,17.8-14.7c4.6-3.3,5.2-5.5,5.2-7.1c0-1.6,0-6.6,0.8-8.2c0.8-1.6-0.6-2.7-0.6-2.7
	s-0.8-16.1-1.4-20.5c-0.6-4.4,0.5-4.3-1.6-5.2c-2.1-0.9-2.7,1.3-2.7,1.3c-6.8,8.8-16.9,29.2-16.9,29.2c0.8,17.1-6.1,21.1-10.3,24.2
	v-9.1c0.9-0.7,1.8-1.7,2.6-3.5c2.2-5.3,0.8-5.4,0.8-5.4l-1.8-1.9c0,0-0.7,0.1-1.6,0.5v-88.9c0.7-1.8,1.6-3.3,2.8-5.8
	c3-5.8,8.2-12.9,11-17.4c2.8-4.4,4.1-7.3,3-15.5c-1.1-8.2,0.9-17.5,0.9-17.5C200.5,225.2,213.9,216.7,223.4,211.5z M179.2,290.6
	v88.9c-2,1-4.9,3.7-3.5,11.3c0,0,1.7,0.3,3.5-0.9v9.1l-0.3,0.2c-4.1,3.2-2.5,2.4-2.8,5.1c-0.3,2.7,0.5,7.4,0.3,13.7
	c-0.2,6.3-2.1,5.5-3.8,7.9c-1.7,2.4-1.4,7.4-1.4,10.3c0,2.8-1.3,3.3-1.3,3.3c-5.7,2.4-17.7,1.7-17.7,1.7l0.6-6.2l-0.9-3.2l-2.2-0.2
	c0,0-0.3,3.3-0.3,6.6c0,3.3-2.4,4.3-3.6,0.9c-1.3-3.3-3.8-3.9-0.6-11.5c3.2-7.6,7.6-9.8,7.6-9.8c-0.3-11,13.9-20.4,13.9-20.4
	c-0.6-5.1-1.9-15,0.3-18.8c2.2-3.8,4.4-6.6,5.1-11.4c1-4.6-0.4-11.2-1-17.2c-0.8-6.9-0.3-14.8,2.4-18.5c2.7-3.8,3.6-12,3.5-13.4
	c-0.2-1.4-2.2-6.8-0.3-16.9C177.6,295.6,178.3,292.9,179.2,290.6z"/>
<path class="st0" d="M257,0c81.8,0.1,163.9,12.3,220.9,36.6c16.3,6.9,25.5,16.6,30.5,28c4.9,11,5.7,23.2,5.5,36
	c-2.3,119.7-28.3,211-67.2,284.3c-38.9,73.3-90.7,128.4-144.6,176.1c-15.6,13.8-30.2,20.7-45.1,20.7v-15c11.1,0,22.5-5.6,35.2-16.9
	c52.7-46.6,103.3-100.5,141.3-171.9c38-71.4,63.3-160.5,65.5-277.5c0.2-10.9-0.4-21.1-4.2-29.7c-3.6-8.1-10.4-15.1-22.7-20.4
	C416.8,26.8,336.8,15,257,14.9V0z M211.9,561C158,513.4,106.2,458.2,67.2,384.9C28.3,311.6,2.3,220.4,0,100.6
	c-0.2-12.8,0.6-24.9,5.5-35.9c5.1-11.4,14.2-21,30.4-28.1l0.1,0l0,0l0,0C73.5,20.3,122.5,9.4,175.2,4c17.1-1.7,34.6-2.9,52.4-3.5
	C237.3,0.2,247.1,0,257,0v14.9c-9.7,0-19.3,0.1-28.9,0.5c-17.3,0.6-34.5,1.8-51.3,3.5C125.4,24.2,78,34.6,42,50.3l-0.1,0l0,0l0,0
	c-12.3,5.4-19.1,12.4-22.7,20.5c-3.8,8.5-4.4,18.7-4.2,29.6c2.2,117,27.6,206.1,65.5,277.5c38,71.4,88.6,125.3,141.3,171.9
	c12.8,11.3,24.2,16.9,35.2,16.9h0v15h0C242,581.7,227.5,574.8,211.9,561z"/>
</svg>
