<?xml version="1.0" encoding="utf-8"?>
<!-- Generator: Adobe Illustrator 25.0.1, SVG Export Plug-In . SVG Version: 6.00 Build 0)  -->
<svg version="1.1" id="Layer_1" xmlns="http://www.w3.org/2000/svg" xmlns:xlink="http://www.w3.org/1999/xlink" x="0px" y="0px"
	 viewBox="0 0 489.4 92.7" style="enable-background:new 0 0 489.4 92.7;" xml:space="preserve">
<style type="text/css">
	.st0{fill:#F5F7F7;}
</style>
<g id="surface1">
	<path class="st0" d="M0,2.4l30.4,90.4h24.2l9.8-30.4l11.6,30.4h25.1l19.7-71.6l-25.9-3.6l-8.1,26.8L75.2,14l-23.3-3.6l-9.8,31.3
		l-11.6-34L0,2.4"/>
	<path class="st0" d="M126.2,22v70.7h23.3V69.5h18.8v23.3h23.3V31.9l-23.3-3.6v22.4l-18.8-0.9V25.6L126.2,22"/>
	<path class="st0" d="M198.6,32.8v59.9h42.1V79.3h-17.9v-7.2l17.9-0.9V58.7l-17.9-1.8v-7.2l17.9,0.9V39L198.6,32.8"/>
	<path class="st0" d="M247.9,39v53.7h54.6v-17h-33.1V35.5L247.9,39"/>
	<path class="st0" d="M309.6,30.1v62.6h76.1v-17h-51v-8.9l51-2.7V48.9l-51,0.9v-5.4l51-6.3V17.6L309.6,30.1"/>
	<path class="st0" d="M392.8,16.7v76.1h27.7V55.2l40.3,37.6h28.6V1.5l-29.5,4.5v46.5l-41.2-39.4L392.8,16.7"/>
</g>
</svg>
