<?xml version="1.0" encoding="utf-8"?>
<!-- Generator: Adobe Illustrator 24.1.2, SVG Export Plug-In . SVG Version: 6.00 Build 0)  -->
<svg version="1.1" id="Layer_1" xmlns="http://www.w3.org/2000/svg" xmlns:xlink="http://www.w3.org/1999/xlink" x="0px" y="0px"
	 viewBox="0 0 2408.1 2408.1" style="enable-background:new 0 0 2408.1 2408.1;" xml:space="preserve">
<style type="text/css">
	.st0{fill-rule:evenodd;clip-rule:evenodd;fill:#3b4351;}
	.st1{fill:#3b4351;}
</style>
<path class="st0" d="M2055.4,352.7C1828.1,125.2,1525.7,0,1204.1,0S580,125.2,352.7,352.7S0,882.5,0,1204.1s125.2,624,352.7,851.4
	s529.7,352.7,851.3,352.7s624-125.2,851.4-352.7s352.7-529.8,352.7-851.4S2282.9,580,2055.4,352.7z M1204.1,2347.7
	c-631.6,0-1143.7-512-1143.7-1143.7S572.4,60.4,1204.1,60.4s1143.7,512,1143.7,1143.7S1835.7,2347.7,1204.1,2347.7z"/>
<path class="st0" d="M2165.3,1092.6l-663.6-714.3c-50.7-50.7-157-126.6-304-126.6s-253.3,76-304,126.6l-663.5,714.3
	c-118.5,143-140.2,311,5.1,466.1c174.3,186.1,673.7,288.8,962.5,288.8s789.8-101.2,962.5-288.8
	C2321.8,1383.2,2255.2,1215.2,2165.3,1092.6z M2070.8,1511.3c-174.6,151.6-611.1,261.9-873,261.9s-698.4-110.3-873-261.9
	c-157.7-136.9-119.5-307.8-4.6-422.7L922,440.7c46-45.9,142.5-114.9,275.7-114.9s229.7,68.9,275.7,114.9l601.9,647.9
	C2190.2,1203.5,2228.4,1374.4,2070.8,1511.3z"/>
<path class="st1" d="M1319.5,1282.8c-25.3,3.4-103.4,6.9-133.3,6.9s-108-3.4-133.2-6.9l-20.7,45.9c-8,17.2,13.8,25.3,23,16.1
	s59.7-34.5,83.9-14.9v219.4c0,14.9-14.4,27.6-24.7,27.6s-18.9,6.9-18.9,14.9s4.6,13.8,21.8,14.9c34.5,2.3,114.9,2.3,137.8,0
	c17.2,0,21.8-6.9,21.8-14.9s-8.6-14.9-18.9-14.9s-24.7-12.6-24.7-27.6v-219.4c24.1-19.5,74.7,5.8,83.8,14.9s31,1.2,23-16.1
	L1319.5,1282.8z"/>
<path class="st1" d="M880.7,1240.2L880.7,1240.2c-59.7-32.2-172.3-40.2-227.4,59.7c-57.6,104.4-18.4,188.4,82.7,236.6
	c131.7,62.9,205.6-28.7,224-70.1C989.6,1399.8,1004.7,1306.9,880.7,1240.2z M873.8,1428.6c-43.7,80.4-91.9,82.7-131,62
	c-38.3-20.3-46-87.3-11.5-151.6s79.3-85,127.5-63.2l0,0C901.4,1302.3,917.4,1348.2,873.8,1428.6z"/>
<path class="st1" d="M1711.2,1395.3l-40.2-137.9c-5.7-19.5-1.1-25.3,4.6-33.3s4.6-35.6-21.8-26.4c-16.1,5.7-43.7,13.8-54,17.2
	s-19.5,25.3-1.1,28.7s24.1,4.6,28.7,21.8l40.2,137.8c10.3,36.8,6.9,78.1-43.7,96.5s-90.8-14.9-97.7-37.9l-40.3-136.7
	c-4.6-19.5-2.9-32.2,8.6-39s13.8-36.8-9.2-32.2s-101.7,25.3-114.3,24.1l0,0c-14.9,3.4-16.6,15.5-14.3,21.2s9.8,9.2,20.1,10.3
	s17.2,8.6,19.5,19l49.4,168.9c9.2,33.3,71.2,95.3,190.7,50.5S1717,1412.6,1711.2,1395.3z"/>
<path class="st1" d="M1487.2,1035.8L1487.2,1035.8c-29.9,25.3-114.8,89.6-229.7,89.6c-104.6,0-289.2-28.6-321.4-252.3l33.4-51h54.3
	c-0.2,3.3-0.4,6.6-0.4,10c-0.2,86.7,51.8,139.8,115.7,157.4v7.2c0,24.1-16.1,29.9-29.9,31s-14.9,25.3,4.6,25.3h209.1
	c67.8,0,140.1-37.9,139-122.9s-64.3-111.4-98.8-127.5c18.4-5.7,62-23,62-79.2s-58.6-93-108-93h-291.7c-14.9,0-15.5,6.3-15.5,12.1
	c0,6.9,5.7,8.6,8,12.1s2.9,12.1-4,22.4l-82.7,126.4v-1.8c0-276.8,241.2-278,275.7-280.3s159.7,12.6,255,68.9
	c27.6,20.7,27.6-2.3,23-9.2c-9.2-20.7-34.5-62-45.9-78.1s-34.5-18.4-41.4-9.2s-16.1,20.7-41.3,11.5s-98.8-26.4-187.2-26.4
	c-75.8,0-328.5,66.6-329.7,320.5c-0.2,44.4,5.2,84.8,15.3,121.2l-41.7,63.8c-27.6,43.7-65.5,44.8-82.7,44.8s-21.8,23-3.5,24.1h132.1
	c18,0,14.9-23.5,3.5-27.6c-8.7-3.1-17.2-13.2-8.6-26.4l18.7-28.6c66.1,150.3,220.7,217,366.7,210.1
	c121.8-4.6,222.8-52.8,280.3-119.5C1542.3,1035.8,1517.1,1010.5,1487.2,1035.8z M1139.2,941.5c-30.8-14.6-65.8-45.3-66.3-107.2
	c0-4.1,0-8.2,0.2-12.2h66.1V941.5z M1139.2,783h-59.6c11.6-37.6,36.4-56.4,59.6-65.9V783z M1207,664.6h84.4
	c32.7-0.4,59.6,25.8,60.1,58.5c0.4,32.7-25.8,59.6-58.5,60.1c-0.5,0-1,0-1.5,0L1207,783V664.6z M1207,822.1h55.1
	c35.6,0,120.6,16.1,120.6,101.1s-83.8,102.2-116,101.1c-32.2-1.1-59.7-2.3-59.7-33.3L1207,822.1z M1072.6,664.7h49.4
	c17.2,0,17.2,17.2,17.2,26.4v1.9c-36.9,9.9-87.7,35.7-107.4,90H995L1072.6,664.7z"/>
<path class="st1" d="M617,1130.5c-12.1-6.3-93.7-64.3-103.4-73.5l0,0c-8-9.8-17.2-9.2-23-2.3s-2.3,14.9,4.6,23s12.6,25.8,2.9,36.8
	l-128,166.6c-8.6,9.8-25.3,10.3-36.8,1.7s-32.1,6.3-14.9,19s163.1,119.4,213.6,141.8l52.8-48.8c7.5-7.5-0.5-24.7-13.2-16.1
	c-41.3,28.2-108.6,13.8-131-49.4l124.6-162.5c5.2-6.9,18.9-21.8,37.9-13.8c10.9,4.6,15.5,0.6,18.4-4S624.1,1134.2,617,1130.5z"/>
<polygon class="st1" points="1929.5,1081.7 1929.5,1081.7 1929.5,1081.7 "/>
<path class="st1" d="M2059.2,1236.8c-34.4-74.7-105.7-51.7-120.6-47.1s-134.4,43.7-143.6,16.1s23-58.6,52.8-66.6s82.7-9.2,99.9-4.6
	s24.1-6.9,15-19.5l-29.9-32.2l-3.4-1.2c-14.9,8-37.9,10.3-57.4,14.9s-57.4,16.1-81.6,31s-85.1,72.4-49.5,142.4
	c19.5,34.5,63.2,56.3,157.4,27.6c33.3-10.3,87.3-26.4,97.6-3.4c10.3,23-14.9,58.6-54,74.7s-95.3,12.6-119.5,0
	c-11.5-6.9-27.6,1.1-18.4,14.9l34.4,45.9c41.4-1.1,108-13.8,144.7-35.6C2020.1,1372.3,2093.7,1311.4,2059.2,1236.8z"/>
</svg>
