<?xml version="1.0" encoding="utf-8"?>
<!-- Generator: Adobe Illustrator 24.1.2, SVG Export Plug-In . SVG Version: 6.00 Build 0)  -->
<svg version="1.1" id="Layer_1" xmlns="http://www.w3.org/2000/svg" xmlns:xlink="http://www.w3.org/1999/xlink" x="0px" y="0px"
	 viewBox="0 0 1813.5 1813.5" style="enable-background:new 0 0 1813.5 1813.5;" xml:space="preserve">
<style type="text/css">
	.st0{fill-rule:evenodd;clip-rule:evenodd;fill:#3b4351;}
</style>
<path class="st0" d="M906.7,0c498.9,0,906.8,407.8,906.8,907.6c0,498.9-407.8,905.9-906.8,905.9S0,1406.5,0,907.6
	C0,407.8,407.8,0,906.7,0L906.7,0z M299.7,419.7l325.2,843.8l119.2-308.2h312.5l119.2,308.2l328.7-854c-58-70-127.7-129.3-206-175.4
	l-228.2,628.3H748.3l-229-630.9C435,280.1,361,344,299.7,419.7L299.7,419.7z M1635.6,631.7l-370.4,966.4
	c248.6-130.3,419.7-390.8,419.7-690.5C1684.9,810.6,1667.9,717.7,1635.6,631.7z M1103.4,1661.1l-2.5-19.6l-201-521.1l-200.9,521.1
	l-0.8,16.2c66.4,18.7,136.2,28.1,208.6,28.1C973,1685.9,1039.1,1677.6,1103.4,1661.1z M533,1589.6L172,648.8
	c-28.9,80.9-44.3,167.7-44.3,258.8C127.7,1200.5,291.2,1457.6,533,1589.6L533,1589.6z M906.7,128.6c68.1,0,135.4,8.5,199.2,25.5
	L909.3,698.2L711.8,153.3C775.5,136.8,841,128.5,906.7,128.6L906.7,128.6z"/>
</svg>
