<?xml version="1.0" encoding="utf-8"?>
<!-- Generator: Adobe Illustrator 24.1.2, SVG Export Plug-In . SVG Version: 6.00 Build 0)  -->
<svg version="1.1"
	 id="Layer_1" shape-rendering="geometricPrecision" text-rendering="geometricPrecision" image-rendering="optimizeQuality"
	 xmlns="http://www.w3.org/2000/svg" xmlns:xlink="http://www.w3.org/1999/xlink" x="0px" y="0px" viewBox="0 0 492 405"
	 style="enable-background:new 0 0 492 405;" xml:space="preserve">
<style type="text/css">
	.st0{fill-rule:evenodd;clip-rule:evenodd;fill:#3b4351;}
</style>
<path id="Layer_x0020_1" class="st0" d="M246,292c22,7,21-78,103-98c61-15,80-23,88-42l9-19c0,0-4,85-17,128c-13,42-39,109-183,111
	c-145-1-171-68-183-111c-13-43-17-128-17-128l9,19c9,19,27,26,88,42C225,214,224,299,246,292z M178,400c20,4,44,5,68,5s48-2,68-5
	c41-6,78-17,101-34c54-38,77-103,77-173S454,37,371,14c-18-5-37-8-56-10c0,0-8-1-20-2c-17-1-34-2-49-2s-32,0-49,2c-13,1-20,2-20,2
	c-19,2-39,5-56,10C39,36,0,123,0,193s24,134,77,173C100,382,137,394,178,400z M239,30h14c21,0,63,3,108,19c64,23,53,53,53,53
	s-108,42-140,79c-20,23-26,36-28,43c-2-7-8-20-28-43c-32-37-140-79-140-79s-11-30,53-53C176,33,218,30,239,30z"/>
</svg>
