<?xml version="1.0" encoding="utf-8"?>
<!-- Generator: Adobe Illustrator 24.1.2, SVG Export Plug-In . SVG Version: 6.00 Build 0)  -->
<svg version="1.1" id="Layer_1" xmlns="http://www.w3.org/2000/svg" xmlns:xlink="http://www.w3.org/1999/xlink" x="0px" y="0px"
	 viewBox="0 0 24 20" style="enable-background:new 0 0 24 20;" xml:space="preserve">
<style type="text/css">
	.st0{fill:#3b4351;}
</style>
<path id="surface1" class="st0" d="M12,0c-0.6,0-1.2,0-1.8,0H10C9.5,0,8.9,0,8.4,0.1c-0.6,0-1.2,0.1-1.8,0.1C6,0.3,5.4,0.3,4.8,0.4
	C3.6,0.6,2.3,0.9,1.3,1.8c-1,1.1-1.2,2.6-1.3,4C0,5.9,0,6,0,6.2c0,0.3,0,0.6,0,0.9v0.3C0,7.7,0,8,0,8.3c0,0.1,0,0.1,0,0.2
	c0,0.8,0.1,1.5,0.1,2.3c0,0.7,0.1,1.5,0.2,2.2c0,0.4,0.1,0.8,0.2,1.2c0.1,0.5,0.2,1,0.3,1.4c0.2,0.7,0.4,1.5,0.8,2.1s1,1,1.6,1.3
	c0.8,0.4,1.7,0.5,2.6,0.6c0.6,0.1,1.2,0.1,1.8,0.2c0.1,0,0.2,0,0.3,0c1.4,0.1,2.7,0.1,4.1,0.2c1.4,0,2.7-0.1,4.1-0.2
	c0.1,0,0.2,0,0.3,0c0.6,0,1.2-0.1,1.8-0.2c0.9-0.1,1.8-0.2,2.6-0.6c0.6-0.3,1.2-0.7,1.6-1.3c0.4-0.6,0.7-1.4,0.8-2.1
	c0.1-0.5,0.2-1,0.3-1.4c0.1-0.4,0.1-0.8,0.2-1.2c0.1-0.8,0.2-1.5,0.2-2.2c0-0.8,0.1-1.5,0.1-2.2c0-0.1,0-0.1,0-0.2
	c0-0.3,0-0.6,0-0.9V7.2c0-0.3,0-0.6,0-0.9c0-0.1,0-0.2,0-0.4c-0.1-1.4-0.3-3-1.3-4c-0.9-1-2.3-1.2-3.6-1.4c-0.6-0.1-1.2-0.1-1.8-0.2
	c-0.6-0.1-1.2-0.1-1.8-0.1c-0.5,0-1.1,0-1.6-0.1h-0.2C13.2,0,12.6,0,12,0z M12,2c1.7,0,3.4,0.1,5,0.2c-0.5,1.8-1,4-1.5,5.8
	c-0.4,1.5-0.9,3.5-2.7,3.7c-0.3,0-0.5,0.1-0.8,0.1s-0.6,0-0.8-0.1C9.4,11.5,8.9,9.5,8.5,8C8,6.3,7.5,4.1,7,2.2C8.6,2.1,10.3,2,12,2z
	 M4.7,2.5L4.7,2.5c0,1.6,0.1,3.1,0.2,4.6c0.2,3.5,0.5,7,0.9,10.5c-0.5-0.1-1-0.2-1.4-0.4c-0.5-0.2-0.8-0.5-1.1-0.8
	c-0.3-0.4-0.5-1-0.6-1.6c-0.3-1.3-0.5-2.7-0.6-4.2C2,9.2,1.9,7.7,2,6.3c0.1-1.2,0.3-2.3,0.9-3C3.4,2.9,4,2.7,4.7,2.5z M19.3,2.5
	c0.7,0.2,1.3,0.4,1.8,0.8C21.7,3.9,22,5,22,6.3c0.1,1.4,0,2.9-0.1,4.3s-0.2,2.8-0.6,4.2c-0.2,0.6-0.3,1.2-0.6,1.6
	c-0.2,0.4-0.6,0.6-1.1,0.8c-0.4,0.2-0.9,0.3-1.4,0.4c0.4-3.5,0.7-7,0.9-10.5C19.2,5.6,19.3,4.1,19.3,2.5L19.3,2.5L19.3,2.5z
	 M12,14.2c0.4,0,0.8,0,1.2,0.1c1.1,0.2,1.2,0.3,1.6,1.8c0,0,0.3,1.1,0.5,1.8C14.2,18,13.1,18,12,18s-2.2,0-3.3-0.1
	c0.2-0.7,0.5-1.8,0.5-1.8c0.4-1.5,0.5-1.6,1.6-1.8C11.2,14.3,11.6,14.3,12,14.2z"/>
</svg>
