<?xml version="1.0" encoding="utf-8"?>
<!-- Generator: Adobe Illustrator 24.1.2, SVG Export Plug-In . SVG Version: 6.00 Build 0)  -->
<svg version="1.1" id="Layer_1" xmlns="http://www.w3.org/2000/svg" xmlns:xlink="http://www.w3.org/1999/xlink" x="0px" y="0px"
	 viewBox="0 0 2055.1 1981.8" style="enable-background:new 0 0 2055.1 1981.8;" xml:space="preserve">
<style type="text/css">
	.st0{fill:#F5F7F7;}
</style>
<path class="st0" d="M1320.8,1762.4c64.6-7.7,144.4,67.2,239.8,2.6c12.6-8.4,56-29,78.2-41.8c-37,3.2-89.1-7.4-155.6,0.6
	C1435.9,1729.2,1376.1,1737.6,1320.8,1762.4z M1273.2,1747.9c103.5-25.1,196.8-110,227.6-196.4c-49.9,35.4-77.5,25.1-139.6,82.9
	C1338.8,1655,1312.4,1717.7,1273.2,1747.9L1273.2,1747.9z M614.5,82.1c27,0,53.7-1.3,74.6-4.8c69.4-11.9,113.2-56.6,140.2-75.2
	C716.4-9.5,657.9,29.1,614.5,82.1z M514.1,165.7c22.2,1.6,44,2.2,61.1,0.3c57.6-6.1,101.3-38.6,119-54.6
	C621.2,97.9,556.2,120.4,514.1,165.7z M290,298.2c3.9-4.8,33.8-31.2,50.8-45.7c60.8-51.4,83-114.1,93.6-139.9
	C345,154.8,305.5,214.6,290,298.2z M373.9,255.1c21.2,0,42.1-1,58.5-3.9c54.7-9.6,94.5-43.7,110.3-60.1
	C472,183.1,415.1,204.9,373.9,255.1L373.9,255.1z M260.8,387.9c20.6-10,39.9-12.2,57.6-18.3c58.8-19.6,95.8-61.7,121.2-84.6
	C341.1,288.5,301.9,319.1,260.8,387.9z M450.8,164.4c89.4-28.3,124.1-74.9,160.1-142.1C513.8,53.5,479.4,88.5,450.8,164.4z
	 M119.9,782c3.2-4.2,13.8-24.7,26.4-40.2c42.8-52.4,73-120.6,88.4-176.8C159.8,608.4,112.9,675,119.9,782z M157.9,1270.1
	c-23.8-81-85.5-158.2-157.9-223.8c2.9,9.7,9,36,12.5,62.7C23.8,1200.7,119,1238.6,157.9,1270.1L157.9,1270.1z M402.9,1534.4
	c-12.2-25.7-22.2-76.5-44.4-119c-24.1-45.7-44-60.1-70.4-101.3C269.5,1424.1,348.2,1491,402.9,1534.4L402.9,1534.4z M578.1,1656.3
	c-27.3-28.3-50.5-97.4-76.8-125.1c-48.9-52.1-60.5-46.3-100.3-94.2C420.9,1543.4,478.7,1619,578.1,1656.3L578.1,1656.3z
	 M262.4,1444.7c-39.5-76.5-119-140.8-204.1-192.9c4.8,9.3,19.6,36.3,30.5,61.7C119,1381.7,191.6,1419.9,262.4,1444.7z M562,1691.6
	c-109.6-77.5-222.2-79.1-290.7-93.9c8.4,6.1,32.5,27,53.1,45.3C393.2,1704.5,482.6,1675.9,562,1691.6L562,1691.6z M420.2,1592.3
	c-82.3-93.6-188.4-126-254-146.9c6.8,7.4,24.7,33.8,40.5,54.3C268.5,1580.4,365.9,1571.4,420.2,1592.3L420.2,1592.3z M258.5,1377.5
	c-2.2-23.1-8-45.3-6.8-67.5c5.8-99-47.6-135-55-186.8C173.9,1205.5,185.2,1279.4,258.5,1377.5z M154,1180.8
	c2.9-26.7,4.8-49.8,10-71.4c17.4-71.4,6.1-109.6,1.6-177.2C103.5,1025.8,110.6,1096.2,154,1180.8L154,1180.8z M85.9,1094
	c-1-89.4-19.3-190-85.5-274.9c10.6,71.1-22.8,159.2,40.8,221.8C55.3,1054.7,72,1079.5,85.9,1094L85.9,1094z M106.1,958.6
	c3.2-4.5,13.2-25.4,26-40.5c57.6-66.6,48.5-123.8,67.8-180.4C139.5,795,98.4,841.6,106.1,958.6z M98.7,675.4
	c41.1-88.1,61.1-162,42.4-253.4c-17,42.1-59.5,88.7-59.8,151.1C81.3,602.1,100,669.2,98.7,675.4z M71.7,881.4
	c13.8-99.7,31.2-151.1-16.1-266.2C44.7,666.4-3.2,748.7,39.5,827.8C50.5,848,67.2,866.3,71.7,881.4L71.7,881.4z M168.5,563.1
	c4.5-4.2,37-27.3,55.3-39.5c65.9-44.7,94.9-104.8,108.4-129.2C238.6,426.5,192.9,481.8,168.5,563.1z M172.3,470.8
	c49.8-59.8,85.5-146.9,87.1-224.4c-12.5,19.3-34.1,37.9-48.9,55.9s-40.5,55.3-42.8,110.3C167.2,433.2,174.6,448.9,172.3,470.8
	L172.3,470.8z M1440.7,82.1c-43.4-53-101.9-91.6-214.8-80c27,18.6,70.7,63.3,140.2,75.2C1386.7,80.8,1413.7,82.1,1440.7,82.1z
	 M1540.7,165.7c-42.1-45.3-106.8-67.8-179.8-54.3c17.4,16.1,61.4,48.5,118.7,54.6C1496.9,168,1518.8,167.3,1540.7,165.7
	L1540.7,165.7z M1764.8,298.2c-15.4-83.6-54.7-143.4-144.3-185.5c11,25.7,33.1,88.4,93.9,139.9C1731.1,267,1761,293.3,1764.8,298.2
	L1764.8,298.2z M1681.2,255.1c-41.2-50.1-98.1-72-168.8-64c15.8,16.4,55.6,50.5,110.3,60.1C1639.1,254.1,1659.9,255.1,1681.2,255.1
	L1681.2,255.1z M1794,387.9c-41.2-68.8-80-99.3-178.4-102.9c25.4,22.8,62,64.9,121.2,84.6C1754.5,375.7,1773.8,377.9,1794,387.9
	L1794,387.9z M1604.4,164.4c-28.6-75.9-63-110.9-160.1-142.1C1480.2,89.5,1515,136.1,1604.4,164.4z M1934.9,782
	c7.1-107.1-39.9-173.6-114.8-217c15.4,56.3,46,124.4,88.7,176.8C1921.4,757.3,1932,777.9,1934.9,782L1934.9,782z M1896.9,1270.1
	c39.2-31.5,134.1-69.4,145.6-161.1c2.6-21.2,6.8-42.1,12.5-62.7C1982.7,1111.9,1921,1189.1,1896.9,1270.1L1896.9,1270.1z
	 M1652.3,1534.4c54.3-43.4,133.4-110.3,114.4-220.2c-26,41.1-46.3,55.6-70.1,101.3C1674.1,1457.9,1664.5,1508.7,1652.3,1534.4z
	 M1477,1656.3c99-37.3,157.2-112.8,177.2-219.3c-39.9,47.9-51.4,42.1-100.6,94.2C1527.6,1558.8,1504.4,1628,1477,1656.3L1477,1656.3
	z M1792.8,1444.7c70.8-24.8,143.4-63,173.3-131.2c11.3-25.4,25.7-52.4,30.5-61.7C1911.7,1303.9,1832.3,1368.2,1792.8,1444.7
	L1792.8,1444.7z M1493.1,1691.6c79.4-15.8,168.8,12.8,237.3-48.6c20.6-18.3,45-39.2,53.4-45.3
	C1715,1612.6,1602.7,1614.1,1493.1,1691.6z M1634.9,1592.3c54.3-20.9,151.8-11.9,213.5-92.6c15.8-20.6,33.8-46.9,40.5-54.3
	C1823.3,1466.3,1716.9,1498.7,1634.9,1592.3L1634.9,1592.3z M1796.3,1377.5c73.3-98.1,84.9-172,62-254.3
	c-7.7,51.8-60.8,87.8-55,186.8C1804.7,1332.2,1798.9,1354.4,1796.3,1377.5L1796.3,1377.5z M1900.8,1180.8
	c43.7-84.6,50.8-155-11.2-248.5c-4.5,67.5-15.8,105.8,1.3,177.2C1896,1130.9,1898.2,1154,1900.8,1180.8z M1969.3,1094
	c13.5-14.5,30.2-39.2,44.7-53.1c63.6-62.7,29.9-150.8,40.8-221.8C1988.2,903.9,1970.2,1004.5,1969.3,1094L1969.3,1094z M1949,958.6
	c7.7-117-33.4-163.7-93.9-220.9c19.3,56.6,10.3,113.8,67.5,180.4C1935.5,933.2,1945.8,954.1,1949,958.6L1949,958.6z M1956.1,675.4
	c-1-6.1,17.7-73.3,17.4-102.2c-0.3-62.4-42.4-109-59.5-151.1C1895.3,513.3,1915.3,587.2,1956.1,675.4L1956.1,675.4z M1983.5,881.4
	c4.5-15.1,20.9-33.4,31.8-53.7c42.8-79.1-4.8-161.4-16.1-212.5C1952.2,730.3,1969.6,781.8,1983.5,881.4z M1886.4,563.1
	c-24.1-81.3-69.8-136.7-163.3-168.8c13.4,24.5,42.4,84.6,108.3,129.3C1849.7,535.8,1882.1,558.9,1886.4,563.1L1886.4,563.1z
	 M1882.8,470.8c-2.2-21.9,5.1-37.6,4.2-58.2c-1.9-55-27.6-92.3-42.4-110.3c-14.8-18-36.4-36.7-49.2-55.9
	C1797.3,323.9,1832.6,411,1882.8,470.8z M1344.2,1981c12.2,2.6,19-1,25.7-6.1c4.8-3.2,14.1-16.1,20.6-25.1
	c-194.8-11.9-302.2-76.2-383.6-147c-42.4-37-93.6-88.1-125.4-110.3c-55.3-38.6-119.3-36.7-148.9-57.6
	c35.4,60.8,89.4,116.7,158.5,151.4c13.5,6.7,19.9,24.1-3.5,15.1c-64.6-25.1-192.9-14.5-271,27c53.7,11.2,119,49.5,191.9,56.3
	c62,6.1,114.1-23.5,189.4-19.6C1096.1,1870.3,1113.1,1926.2,1344.2,1981L1344.2,1981z"/>
<path class="st0" d="M731.1,1762.4c-55.3-24.8-115.1-33.1-162.4-38.6c-66.6-8-118.6,2.6-155.6-0.6c22.2,12.8,65.6,33.4,78.1,41.8
	C586.8,1829.6,666.5,1754.7,731.1,1762.4z M778.7,1747.9c-39.2-30.2-65.6-92.9-88.1-113.5c-62.4-57.8-89.7-47.6-139.5-82.9
	C581.9,1637.9,675.2,1722.8,778.7,1747.9L778.7,1747.9z"/>
<path class="st0" d="M1366.1,624.2c-88.4-49.5-214.8-76.8-339.2-76.8c-124.7,0-245,27.3-339.8,76.8H1366.1z"/>
<path class="st0" d="M609.3,724.2c-4.2,2.9-1.9,7.1,3.2,6.4c7.1-1,7.4,6.8,6.7,12.9c-0.6,6.7-1.9,10-3.2,14.5
	c-2.6,11.6,3.9,19.6,13.8,20.3c10.3,1,29.9,1,36,0c22.5-2.9,29.6-12.9,35-24.8c1.3-3.2,5.2-10,6.4-12.5c4.5-6.8-1.9-9.7-6.1-7.1
	c-2.2,1.3-5.1,2.2-6.8,3.2c-2.6,1.3-6.8,1.3-11.3,0.3c-9-1.3-15.4-3.2-27,1.6c-4.2,1.6-9,3.5-11.6,4.2c-5.8,1.9-8,0.3-6.8-4.5
	c0.3-2.3,1-4.6,1.9-6.8c2.6-7.4,2.6-16.4-1.9-19.3c-4.2-2.9-12.2-1-16.4,2.6C617.9,718.1,613.7,721,609.3,724.2L609.3,724.2z
	 M849.4,724.2c-4.2,2.9-1.9,7.1,3.5,6.4c7.1-1,7.1,6.8,6.8,12.9c-0.6,6.7-2.2,10-3.2,14.5c-2.9,11.6,3.9,19.6,13.5,20.3
	c10.3,1,29.9,1,36,0c22.5-2.9,29.6-12.9,35-24.8c1.6-3.2,5.1-10,6.8-12.5c4.2-6.8-1.9-9.7-6.1-7.1c-2.6,1.3-5.5,2.2-7.1,3.2
	c-2.6,1.3-6.4,1.3-10.9,0.3c-9.3-1.3-15.8-3.2-27.3,1.6c-4.2,1.6-9,3.5-11.6,4.2c-5.8,1.9-7.7,0.3-6.8-4.5l1.9-6.8
	c2.9-7.4,2.6-16.4-1.6-19.3c-4.5-2.9-12.5-1-16.7,2.6C858.1,718.1,853.9,721,849.4,724.2L849.4,724.2z"/>
<path class="st0" d="M1027.2,408.8c20.2,0,36.7-16.4,36.7-36.7c0-20.2-16.4-36.7-36.7-36.6c-20.2,0-36.6,16.4-36.6,36.6l0,0
	C990.6,392.3,1006.9,408.7,1027.2,408.8C1027.2,408.8,1027.2,408.8,1027.2,408.8L1027.2,408.8z M874.2,421.3
	c20.2-3.3,33.9-22.3,30.6-42.5c-3.3-20.2-22.3-33.9-42.5-30.6c-20.2,3.3-33.9,22.3-30.6,42.5c0,0,0,0,0,0
	C835.1,410.9,854.1,424.5,874.2,421.3L874.2,421.3z M725,457.3c19.1-6.3,29.5-26.9,23.2-46l-0.1-0.2c-6.2-19.2-26.7-29.8-45.9-23.6
	l-0.4,0.1c-19.3,6.2-30,26.9-23.8,46.2c6.2,19.3,26.9,30,46.2,23.8C724.6,457.5,724.8,457.5,725,457.3L725,457.3z M583.2,516.5
	c17.8-9.4,24.7-31.3,15.4-49.2c-9-17.9-30.9-25.2-48.9-16.1c-17.9,9-25.2,30.9-16.1,48.9l0,0l0.3,0.7
	C543.3,518.6,565.3,525.6,583.2,516.5L583.2,516.5z M1180,420.7c19.8,3.1,38.4-10.4,41.5-30.2s-10.4-38.4-30.2-41.5
	c-19.8-3.1-38.3,10.4-41.5,30.1v0.1C1146.6,399,1160.2,417.6,1180,420.7z M1328.8,457.7c19.4,6.4,40.4-4.1,46.9-23.6c0,0,0,0,0,0
	c0-0.1,0.1-0.1,0.1-0.2c6.3-19.5-4.4-40.4-23.9-46.6c-19.5-6.3-40.4,4.4-46.6,23.9C1299,430.5,1309.5,451.3,1328.8,457.7
	L1328.8,457.7z M1470.6,516.8c18.1,9,40.1,1.9,49.5-16c9.2-18.1,1.9-40.1-16.1-49.3c-18.1-9.2-40.1-1.9-49.3,16.1
	C1445.6,485.6,1452.7,507.6,1470.6,516.8z"/>
<path class="st0" d="M1100.8,1074.3c-4.2,2.9-2.2,7.4,3.2,6.4c7.1-1,7.1,6.8,6.8,13.2c-0.7,6.4-2.2,9.7-3.2,14.1
	c-2.9,11.6,3.8,19.6,13.5,20.6c12,0.8,24,0.8,36,0c22.8-3.2,29.6-13.2,35.4-25.1c1.3-2.9,4.8-10,6.4-12.2c4.2-7.1-2-10-6.1-7.4
	c-2.3,1.3-4.6,2.4-7.1,3.2c-2.6,1.3-6.4,1.3-10.9,0.7c-9.3-1.6-15.8-3.5-27.3,1.3c-3.6,1.7-7.4,3.1-11.2,4.2c-6.1,1.9-8,0.6-7.1-4.2
	c0.7-2.2,1.3-4.8,1.9-7.1c2.9-7.4,2.6-16-1.6-19c-4.5-2.9-12.5-1-16.4,2.3C1109.2,1068.2,1105.3,1071.1,1100.8,1074.3L1100.8,1074.3
	z M1327.8,1074.3c-4.2,2.9-1.9,7.4,3.2,6.4c7.1-1,7.4,6.8,6.8,13.2s-1.9,9.7-2.9,14.1c-2.9,11.6,3.9,19.6,13.5,20.6
	c12,0.8,24,0.8,36,0c22.5-3.2,29.6-13.2,35-25.1c2-4.2,4.2-8.3,6.8-12.2c4.2-7.1-2.3-10-6.4-7.4c-2.1,1.3-4.4,2.4-6.8,3.2
	c-2.6,1.3-6.4,1.3-11.3,0.7c-9-1.6-15.4-3.5-27,1.3c-3.7,1.7-7.6,3.1-11.6,4.2c-5.8,1.9-8,0.6-6.8-4.2c0.5-2.4,1.1-4.8,1.9-7.1
	c2.9-7.4,2.6-16-1.9-19c-4.2-2.9-12.2-1-16.4,2.3C1336.5,1068.2,1332.3,1071.1,1327.8,1074.3L1327.8,1074.3z"/>
<path class="st0" d="M741.7,944.8c-4.2,2.9-1.9,7.4,3.2,6.8c7.1-1,7.4,6.8,6.8,12.9c-0.7,6.4-1.9,9.7-3.2,14.2
	c-2.6,11.9,3.8,19.6,13.8,20.6c11.9,0.8,23.8,0.8,35.7,0c22.8-3.2,29.6-13.2,35.4-25.1c1.3-2.9,5.2-10,6.4-12.2
	c4.5-7.1-1.9-10-6.1-7.4c-2.1,1.3-4.4,2.4-6.8,3.2c-2.6,1.3-6.8,1.3-11.3,0.7c-9.3-1.3-15.4-3.5-27,1.6c-4.2,1.6-9,3.2-11.6,4.2
	c-6.1,1.6-8,0.3-6.8-4.5c0.3-2.3,1-4.6,1.9-6.8c2.6-7.7,2.6-16.4-1.9-19.3c-4.2-2.9-12.2-1-16.4,2.3C750,939,746,942,741.7,944.8
	L741.7,944.8z"/>
<path class="st0" d="M1202.8,1295.2c-4.2,2.9-2.3,7.4,3.2,6.4c7.1-1,7.1,6.8,6.7,12.9c-0.6,6.7-2.3,10-3.2,14.5
	c-2.9,11.6,3.9,19.6,13.5,20.6c10.3,0.7,29.9,0.7,36-0.3c22.8-2.9,29.6-12.8,35.1-24.7c1.6-2.9,5.1-10,6.7-12.5
	c4.2-6.8-1.9-9.7-6.1-7.1c-2.3,1.3-4.6,2.3-7.1,3.2c-2.6,1.3-6.4,1.3-11,0.6c-9.3-1.6-15.8-3.5-27.3,1.3c-3.6,1.7-7.4,3.1-11.2,4.2
	c-6.1,1.9-8,0.3-7.1-4.2c0.6-2.3,1.3-4.8,1.9-7.1c2.9-7.4,2.6-16.1-1.6-19.3c-4.5-2.9-12.5-0.6-16.7,2.6
	C1211.1,1289.1,1207.3,1292,1202.8,1295.2z"/>
<path class="st0" d="M1166.5,1795.5c-22.8,8.7-23.2-5.8-10-12.8c67.5-35.4,115.7-74,162.7-155.3c-57.5,34.1-97.1,27.3-143.4,57.6
	c-45,29.2-65.3,83.9-118,121.2c57.9,58.5,104.2,72,135.3,73.3c24.8,1.3,48.6,0.6,74.9-5.1c65-14.2,116.1-46,169.1-53
	C1326.6,1780.4,1226.6,1771.7,1166.5,1795.5z"/>
<path class="st0" d="M1513.4,653.4v-81.7c37.6-11.3,65.2-46.3,65.2-87.5c0-50.5-40.8-91.6-91.3-91.6c-20.1,0-39.7,6.7-55.6,19l0,0
	c-5.8-45-44-80-90.7-80c-25.3,0-49.5,10.5-66.9,28.9c-13.9-48.7-64.6-76.9-113.3-63c-20.7,5.9-38.6,18.9-50.7,36.7
	c-21-45.7-75-65.7-120.7-44.8c-19.9,9.1-35.9,25.1-44.9,45.1c-28.1-42-84.9-53.2-126.9-25.1c-18,12.1-31.2,30.2-37.1,51.1
	c-17.3-18.4-41.3-28.8-66.5-28.9c-47,0-85.5,35.4-91,81c-15.4-12.5-35-19.6-56.6-19.6c-50.4,0-91.3,40.8-91.3,91.2c0,0,0,0,0,0v0.1
	c0,40.5,26.7,76.3,65.6,87.8v81.3H371.7L535,826.8v431.2c0,72.7,27.3,125.7,120.2,137.3c88.7,11.2,191.9,22.2,239.5,27.6
	c62.4,7.1,96.5,17,132.5,68.8c35.7-51.8,69.4-61.7,131.8-68.8c47.9-5.5,150.8-16.4,239.5-27.6c93.2-11.6,120.6-64.6,120.6-137.3
	V827.4l161.7-174L1513.4,653.4z M534.7,544.4c-12.4-6.6-22.5-16.8-28.9-29.3c-17-33.4-4.2-74.6,29.3-91.6
	c33.5-17.3,74.6-4.3,92,29.2c0,0,0,0,0,0c3.1,6.3,5.4,13,6.7,20c8.1-3.6,16.2-7,24.4-10.3c-3.9-5.8-7.1-12.1-9.3-18.7
	c-11.9-35.6,7.2-74.1,42.8-86c0,0,0,0,0,0l0.6-0.2c35.7-11.6,74.3,7.7,85.8,43.4c2.3,6.7,3.5,13.8,3.5,20.9c8.7-2.2,17-4.5,25.7-6.4
	c-3-6.3-5.2-13-6.4-19.9c-5.9-37.2,19.4-72.2,56.6-78.1c37.2-5.9,72.2,19.4,78.1,56.6c1,7,1,14.2,0,21.2c8.9-0.9,17.8-1.7,26.7-2.2
	c-2.2-6.7-3.3-13.8-3.2-20.9c0-37.6,30.5-68.1,68.2-68.2c37.3,0,67.8,30.5,67.8,68.2c-0.1,7.1-1.1,14.1-3.2,20.9
	c8.7,0.7,17.7,1.3,26.4,2.2c-1-7-1-14.2,0-21.2c6-37.2,41.1-62.4,78.3-56.4c37.1,6,62.3,40.8,56.5,77.9c-1.1,6.9-3.3,13.7-6.4,19.9
	c8.7,1.9,17.4,4.2,25.7,6.1c0.3-7,1.5-13.9,3.5-20.6c11.7-35.8,50.2-55.4,86-43.8c35.8,11.7,55.4,50.2,43.8,86
	c-2.2,6.9-5.6,13.3-9.8,19.2c8.4,3.2,16.4,6.8,24.8,10.3c1-6.9,3.2-13.7,6.4-19.9c17.1-33.5,58.2-46.8,91.7-29.7
	c33.5,17.1,46.8,58.2,29.7,91.7l0,0c-0.1,0.1-0.2,0.3-0.2,0.4c-6.4,12.5-16.5,22.7-28.9,29.3l-86.5,46l-11.3-85.5
	c-16.3-7.5-32.8-14.4-49.5-20.9l-68.8,52.1l-24.4-82.6c-17.3-4.8-34.8-9-52.4-12.5l-59.5,62.4l-37.3-77.9
	c-17.9-1.9-35.8-3.3-53.7-4.2l-48.5,70.7l-48.9-70.7c-18,0.9-36,2.3-54,4.2l-37,77.8l-59.8-62.4c-17.7,3.5-35,8-52.4,12.5
	l-24.4,82.6L681.9,484c-16.7,6.7-33.1,13.5-49.5,20.9l-11,85.5L534.7,544.4z M562.3,802.3L456.2,690.1h562.3v112.2L562.3,802.3z
	 M787.3,1317H583.5c-8-12.9-10-28.9-11.2-46.6h215.1L787.3,1317z M787.3,1197.4h-215v-157.2h215.1L787.3,1197.4z M1019.1,1428
	c-17.4-14.8-56.3-34.1-98.4-38.6c-29.9-3.5-79.1-9-116.4-13.2v-161.7h214.8V1428z M1019.1,1142.5H804.5v-46.6h214.8L1019.1,1142.5z
	 M1019.1,1023.2H572.3V910.7h446.9L1019.1,1023.2z M1019.1,894.3H572.3V819l446.9,0.3L1019.1,894.3z M571,653.8
	c115.5-90.7,285.5-139.9,455.9-139.9c169.8,0,344.7,48.2,456.6,139.9L571,653.8z M1035.3,690.1h215.1V848h-215.1V690.1z
	 M1251.3,921.3v46h-215.4v-46H1251.3z M1393.1,1360.2c-53.7,6.1-197.1,21.9-258.8,28.9c-43.1,4.8-81,23.8-98.4,38.3l0,0v-167.2
	h447.2C1481.2,1317.7,1462.6,1352.1,1393.1,1360.2L1393.1,1360.2z M1483.1,1243.8h-447.2v-74.9h447.2L1483.1,1243.8z M1483.1,1152.1
	h-447.2v-112.2h447.2L1483.1,1152.1z M1483.1,1023.2H1268V865h215.1L1483.1,1023.2z M1502.1,793H1268v-46h277.2L1502.1,793z"/>
<path class="st0" d="M919.5,1891.6c-68.2,17.7-166.9,55.6-264.9,58.2c15.1,20.2,19.6,25.7,24.4,28.9c4.5,3.5,10.9,3.2,16.4,2.3
	c108.7-20.6,188.4-64.9,280.7-91.3C952.6,1886.8,931.8,1888.4,919.5,1891.6z"/>
</svg>
