<?xml version="1.0" encoding="utf-8"?>
<!-- Generator: Adobe Illustrator 24.1.2, SVG Export Plug-In . SVG Version: 6.00 Build 0)  -->
<svg version="1.1" id="Layer_1" xmlns="http://www.w3.org/2000/svg" xmlns:xlink="http://www.w3.org/1999/xlink" x="0px" y="0px"
	 viewBox="0 0 2279.4 1146" style="enable-background:new 0 0 2279.4 1146;" xml:space="preserve">
<style type="text/css">
	.st0{fill-rule:evenodd;clip-rule:evenodd;fill:#3b4351;}
</style>
<path class="st0" d="M1709.9,76.9c-185.5-50.2-378-76.9-570-76.9l0,0c-115.5,0.1-230.8,9.5-344.8,28.1
	c-137.2,22.1-275,55.3-402.6,111.6C219.1,216.6,0,358.4,0,573c0,270.9,350.3,436.8,570,496.6c185.5,50.3,377.5,76.4,570,76.4
	c115.3,0.1,230.4-9.2,344.3-27.7c137.7-22.6,275-55.3,402.6-111.6c173.4-76.9,392.5-218.6,392.5-433.8
	C2279.4,302.1,1929.6,136.7,1709.9,76.9z M1663.7,955c-172.4,37.7-348.8,58.8-525.8,58.8c-106.1-0.2-212-7.4-317.2-21.6
	c-125.7-17.6-251.3-40.7-370.4-84.4C313.6,857.5,86,745.4,86,571c0-218.1,356.4-345.8,525.7-383.5c172.9-37.7,349.3-59.3,526.2-59.3
	c106.1,0,212.1,8,317.2,22.1c125.2,17.1,251.3,40.7,369.9,84.4c136.7,50.3,364.9,161.8,364.9,336.3
	C2189.9,789.6,1833.6,917.3,1663.7,955z"/>
<path class="st0" d="M415.7,298.6h185v201l148.3-201h169.8L748.9,550.4L958,844.9H785.1L600.7,603.7v241.3H447.4V336.8l-31.6-15.1
	V298.6z M1048.5,321.7v-23.1H1231v546.4h-152.8V336.8L1048.5,321.7L1048.5,321.7z M1549.7,336.8l-29.2-15.1v-23.1h220.1l184,546.4
	h-149.3l-123.7-359.4L1528,844.9h-147.8L1549.7,336.8L1549.7,336.8z"/>
</svg>
