<?xml version="1.0" encoding="utf-8"?>
<!-- Generator: Adobe Illustrator 24.1.2, SVG Export Plug-In . SVG Version: 6.00 Build 0)  -->
<svg version="1.1" id="Layer_1" xmlns="http://www.w3.org/2000/svg" xmlns:xlink="http://www.w3.org/1999/xlink" x="0px" y="0px"
	 viewBox="0 0 1713.2 837.4" style="enable-background:new 0 0 1713.2 837.4;" xml:space="preserve">
<style type="text/css">
	.st0{fill:#3b4351;}
</style>
<path class="st0" d="M1197.7,564.1c-105.7,222-328.6,321.6-512.1,250.8c-191-73.7-391.3-363.1-391.3-363.1l-96.5,247.3H0L274.2,2.5
	h375.9c119.4,48.8,196.3,147.1,182.4,248.3c-13.9,100.8-113.8,174.5-241.1,189.6l-11.9,2.1c30.6,42.3,56.5,70,94.3,96
	c-2.7-33.9,2.2-58.7,13.8-91.7c103.9-37.9,169.8-118.7,175-203.2c3.3-54.2-8.4-96.8-39.4-140.9l37.6-101h206.1L888.5,462.5
	c-19.5,43.7-6.2,89.5,24.9,99.2s67.9-20.7,82.5-67.7L1195.4,0h517.8l-83.3,206.9h-276l-18.6,45.8h273l-77.6,199.8h-281
	C1249.8,452.5,1228.3,499.6,1197.7,564.1L1197.7,564.1z M376.4,250.7h237.4c9.5-1.7,18-13.9,21-19.8c3.3-6.6,3.3-16.5-1.8-24.3
	H395.6L376.4,250.7z"/>
</svg>
