<?xml version="1.0" encoding="utf-8"?>
<!-- Generator: Adobe Illustrator 24.1.2, SVG Export Plug-In . SVG Version: 6.00 Build 0)  -->
<svg version="1.1" id="Layer_1" xmlns="http://www.w3.org/2000/svg" xmlns:xlink="http://www.w3.org/1999/xlink" x="0px" y="0px"
	 viewBox="0 0 2500 2500" style="enable-background:new 0 0 2500 2500;" xml:space="preserve">
<style type="text/css">
	.st0{fill:#F5F7F7;}
</style>
<path class="st0" d="M2133.9,366.1C1897.8,130,1583.9,0,1250,0C560.7,0,0,560.7,0,1250c0,333.9,130,647.8,366.1,883.9
	S916.1,2500,1250,2500s647.8-130,883.9-366.1s366.1-550,366.1-883.9S2370,602.2,2133.9,366.1z M1250,2456.8
	c-322.3,0-625.4-125.5-853.3-353.4S43.2,1572.3,43.2,1250s125.5-625.4,353.5-853.3S927.7,43.2,1250,43.2s625.4,125.5,853.3,353.5
	s353.5,531,353.5,853.3C2456.8,1915.4,1915.4,2456.8,1250,2456.8z"/>
<g>
	<path class="st0" d="M703.2,666.6c35.8-42.7,41.3-85,3.7-121.6c-24.5-23.9-62.4-31-97.9-9c6.8-17.6,4-35.6,0.4-45.5
		c-15.3-27.9-20.7-31.4-33.3-42c-40.8-34.3-83.8-5.1-114.6,31.6L312.9,657.2l233.6,196L703.2,666.6z M404.7,630.3l89.2-106.4
		c10.3-12.3,33.7-11.8,48.7,0.8c16.5,13.9,16.6,33.5,5.5,46.7l-88.2,105.2L404.7,630.3z M593.4,598.1c10.6-12.6,34.2-16.3,50.1-2.9
		c18.1,15.1,19.9,38,7.5,52.8l-93,110.9l-58.4-49L593.4,598.1z"/>
	<path class="st0" d="M1250,510.9c-408.2,0-739.1,330.9-739.1,739.1s330.9,739.1,739.1,739.1s739.1-330.9,739.1-739.1
		S1658.2,510.9,1250,510.9z M1250,1250v691.5c-381.9,0-691.5-309.6-691.5-691.5H1250V558.5c381.9,0,691.5,309.6,691.5,691.5H1250z"
		/>
	<polygon class="st0" points="2171.6,665.4 1993.6,749.9 2108.4,587.4 2057.8,525 1875,603.5 1994.7,447 1947.6,388.8 1756.5,634.6 
		1812.3,703 1992.8,628.7 1993.5,629.5 1883.3,790.6 1938.6,859.4 2218.7,723.6 	"/>
	<polygon class="st0" points="1141.9,460.7 1141.9,248.1 1222.1,460.7 1288.7,460.7 1368.9,248.1 1368.9,460.7 1429.9,460.7 
		1429.9,156.2 1338.3,156.2 1255.4,373.1 1172.5,156.2 1080.9,156.2 1080.9,460.7 	"/>
</g>
</svg>
