<?xml version="1.0" encoding="utf-8"?>
<!-- Generator: Adobe Illustrator 24.1.2, SVG Export Plug-In . SVG Version: 6.00 Build 0)  -->
<svg version="1.1" id="Layer_1" xmlns="http://www.w3.org/2000/svg" xmlns:xlink="http://www.w3.org/1999/xlink" x="0px" y="0px"
	 viewBox="0 0 980 627.5" style="enable-background:new 0 0 980 627.5;" xml:space="preserve">
<style type="text/css">
	.st0{fill:#F5F7F7;}
</style>
<path class="st0" d="M450.4,0.5c-104,9-171.4,24.7-241.9,56.6c-51.8,23.3-89.3,47.8-125.3,82.4c-27,25.8-43.8,47.6-57.8,75.2
	c-22.9,44.4-30,85.9-22.4,131.4c11.7,72.1,61.8,140,140.4,190.1C311.2,643.3,575.7,658,770.4,570.8c52.8-23.7,90.5-48.4,126.8-83
	c28.1-26.8,44.6-48.8,59.5-78.8c57.8-117.2,6.1-243.3-134.3-327C755.3,42.1,666.4,14.1,571.9,3.4C551.2,1.1,466.9-1,450.4,0.5z
	 M421.9,42.4c-30.6,36.3-52,85.1-64.8,148.8c-3.1,14.9-5.9,27.2-6.3,27.7c-1.3,1.5-43.8-8.4-61.8-14.2
	c-44.2-14.5-83.2-41.3-97.2-67.1c-3.1-5.9-5.4-10.9-5-11.3c0.2-0.2,4.8-3.8,10.1-8c53-41.9,131-74,210.6-86.4
	C435.9,27.5,435,26.9,421.9,42.4z M568.6,34c78.4,12.4,150.7,40.9,205,80.9c9.6,6.9,17.8,13,18,13.4c0.4,0.2-1.9,5.5-5,11.3
	c-14,25.8-53,52.6-97.2,67.1c-18.7,6.1-60.6,15.7-62,14c-0.4-0.4-2.7-10.7-5-23c-12.8-66.4-34-115.5-65.8-153.2
	c-6.5-7.6-11.3-13.8-10.5-13.8S556.8,32.1,568.6,34z M507.6,98.6c19.9,7.1,36.9,24.9,52.6,55.8c8.6,16.8,19.9,47,23.3,62.2l1.5,6.9
	h-189l1.3-5.9c9.6-43.6,33.5-89.5,55.3-107.1C469.4,96.9,490.2,92.5,507.6,98.6L507.6,98.6z M170.8,216.4
	c34.2,22.4,86.8,43,138.1,54.1c13.8,3.1,27,5.9,29.5,6.5c4.2,0.8,4.4,2.5,5.7,46.5c0.8,25.1,2.7,56.6,4.6,69.8
	c11.5,84.7,39,154.5,75.2,192l11.3,11.7l-13.8-1.5c-71.7-7.3-159.9-39.4-214.2-78c-26.8-19.1-65.2-57.6-80.7-80.9
	C76,360.1,75.4,271.9,124.7,195l6.7-10.9l10.9,10.5C148.1,200.2,160.9,210.1,170.8,216.4z M855.7,207.6
	c41.1,72.3,37.1,159.3-10.7,229.9c-54.9,80.7-156.8,137.9-277.5,155.7c-12.4,1.9-23,3.4-23.9,3.4s3.3-5.2,9-11.5
	c30-32.7,52.6-81.7,66.2-143.6c8.2-37.5,12-70.4,13.2-120.1c1-38.1,1.7-45.5,4.4-45.5c8,0,54.5-11.7,79.6-20.1
	c49-16.4,90.5-38.8,112.8-60.8C841.2,182.6,841.6,182.8,855.7,207.6z M594.1,294.1c0.8,9,0.8,28.7,0.2,43.6
	c-4.4,90.8-35.8,164.9-79.2,187.8c-13.2,6.9-34.8,6.9-48.8,0c-34.4-17-62.7-70.4-75.7-143.8c-3.8-20.1-6.7-89.1-4.4-98.3l1.3-5.5
	h205L594.1,294.1z"/>
</svg>
