<?xml version="1.0" encoding="utf-8"?>
<!-- Generator: Adobe Illustrator 24.1.2, SVG Export Plug-In . SVG Version: 6.00 Build 0)  -->
<svg version="1.1" id="Layer_1" xmlns="http://www.w3.org/2000/svg" xmlns:xlink="http://www.w3.org/1999/xlink" x="0px" y="0px"
	 viewBox="0 0 2250.5 2250.6" style="enable-background:new 0 0 2250.5 2250.6;" xml:space="preserve">
<style type="text/css">
	.st0{fill:#3b4351;}
</style>
<path class="st0" d="M2250.5,1125.3C2250.5,503.8,1746.8,0,1125.3,0S0,503.8,0,1125.3s503.8,1125.3,1125.3,1125.3
	S2250.5,1746.8,2250.5,1125.3z M911.6,1989.9c-34.2-3.4-124.8-17.4-176.5-2.8c0,0-45.4,48.1-47.9,68.1
	c-24.9-10.4-39.5-20.9-68.8-35.8c7.1-24.8,29.7-52.3,47.1-69.4c64.8-18.6,125.2-24,230-7.8c14.6-47.1,21.9-96.2,21.8-145.6
	c0-270.3-219.1-489.6-489.6-489.6c-110.6,0-212.2,47.2-290,115.4c-25.7-90.2-40.8-160.9-42.3-282.8
	C88.7,571.1,544.3,104.6,1112.9,98.1c569.5-6.8,1034.8,453.5,1041.3,1002.4c-1.4,92.4-23.4,227.6-35.4,282.7
	c-56.8-62.8-244.8-57.5-326.7-192.6c81.9-13.5,146.5-36.2,178.3-74.2c-156.7-28.5-206.9-220.9-242.8-294.9
	c-45.6-93.8-85.4-117.2-117.2-154.7c-37-43.6,52.3-15.1,88.8,10.3l7.5-6.1c-88.3-136.4-171.6-110.7-253.3-189.7
	c-28.5-27.7,38.7-24,72.4-14.9l6.8-6.5c-89-83.2-161.3-60.3-166.3-227.4c-162.5,90.6-262.3,5.5-524,126.5
	c-80.8,37.3,18.8,7.5-40.2,69.2c-39.3,41-151.3,38.9-223.6,140.1c-17,23.7,88.1,101.1,116.9,161.9l7.8-21.4
	c-22.9-69.1-15.6-95,18.3-105.7c65.9-21,139.4,27.8,158.6,104.5c8.5,33.3-0.3,95.2-41.2,108.8c-26.5,8.8-63-4.6-90.9-34.1l-19.6,7
	c0,0,47.6,61.7,55.3,132.8C846,879.9,946.3,821.5,964.5,743c26.3-114,40.4-135.6,158.8-206c118.3-70.7,105.8-66,20.5-175.9
	c-33.8-43.5,19.6-10.8,161.2-55.7l0.7,9c-135.9,66.7-142.5,34.7-44.8,127.9c49.8,47.8,50.7,72.6-109.6,137.4
	c-213.7,86.4-77.2,224.6-235.6,330.2c-235.1,156.7-174.8,244.5-66.6,393.9c-198.8-111-171.6-217.7-169.1-228.8
	c-50.5-8.3-218.7-33.7-329-3.7c-39.7,10.8-45.4,29.7-95.5,59c-17.2,10-39.4,18.9-62.2,32.4c-13.3,8.2-25.6,26.6-15.3,53
	c12.8,33.1,35.8,55.6,68.9,69.5c15.9-62.9,41-78.1,41-78.1c6.9,37.7,46.4,60.5,46.4,60.5l0,0c0,0,18.5-17.3,131.4-17.3
	c166.6,0,315.3,80.2,376.5,133.7c0,0,5.4,76.9,127.3,200.2c32.1,32.6,35.4,85.9,35.4,118.6C1004.9,1792.6,983.4,1903.7,911.6,1989.9
	z M964.4,1357.3c-101.5-110.2-111.8-240.3-56.5-288c58.2,266.6,330.2,243.4,330.2,243.4c-139.7,26.7-208.1,31.2-291-36.7
	C940,1286.9,965.6,1340.1,964.4,1357.3L964.4,1357.3z M1106.3,934.8L1122,947c123.2,139.3,223.9,360,504.1,294.9
	C1306.6,1414.2,1196.7,1217.5,1106.3,934.8z M1260,768.8c255.9-4.1,272.9,348.3,479.4,412.2C1417.5,1193.4,1460.4,863.7,1260,768.8
	L1260,768.8z M1046.5,352.2c0,0-84.9,56.1-112.5,94.1c-9.8,13.4-21.8-31-26-35.4c-4.5-4.3-40.4,7.4-42.2,1.8l0,0
	C864,406.9,923,376.5,1046.5,352.2z M1787.5,1914.2c-146.3,128.5-389.9,237.8-650,240.8c-8.3,0-60.9-3.5-85.9-5.8l0,0
	c50.1-35.2,99.7-112.1,132.1-202.5c34.8-97.1,56.3-73.5,55.7-13.8l17.4-4.7c-0.4,0.9,65.8-83.4,81.2-338.5c0-20.4,12.1-15.4,17.2,0
	c25.5,65.8,5.1,129.8,53.8,148.6c52.5,20.3,210.6,14.1,323.9,4.5C1834.3,1734.2,1887.8,1821.7,1787.5,1914.2L1787.5,1914.2z"/>
</svg>
