<?xml version="1.0" encoding="utf-8"?>
<!-- Generator: Adobe Illustrator 24.1.2, SVG Export Plug-In . SVG Version: 6.00 Build 0)  -->
<svg version="1.1" id="Layer_1" xmlns="http://www.w3.org/2000/svg" xmlns:xlink="http://www.w3.org/1999/xlink" x="0px" y="0px"
	 viewBox="0 0 2287.8 497.7" style="enable-background:new 0 0 2287.8 497.7;" xml:space="preserve">
<style type="text/css">
	.st0{fill:#3b4351;}
	.st1{fill-rule:evenodd;clip-rule:evenodd;fill:#3b4351;}
</style>
<path class="st0" d="M2283.4,6.9c-2.8-3.4-9.5-8.7-22.6-6.3h-921.4c-31.9,0-56.4,9.6-70.9,27.7c-0.3,0.3-0.5,0.6-0.7,1
	c-7.8,13.1-14.8,27.9-14.2,47.8h-219.4c0.6-19.9-6.4-34.7-14.2-47.8c-0.4-0.6-0.8-1.2-1.3-1.7c-17.6-17.7-41.9-27-70.2-27H27.1
	C13.9-1.7,7.3,3.5,4.4,6.9C1.3,10.6-3,19.1,2.9,33.9c0.2,0.5,0.4,0.9,0.7,1.4l30.5,48.9c0.4,0.6,0.8,1.1,1.2,1.5
	c3.4,3.4,8.6,8.6,21.4,8.6h11.6l1.4,5.7c0.2,1,0.6,1.9,1.2,2.7l30.3,45.4c5.2,9.8,15.4,13.7,27.1,10.4h8.6l21.5,43
	c1.6,5.9,8.4,8.7,11.8,10.2c4.9,2,12.1,4.4,21.2,7.5l0.4,0.1l396.5,109.1l25.3,45.1c4.5,12.5,16.3,22.7,30.2,26.2l378.7,97.8
	c2.7,0.7,5.6,0,7.8-1.8l109.5-92.7c1.3,0,2.7,0,4,0s2.7,0,4,0l109.5,92.7c1.6,1.3,3.5,2,5.6,2c0.7,0,1.5-0.1,2.2-0.3l378.6-97.8
	c14-3.5,25.7-13.7,30.2-26.2l25.3-45.1l396.6-109l0.4-0.1c9.5-3.2,16.3-5.4,21.2-7.5c3.4-1.4,10.2-4.2,11.8-10.2l21.5-43h8.6
	c11.7,3.3,21.9-0.6,27.1-10.4l30.3-45.4c0.5-0.8,1-1.8,1.2-2.7l1.4-5.7h11.6c12.8,0,17.9-5.2,21.4-8.6c0.5-0.5,0.9-1,1.2-1.5
	l30.6-48.9c0.3-0.4,0.5-0.9,0.7-1.4C2290.8,19.1,2286.4,10.6,2283.4,6.9z M1282.4,38.6c11.2-13.6,30.8-20.8,57-20.8h371.5
	c-8.9,20.2-18.8,39.9-29.8,59.1h-410.2C1270.4,62.3,1275.1,50.8,1282.4,38.6L1282.4,38.6z M1592.3,193.3v-24.8l21,2
	C1606.1,178.5,1599.1,186.1,1592.3,193.3L1592.3,193.3z M1542.2,241.3l-16.7-21.7h40.6C1558.1,227.3,1550.1,234.5,1542.2,241.3
	L1542.2,241.3z M1462.4,297.6l-40.2-78h29.6l39.1,60.2l-0.6,0.4C1481.1,286.3,1471.7,292.1,1462.4,297.6L1462.4,297.6z M1416,322.7
	l-46.3-103.1h33l44.6,86.7C1436.9,312.1,1426.5,317.5,1416,322.7L1416,322.7z M1358.1,347.7l-45.3-128.1h37.9l49.7,110.5
	C1386.4,336.6,1372.3,342.4,1358.1,347.7L1358.1,347.7z M1324.9,359c-11.4,3.5-22.9,6.6-34.5,9.4l-29.7-148.8h34.8l-1,0.3
	l47.2,133.5C1336.2,355.4,1330.6,357.2,1324.9,359z M1224.7,380.6l-13.6-161h32l30.5,152.6C1257.4,375.7,1241.2,378.4,1224.7,380.6
	L1224.7,380.6z M1014.2,372.3l30.5-152.7h32l-13.6,161C1046.6,378.5,1030.3,375.7,1014.2,372.3L1014.2,372.3z M945.9,353.5
	L993.2,220l-1-0.3h34.8l-29.8,148.9C980,364.3,962.9,359.3,945.9,353.5L945.9,353.5z M887.2,330l46.9-110.4H975l-45.3,128.2
	C915.4,342.4,901.2,336.5,887.2,330L887.2,330z M840.6,306l44.5-86.4h30.2l-43.7,102.9C861.2,317.4,850.8,311.9,840.6,306L840.6,306
	z M797.4,279.1l39.6-59.5h28.6l-40,77.6C816.1,291.5,806.7,285.4,797.4,279.1L797.4,279.1z M759.4,251.7l24.7-32.1h32.2l-33.1,49.7
	C775.1,263.6,767.2,257.7,759.4,251.7L759.4,251.7z M672.6,170.4l19.8-1.9v23.3C685.7,184.8,679.1,177.7,672.6,170.4L672.6,170.4z
	 M692.4,114.1L631,117c-5.2-7.4-10.2-15-15-22.7h76.4L692.4,114.1z M692.4,131.4v19.7l-33.4,3.2c-5.5-6.7-10.8-13.6-16-20.5
	L692.4,131.4z M721.1,219.6h41.1l-16.3,21.3C737.4,234,729.2,226.9,721.1,219.6L721.1,219.6z M1094,219.6h41.2v164.6l-1.7,1.4
	c-18-0.3-35.7-1.3-53.3-3.1L1094,219.6z M1152.5,384.2V219.6h41.2l13.8,162.9c-17.6,1.8-35.4,2.8-53.3,3.1L1152.5,384.2z
	 M1505.2,270.1l-32.9-50.4h31.3l25.1,32.7C1521,258.6,1513.2,264.5,1505.2,270.1L1505.2,270.1z M1592.2,151.1v-19.7l51.3,2.5
	c-5.3,7-10.8,13.9-16.4,20.6L1592.2,151.1z M1592.2,114.1V94.3h78.5c-4.9,7.8-9.9,15.4-15,22.8L1592.2,114.1z M1262.9,94.4h312v108
	H709.8v-108H1262.9z M1005.7,39.1c7.1,12,11.7,23.4,11.2,37.9H605.6c-11.2-19.2-21.3-38.9-30.4-59.1h373.3
	C972,17.9,991.3,25,1005.7,39.1L1005.7,39.1z M56.8,77L56.8,77c-5,0-6.4-0.9-8.5-2.9L18.8,26.8c-1.9-5.2-1.6-8.1-1-8.8
	c0.4-0.5,2.6-1.1,6.8-0.3c0.6,0.1,1.1,0.2,1.7,0.2h530c8.8,20.2,18.6,39.9,29.4,59.1L56.8,77z M126.6,141.2c-0.8,0-1.6,0.2-2.4,0.4
	c-6,2-7.1-0.4-7.9-1.8c-0.2-0.3-0.3-0.6-0.5-0.9L86.2,94.3l0,0h509.5c4.8,8,9.9,15.9,15.1,23.7L126.6,141.2z M186.1,199.1
	c-4-1.3-8-2.8-11.8-4.6l-18.7-37.4l466.8-22.3c5.2,7.3,10.6,14.5,16.1,21.5L186.1,199.1z M231.4,212.2l420.2-39.8
	c3.5,4.1,7,8.2,10.6,12.3l-290.3,66.2L231.4,212.2z M407.2,260.6l268.5-61.2c3.3,3.5,6.7,7,10.1,10.4l-184.5,76.7L407.2,260.6z
	 M528.4,293.9l170.8-71c5.3,5,10.7,9.9,16.2,14.8l-119.2,74.9L528.4,293.9z M607.1,326.2l122-76.7c8.2,6.8,16.6,13.5,25.2,20.1
	L628.9,365L607.1,326.2z M648.2,382.9c-3.2-0.8-6.2-2.1-8.9-4l129.4-98.6c5.3,3.8,10.6,7.5,16,11.2c3.3,2.2,6.6,4.4,9.8,6.6
	L704,397.3L648.2,382.9z M723,402.2l86.4-94.6c10.4,6.5,20.9,12.7,31.6,18.5l-62.2,90.6L723,402.2z M796.6,421.2l59.7-87
	c11.8,6,23.7,11.7,35.7,17l-37.1,85.1L796.6,421.2z M871.8,440.6l36.2-82.8c14.1,5.7,28.3,10.8,42.7,15.4L935.5,457L871.8,440.6z
	 M952.3,461.4l15.1-83c16.1,4.7,32.3,8.6,48.8,11.9v87.5L952.3,461.4z M1033.4,470.4v-76.8c26.6,4.6,53.5,7.5,80.4,8.7L1033.4,470.4
	z M1173.9,402.3c27-1.2,53.8-4.1,80.4-8.7v76.8L1173.9,402.3z M1271.6,477.9v-87.6c16.5-3.3,32.7-7.3,48.8-12l15.1,83.1
	L1271.6,477.9z M1352.3,457.1l-15.2-83.8c14.3-4.6,28.5-9.8,42.7-15.4l36.2,82.8L1352.3,457.1z M1432.9,436.3l-37.2-85.1
	c11.3-4.9,22.5-10.2,33.6-15.8l61.7,85.9L1432.9,436.3z M1508.9,416.6l-64.1-89.3c11.3-6.1,22.6-12.5,33.8-19.3l86.2,94.1
	L1508.9,416.6z M1639.5,382.9l-55.7,14.4l-90.3-98.6c2.1-1.3,4.2-2.7,6.3-4.1c6.8-4.4,13.4-8.9,20.1-13.7l128.6,98
	C1645.7,380.8,1642.7,382.1,1639.5,382.9L1639.5,382.9z M1658.8,365l-124.6-94.9c8.2-6.4,16.5-13.2,24.7-20.4l121.8,76.5L1658.8,365
	z M1691.5,312.6l-119.3-75c5.6-5.2,11.2-10.6,16.8-16.2l170.6,72.4L1691.5,312.6z M1786.5,286.4l-184.4-78.3c2.7-2.8,5.3-5.6,8-8.5
	l271.5,60.7L1786.5,286.4z M1917.2,250.4l-293.7-65.6c3.6-4,7.2-8.1,10.9-12.4l421.9,39.8L1917.2,250.4z M2113.5,194.4
	c-3.9,1.8-7.8,3.3-11.9,4.6l-453.7-42.7c5.6-7,11.1-14.2,16.4-21.5l467.8,22.3L2113.5,194.4z M2171.9,138.8
	c-0.2,0.3-0.4,0.6-0.5,0.9c-0.7,1.4-1.9,3.8-7.8,1.8c-0.8-0.3-1.6-0.4-2.4-0.4L1676,118c5.1-7.7,10.1-15.6,15-23.8h510.6
	L2171.9,138.8z M2269,26.8l-29.6,47.4c-2,2-3.4,2.9-8.5,2.9h-530c10.3-18.6,19.9-38.3,28.8-59.1h531.7c0.6,0,1.1-0.1,1.7-0.2
	c4.3-0.9,6.5-0.2,6.8,0.3C2270.6,18.6,2271,21.6,2269,26.8z"/>
<path class="st1" d="M761.3,109.3l35.2,81.3h-12.3L772,159.9h-29.2l-12.3,30.7H723l35.2-81.3L761.3,109.3z M770.5,153.7l-13.8-29.1
	l-12.3,29.2L770.5,153.7z M842.5,184.4c-4.6,4.6-12.3,7.7-19.9,7.7l-10.7-1.5l-7.7-6.2l1.5-9.2h1.5c4.6,7.7,10.7,12.3,18.4,12.3
	c4.6,0,7.7-1.5,10.7-6.1c3.1-3.3,4.7-7.7,4.6-12.3c0.1-4.1-1.6-8-4.6-10.7l-12.2-6.1c-6.1-1.5-10.7-4.6-12.3-6.1
	c-4.6-4.6-6.1-9.2-6.1-13.8c0-7.7,3-12.3,7.7-16.9s9.2-6.1,16.9-6.1s12.3,1.5,16.9,6.1l-3.1,9.2c-3.1-7.7-7.7-10.7-15.3-10.7
	c-4.6,0-7.7,1.5-9.2,4.6c-3.1,1.5-4.6,4.6-4.6,9.2c0,4.6,1.5,9.2,4.6,12.3l13.8,4.6c4,2.8,8,5.3,12.3,7.7c3.1,3.1,4.6,7.7,4.6,13.8
	C850.3,172.9,847.5,179.6,842.5,184.4L842.5,184.4z M917.6,113.9l1.5,4.6l-24.5-1.5v73.6h-10.7v-73.6l-26,1.5l1.5-4.6l-1.5-3.1h61.3
	L917.6,113.9L917.6,113.9z M942.1,178.3c5.6,5.8,13.4,9.1,21.4,9.2c10.7,0,19.9-4.6,26-13.8c4.6-7.7,7.7-15.3,6.1-23
	c0-10.7-1.5-20-6.1-26.1c-6.1-7.7-13.8-12.3-24.5-12.3s-18.4,4.6-24.5,12.3c-5,8.3-7.7,17.9-7.7,27.6
	C932.9,162.9,935.9,172.2,942.1,178.3L942.1,178.3z M920.7,150.7c-0.2-11.5,4.2-22.5,12.3-30.7c7.7-7.7,18.4-10.7,30.6-10.7
	s23,3.1,30.7,9.2c9.2,7.7,13.8,16.9,13.8,30.7s-4.6,23-12.3,30.7s-18.4,12.3-32.2,12.3c-12.2,0-23-3.1-30.6-10.7
	C924.9,173.2,920.5,162.1,920.7,150.7L920.7,150.7z M1092.3,190.6h-4.6l-55.2-62.9h-1.5v62.9h-6.1v-79.8h4.6l55.2,59.8v-59.8h7.7
	L1092.3,190.6L1092.3,190.6z M1153.6,110.8c13.8,26.1,24.5,46,33.7,61.3l33.7-61.4h1.5l9.2,79.8H1221l-6.1-59.8
	c-13.8,26.1-24.5,46-29.1,58.3h-1.5l-7.7-12.3l-23-46l-4.6,59.8h-9.2l12.3-79.8L1153.6,110.8z M1308.3,190.6h-6.1l-12.2-30.7h-30.7
	l-10.7,30.7h-9.2l36.8-81.3h3.1l33.7,81.3H1308.3z M1286.9,153.8l-12.2-29.1l-12.3,29.1H1286.9z M1335.9,115.4v32.2l15.3-1.5
	c3.7-1.2,7.3-2.8,10.7-4.6l4.6-10.7c0-9.2-4.6-13.8-13.8-15.3L1335.9,115.4z M1351.2,110.8c16.8,0,24.5,6.1,24.5,18.4
	c0,6.1-3.1,10.7-7.7,15.3c-4.6,3.1-9.2,4.6-15.3,6.1l30.6,39.9h-12.2l-30.6-38.3h-4.6v38.3h-9.2v-79.8L1351.2,110.8L1351.2,110.8z
	 M1409.4,190.6v-73.7l-24.5,1.5v-7.7h58.2v7.7l-23-1.5v73.6L1409.4,190.6z M1467.7,110.8v79.8H1457v-79.8H1467.7z M1558.1,190.5
	h-4.6l-55.2-62.9h-1.5v62.9h-6.1v-79.8h3.1l56.7,59.8v-59.8h7.7V190.5z"/>
</svg>
