<?xml version="1.0" encoding="utf-8"?>
<!-- Generator: Adobe Illustrator 24.1.2, SVG Export Plug-In . SVG Version: 6.00 Build 0)  -->
<svg version="1.1" id="Layer_1" xmlns="http://www.w3.org/2000/svg" xmlns:xlink="http://www.w3.org/1999/xlink" x="0px" y="0px"
	 viewBox="0 0 1187.9 1187.9" style="enable-background:new 0 0 1187.9 1187.9;" xml:space="preserve">
<style type="text/css">
	.st0{fill:#3b4351;}
</style>
<path class="st0" d="M1103.4,899.5c55.5-92.2,84.7-197.9,84.6-305.5c0-328-265.9-594-594-594s-594,265.9-594,594
	C-0.2,701.6,29,807.3,84.5,899.5l-2.2,1.7l2.6-1c104,172.4,293,287.7,509,287.7s405-115.3,509-287.7l2.6,1L1103.4,899.5z M1115,594
	c0.1,91-23.7,180.3-69.2,259.2l-367.4-296L603,73.2C886.6,78,1115,309.2,1115,594L1115,594z M73,594C73,309.3,301.4,78.1,584.9,73.3
	l-75.4,484L142.1,853.1C96.8,774.3,72.9,684.9,73,594z M594,1115c-184.9,0-347.1-96.4-439.6-241.5L594,703.3l439.6,170.1
	C941.1,1018.6,778.9,1114.9,594,1115L594,1115z"/>
</svg>
