<?xml version="1.0" encoding="utf-8"?>
<!-- Generator: Adobe Illustrator 24.1.2, SVG Export Plug-In . SVG Version: 6.00 Build 0)  -->
<svg version="1.1" id="Layer_1" xmlns="http://www.w3.org/2000/svg" xmlns:xlink="http://www.w3.org/1999/xlink" x="0px" y="0px"
	 viewBox="0 0 975.4 1240.1" style="enable-background:new 0 0 975.4 1240.1;" xml:space="preserve">
<style type="text/css">
	.st0{fill:#3b4351;}
</style>
<path class="st0" d="M970.4,596.3L630.8,8.8C627,2.4,620.2-0.3,613.1,0H364c-7-0.2-14.6,2.8-18.7,8.7l-0.4,0.6L7.1,596.2
	c-4.1,7.3-6.5,17-7.1,25.3c1.1,2.2,1.7,4.8,1.5,7.3c0.2,2,0.7,4,1.4,5.9l2.6,6.2l339.2,587.5c3.6,6.6,10.3,11,17.8,11.7l0.5,0.1
	h251.9c6.7-0.2,13.7-3.7,17.4-9.5l339.9-589.2c1.4-3,2.2-13.3,2.6-18.3l-1-0.1c0.9-1.3,1.4-2.8,1.5-4.4
	C975.7,610.9,974,603.1,970.4,596.3z M22.1,604.7L359.4,18.5l1.9-1c0.8-0.2,1.6-0.3,2.4-0.2c1.2,0,250.4,0,250.9-0.1
	c0.6-0.1,1.2,0.1,1.5,0.6l339.2,586.9c0.8,1.6,1.5,3.2,1.9,4.9H702.7L510.8,277.3l97.9-222.4c2.6-6-7.8-10.8-11.3-4.9L271.1,613.5
	H18.6C19.5,610.4,20.6,607.5,22.1,604.7z M380,1190.6c-3.8,6.5-13.5,1-11-5.8l96.7-222.1l-191.7-332H309l172.1,296.6
	c2.4,4.1,7.6,5.5,11.7,3.1c1.3-0.7,2.4-1.8,3.1-3.1l172-299.3c0.2-0.4,0.4-0.7,0.6-1.1h37.1l-217.1,375.7l7.6-13.2L380,1190.6z
	 M488.5,335.3l164.1,284.9L488.5,905.8L323.4,621.3L488.5,335.3z"/>
</svg>
