<?xml version="1.0" encoding="utf-8"?>
<!-- Generator: Adobe Illustrator 24.1.2, SVG Export Plug-In . SVG Version: 6.00 Build 0)  -->
<svg version="1.1" id="Layer_1" xmlns="http://www.w3.org/2000/svg" xmlns:xlink="http://www.w3.org/1999/xlink" x="0px" y="0px"
	 viewBox="0 0 158.3 135" style="enable-background:new 0 0 158.3 135;" xml:space="preserve">
<style type="text/css">
	.st0{fill-rule:evenodd;clip-rule:evenodd;fill:#3b4351;}
</style>
<path class="st0" d="M158.1,55.6c-0.1-5-3.9-5.1-3.9-5.1c-2.3-0.3-4.6-0.7-6.9-1C139,21,111.7,0,79.2,0C46.9,0,19.8,20.6,11.3,48.8
	c-1.9,0.4-3.6,0.7-5.4,1.1c-5,0.9-5.3,4.4-5.3,4.7c-1.1,4.5-0.5,19.6,0,24.7c0.3,5.4,4.8,5,5,5.1c1.7,0.3,3.5,0.7,5.5,1
	C19.3,114,46.6,135,79.2,135s59.7-20.9,68-49.3c4.3-0.5,6.6-0.9,6.6-0.9c4-0.3,4.1-5.2,4.1-5.2C158.7,72.6,158.2,55.6,158.1,55.6z
	 M79.2,16.5c22.1,0,41,12.8,49.1,31c-38.8-3.3-79.8-1.8-97.8-0.9C38.9,28.8,57.5,16.5,79.2,16.5z M114.7,74.8h-5.4l-1.6-3h-8.7
	l-1.4,3h-5.4l7.6-16.9h6.8L114.7,74.8z M77.9,68.5c0,0-3.2-0.3-3.8-4.4v-0.8c-0.1-2.6,1.7-4.9,4.3-5.5h12.2v4.4H79.6v2.5h9.2
	c0,0,3.2,1.1,3.2,4.4v0.8c0.1,2.1-1.1,4.1-3,4.9H74.4v-4.1h12.7v-2.2H77.9z M58.4,68.5c0,0-3.2-0.3-3.8-4.4v-0.8
	c-0.1-2.6,1.7-4.9,4.3-5.5h12.2v4.4H60.1v2.5h9.2c0,0,3.2,1.1,3.2,4.4v0.8c0.1,2.1-1.1,4.1-3,4.9H54.9v-4.1h12.7v-2.2H58.4z
	 M51.4,57.8v16.9h-6V57.9L51.4,57.8z M27.6,63.6v11.2h-5.1V57.9h8.7l6.2,12v-12h4.3v16.9h-7.9L27.6,63.6z M79.2,118.5
	c-22.1,0-41.1-12.8-49.2-31.1c23.2,1.8,49.9,1.9,49.9,1.9c18.8,0.3,35.6-0.6,48.4-1.6C120.1,105.8,101.2,118.5,79.2,118.5z
	 M135.9,74.8h-8.1l-6.5-11.5v11.5h-5.1V57.9h8.9l5.7,11.7V57.9h5.1L135.9,74.8z"/>
<polygon class="st0" points="103.4,62.5 101,67.4 105.8,67.4 "/>
</svg>
