<?xml version="1.0" encoding="utf-8"?>
<!-- Generator: Adobe Illustrator 24.1.2, SVG Export Plug-In . SVG Version: 6.00 Build 0)  -->
<svg version="1.1" id="Layer_1" xmlns="http://www.w3.org/2000/svg" xmlns:xlink="http://www.w3.org/1999/xlink" x="0px" y="0px"
	 viewBox="0 0 50 17.1" style="enable-background:new 0 0 50 17.1;" xml:space="preserve">
<style type="text/css">
	.st0{fill:#3b4351;}
</style>
<path class="st0" d="M8.5,0C3.8,0,0,3.8,0,8.5S3.8,17,8.5,17c2,0,4-0.7,5.5-2c3.2,2.7,7.8,2.7,11,0c3.2,2.7,7.8,2.7,11,0
	c1.5,1.3,3.5,2,5.5,2c4.7,0,8.5-3.8,8.5-8.5S46.2,0,41.5,0c-2,0-4,0.7-5.5,2c-3.2-2.7-7.8-2.7-11,0c-3.2-2.7-7.8-2.7-11,0
	C12.5,0.7,10.5,0,8.5,0z M8.5,2c1.6,0,3,0.6,4.1,1.5C11.5,5,11,6.7,11,8.5c0,1.9,0.6,3.6,1.6,5c-1.2,1-2.6,1.5-4.1,1.5
	C4.9,15,2,12.1,2,8.5l0,0C2,4.9,4.9,2,8.5,2z M19.5,2c1.6,0,3,0.6,4.1,1.5C22.5,5,22,6.7,22,8.5c0,1.9,0.6,3.6,1.6,5
	c-1.2,1-2.6,1.5-4.1,1.5s-3-0.5-4.1-1.5c1.1-1.5,1.6-3.2,1.6-5s-0.6-3.6-1.6-5C16.5,2.5,18,2,19.5,2z M30.5,2c1.6,0,3,0.6,4.2,1.5
	c-1.1,1.5-1.6,3.2-1.7,5c0,1.9,0.6,3.6,1.7,5c-1.2,1-2.6,1.5-4.2,1.5c-1.5,0-3-0.5-4.1-1.5c1.1-1.5,1.6-3.2,1.6-5s-0.6-3.6-1.6-5
	C27.5,2.5,29,2,30.5,2z M41.5,2C45.1,2,48,4.9,48,8.5S45.1,15,41.5,15c-1.5,0-3-0.5-4.2-1.5c1.1-1.5,1.6-3.2,1.7-5
	c0-1.8-0.6-3.6-1.7-5C38.5,2.5,40,2,41.5,2z M14,5c0.6,1,1,2.2,1,3.5S14.6,11,14,12c-0.7-1-1-2.2-1-3.5S13.4,6,14,5z M25,5
	c0.6,1,1,2.2,1,3.5S25.6,11,25,12c-0.7-1-1-2.2-1-3.5S24.4,6,25,5z M36,5c0.6,1,1,2.2,1,3.5S36.6,11,36,12c-0.7-1-1-2.2-1-3.5
	S35.4,6,36,5z"/>
</svg>
